<svg width="238" height="266" viewBox="0 0 238 266" fill="none" xmlns="http://www.w3.org/2000/svg">
<path opacity="0.2" d="M1.91797 43.7686C8.24673 43.7686 44.4111 -5.05328 100.466 43.7686C156.52 92.5904 177.315 32.0152 174.603 24.7823C171.89 17.5494 155.616 -9.57382 145.671 7.60423C135.726 24.7823 145.671 37.4428 160.137 43.7686C174.603 50.0943 180.931 16.6483 202.63 24.7823C219.989 31.2895 232.164 40.1511 236.082 43.7686" stroke="#FC0006" stroke-width="3" stroke-linecap="round" stroke-dasharray="3 3"/>
<path d="M23.1017 220.162L37.2104 102.002C37.3069 101.194 38.0291 100.611 38.8388 100.686L112.954 107.581C114.004 107.678 114.628 108.801 114.156 109.745L88.4791 161.099C88.1992 161.659 88.2962 162.334 88.7225 162.792L123.176 199.83C123.733 200.428 123.708 201.361 123.121 201.93L96.642 227.555C96.3299 227.857 95.9023 228.009 95.4697 227.971L24.462 221.835C23.6175 221.762 23.0012 221.004 23.1017 220.162Z" stroke="#FC0006" stroke-width="4.5"/>
<path d="M196.866 98.0199L126.951 106.759C126.364 106.833 125.875 107.244 125.702 107.81L109.988 159.316C109.82 159.87 109.984 160.471 110.412 160.861L150.375 197.35C150.911 197.839 151.02 198.642 150.634 199.256L133.171 227.038C132.485 228.129 133.404 229.521 134.677 229.317L214.925 216.512C215.74 216.382 216.296 215.619 216.172 214.804L198.535 99.282C198.412 98.4787 197.672 97.9191 196.866 98.0199Z" stroke="#FC0006" stroke-width="4.5"/>
<rect x="34.7705" y="120.609" width="69.5964" height="5.42465" transform="rotate(6.08389 34.7705 120.609)" fill="#FC0006"/>
<rect x="54.7593" y="150.277" width="37.1755" height="5.42465" rx="2.71232" transform="rotate(6.08389 54.7593 150.277)" fill="#FC0006"/>
<rect x="110.362" y="155.428" width="84.6074" height="5.42465" rx="2.71232" transform="rotate(-9.73 110.362 155.428)" fill="#FC0006"/>
<rect x="52.9517" y="166.551" width="48.2954" height="5.42465" rx="2.71232" transform="rotate(6.08389 52.9517 166.551)" fill="#FC0006"/>
<rect x="121.197" y="170.431" width="76.537" height="5.42465" rx="2.71232" transform="rotate(-9.73 121.197 170.431)" fill="#FC0006"/>
<rect x="51.1431" y="184.635" width="69.2763" height="5.42465" rx="2.71232" transform="rotate(6.08389 51.1431 184.635)" fill="#FC0006"/>
<rect x="138.559" y="186.477" width="62.754" height="5.42465" rx="2.71232" transform="rotate(-9.73 138.559 186.477)" fill="#FC0006"/>
<rect x="119.657" y="126.902" width="82.5558" height="5.42465" transform="rotate(-7.79 119.657 126.902)" fill="#FC0006"/>
<rect x="173.497" y="106.168" width="1.80822" height="10.8493" transform="rotate(39.9924 173.497 106.168)" fill="#FC0006"/>
<rect x="175.439" y="113.697" width="1.80822" height="10.8493" transform="rotate(129.992 175.439 113.697)" fill="#FC0006"/>
<circle cx="188.369" cy="108.686" r="4.67465" stroke="#FC0006" stroke-width="1.5"/>
<path d="M62.6454 52.0905C61.8619 49.4984 57.9824 48.2798 51.7074 48.6283C48.9548 41.4541 41.074 37.4962 33.6039 39.7542C26.1166 42.0174 21.7455 49.7081 23.4595 57.2221C18.177 60.3672 15.7039 63.4794 16.4795 66.0454C16.9466 67.5905 18.4847 68.5714 20.7146 69.0912C20.73 69.5059 20.7937 69.9182 20.9164 70.324C21.6968 72.9074 24.4345 74.3735 27.0177 73.5926C29.0065 72.9915 30.365 71.2257 30.4881 69.2152C32.5729 68.9623 34.762 68.5717 36.9639 68.07C37.8671 70.4507 40.4767 71.7657 42.95 71.0181C45.414 70.2733 46.857 67.749 46.3074 65.2759C48.3415 64.5174 50.3133 63.6777 52.1451 62.7832C53.3492 64.4201 55.5082 65.1839 57.5098 64.5789C60.0931 63.798 61.5601 61.0606 60.7792 58.4773C60.6694 58.114 60.5198 57.771 60.3343 57.449C62.223 55.6238 63.157 53.783 62.6454 52.0905ZM34.2072 41.7484C40.9273 39.7171 48.0477 43.532 50.0792 50.2526C50.1985 50.6472 50.2973 51.0611 50.381 51.5235C47.2899 53.5233 43.5762 55.2071 39.598 56.4097C34.8983 57.8303 30.0716 58.4875 25.9218 58.279C25.8414 58.0579 25.768 57.8383 25.7022 57.6207C23.6713 50.9004 27.4862 43.78 34.2072 41.7484ZM26.4149 71.5983C24.9308 72.0469 23.3592 71.2049 22.9106 69.7208C22.8819 69.6256 22.8765 69.5282 22.8579 69.4318C24.4929 69.5925 26.3552 69.5847 28.357 69.4296C28.1666 70.4361 27.4414 71.288 26.4149 71.5983ZM42.3467 69.0239C41.0127 69.4271 39.6151 68.7819 39.0192 67.5701C39.9814 67.3213 40.9408 67.0541 41.8894 66.7673C42.7003 66.5222 43.51 66.26 44.3148 65.986C44.4818 67.3196 43.6755 68.6222 42.3467 69.0239ZM58.7847 59.0811C59.2332 60.5648 58.3914 62.1367 56.9072 62.5853C55.8687 62.8992 54.7623 62.5655 54.0475 61.8068C55.7999 60.86 57.3737 59.8673 58.6888 58.8564C58.719 58.9318 58.7607 59.0016 58.7847 59.0811ZM41.2867 64.7734C28.2209 68.7228 19.194 67.8247 18.4739 65.4425C18.116 64.2587 19.7514 61.9549 24.0801 59.2869C24.1308 59.4184 24.1789 59.5498 24.2337 59.6804L24.4807 60.2699L25.1183 60.3168C29.7244 60.6564 34.94 59.9947 40.2013 58.4043C44.6172 57.0695 48.7316 55.1607 52.1003 52.885L52.6399 52.5204L52.5482 51.8752C52.4871 51.4454 52.4181 51.0518 52.3381 50.6799C57.5828 50.4624 60.2903 51.4999 60.6511 52.6934C61.3711 55.0755 54.3524 60.8239 41.2867 64.7734Z" fill="#FC0006"/>
<ellipse opacity="0.05" cx="118.168" cy="257.75" rx="104.25" ry="8.25" fill="#F8F6F0"/>
</svg>
