<svg width="85" height="84" viewBox="0 0 85 84" fill="none" xmlns="http://www.w3.org/2000/svg">
<path fill-rule="evenodd" clip-rule="evenodd" d="M5.54 7.55995C4.61216 7.55995 3.86 8.31211 3.86 9.23995V22.3269C8.7177 23.7727 12.26 28.2726 12.26 33.6C12.26 38.9273 8.7177 43.4272 3.86 44.873V57.9599C3.86 58.8878 4.61216 59.6399 5.54 59.6399H79.46C80.3878 59.6399 81.14 58.8878 81.14 57.9599V44.873C76.2823 43.4272 72.74 38.9273 72.74 33.6C72.74 28.2726 76.2823 23.7727 81.14 22.3269V9.23995C81.14 8.31211 80.3878 7.55995 79.46 7.55995H5.54ZM84.5 9.23995C84.5 6.45644 82.2435 4.19995 79.46 4.19995H5.54C2.75649 4.19995 0.5 6.45644 0.5 9.23995V25.2C5.13919 25.2 8.9 28.9608 8.9 33.6C8.9 38.2391 5.13919 42 0.5 42V57.9599C0.5 60.7435 2.75649 63 5.54 63H79.46C82.2435 63 84.5 60.7435 84.5 57.9599V42C79.8608 42 76.1 38.2391 76.1 33.6C76.1 28.9608 79.8608 25.2 84.5 25.2V9.23995Z" fill="#717179"/>
<path fill-rule="evenodd" clip-rule="evenodd" d="M42.5 16.8C43.0916 16.8 43.6214 17.1587 43.8299 17.7007L47.7302 27.8372L58.7842 28.3357C59.3752 28.3623 59.8875 28.7446 60.0704 29.2954C60.2532 29.8462 60.0683 30.4502 59.6061 30.8118L50.9626 37.575L53.8941 48.0195C54.0509 48.5779 53.8377 49.173 53.3591 49.5134C52.8804 49.8538 52.2364 49.8683 51.7422 49.5498L42.5 43.5932L33.2577 49.5498C32.7636 49.8683 32.1196 49.8538 31.6409 49.5134C31.1623 49.173 30.9491 48.5779 31.1059 48.0195L34.0374 37.575L25.3939 30.8118C24.9317 30.4502 24.7468 29.8462 24.9296 29.2954C25.1125 28.7446 25.6248 28.3623 26.2158 28.3357L37.2698 27.8372L41.1701 17.7007C41.3786 17.1587 41.9084 16.8 42.5 16.8ZM42.5 22.1377L39.5999 29.6749C39.3998 30.195 38.9026 30.5486 38.3354 30.5742L30.1159 30.9448L36.543 35.9737C36.9865 36.3208 37.1764 36.8929 37.026 37.4288L34.8462 45.1951L41.7185 40.7659C42.1927 40.4603 42.8073 40.4603 43.2815 40.7659L50.1538 45.1951L47.974 37.4288C47.8236 36.8929 48.0135 36.3208 48.457 35.9737L54.8841 30.9448L46.6646 30.5742C46.0974 30.5486 45.6002 30.195 45.4001 29.6749L42.5 22.1377Z" fill="#717179"/>
<path fill-rule="evenodd" clip-rule="evenodd" d="M7.22 69.7199C7.22 68.7921 7.97216 68.0399 8.9 68.0399H76.1C77.0278 68.0399 77.78 68.7921 77.78 69.7199C77.78 70.6478 77.0278 71.3999 76.1 71.3999H8.9C7.97216 71.3999 7.22 70.6478 7.22 69.7199Z" fill="#717179"/>
<path fill-rule="evenodd" clip-rule="evenodd" d="M17.3 78.1199C17.3 77.1921 18.0522 76.4399 18.98 76.4399H66.02C66.9478 76.4399 67.7 77.1921 67.7 78.1199C67.7 79.0478 66.9478 79.7999 66.02 79.7999H18.98C18.0522 79.7999 17.3 79.0478 17.3 78.1199Z" fill="#717179"/>
</svg>
