<svg width="42" height="42" viewBox="0 0 42 42" fill="none" xmlns="http://www.w3.org/2000/svg">
<rect width="42" height="42" rx="6" fill="#27272A"/>
<path d="M30.8932 34.6548C31.6167 33.9313 30.562 31.7036 28.5376 29.6792C26.5131 27.6547 24.2854 26.6001 23.562 27.3235C22.8385 28.047 23.8931 30.2747 25.9176 32.2992C27.942 34.3236 30.1697 35.3783 30.8932 34.6548Z" fill="#FF0013"/>
<path d="M35.3191 32.0068C36.0426 31.2833 34.9879 29.0557 32.9635 27.0312C30.939 25.0067 28.7113 23.9521 27.9879 24.6756C27.2644 25.3991 28.319 27.6267 30.3435 29.6512C32.3679 31.6757 34.5956 32.7303 35.3191 32.0068Z" fill="#FF0013"/>
<path d="M37.5737 27.9745C38.1164 27.4318 36.9151 25.3508 34.8906 23.3263C32.8662 21.3019 30.7851 20.1006 30.2425 20.6432C29.6999 21.1859 30.9012 23.2669 32.9256 25.2913C34.9501 27.3158 37.0311 28.5171 37.5737 27.9745Z" fill="#FF0013"/>
<path d="M38.2145 23.1123C38.6485 22.6782 37.5085 20.8345 35.6683 18.9942C33.828 17.1539 31.9842 16.0139 31.5502 16.448C31.1161 16.882 32.2561 18.7257 34.0964 20.566C35.9367 22.4063 37.7804 23.5463 38.2145 23.1123Z" fill="#FF0013"/>
<path d="M14.6761 18.438C15.3996 17.7145 14.345 15.4868 12.3205 13.4624C10.2961 11.4379 8.06841 10.3833 7.34491 11.1067C6.62142 11.8302 7.67606 14.0579 9.70053 16.0824C11.725 18.1068 13.9526 19.1615 14.6761 18.438Z" fill="#FF0013"/>
<path d="M17.3247 14.0124C18.0482 13.2889 16.9935 11.0613 14.9691 9.03682C12.9446 7.01236 10.717 5.95772 9.99347 6.68121C9.26998 7.4047 10.3246 9.63236 12.3491 11.6568C14.3735 13.6813 16.6012 14.7359 17.3247 14.0124Z" fill="#FF0013"/>
<path d="M21.3572 11.7569C21.8998 11.2143 20.6985 9.13328 18.6741 7.10882C16.6496 5.08435 14.5686 3.88308 14.026 4.4257C13.4833 4.96832 14.6846 7.04935 16.7091 9.07382C18.7335 11.0983 20.8146 12.2995 21.3572 11.7569Z" fill="#FF0013"/>
<path d="M25.5519 10.4501C25.9859 10.0161 24.8459 8.17238 23.0057 6.33209C21.1654 4.4918 19.3216 3.35181 18.8876 3.78586C18.4536 4.21991 19.5935 6.06363 21.4338 7.90392C23.2741 9.74421 25.1178 10.8842 25.5519 10.4501Z" fill="#FF0013"/>
<path d="M38.1085 18.5534C38.4702 18.1916 38.0176 17.1524 37.0974 16.2323C36.1773 15.3121 35.1381 14.8595 34.7763 15.2212C34.4146 15.583 34.8673 16.6221 35.7874 17.5423C36.7076 18.4624 37.7467 18.9151 38.1085 18.5534Z" fill="#FF0013"/>
<path d="M26.7788 7.22328C27.1405 6.86154 26.6878 5.82236 25.7677 4.90221C24.8476 3.98207 23.8084 3.5294 23.4466 3.89114C23.0849 4.25289 23.5376 5.29207 24.4577 6.21221C25.3778 7.13236 26.417 7.58503 26.7788 7.22328Z" fill="#FF0013"/>
<path d="M12.9606 36.371C13.3223 36.0093 11.9744 34.0749 9.94998 32.0504C7.92552 30.026 5.99111 28.6781 5.62937 29.0398C5.26762 29.4016 6.61552 31.336 8.63998 33.3604C10.6644 35.3849 12.5988 36.7328 12.9606 36.371Z" fill="#FF0013"/>
<path d="M19.978 38.0176C20.5206 37.475 17.3798 33.4544 12.9627 29.0374C8.54571 24.6203 4.52512 21.4795 3.9825 22.0221C3.43988 22.5648 6.58071 26.5853 10.9977 31.0024C15.4148 35.4194 19.4354 38.5602 19.978 38.0176Z" fill="#FF0013"/>
<path d="M25.929 36.7314C26.7971 35.8633 22.8758 30.5345 17.1705 24.8292C11.4652 19.124 6.13646 15.2027 5.26836 16.0707C4.40027 16.9388 8.32158 22.2676 14.0269 27.9729C19.7321 33.6782 25.0609 37.5995 25.929 36.7314Z" fill="#FF0013"/>
</svg>
