<svg width="150" height="50" viewBox="0 0 150 50" fill="none" xmlns="http://www.w3.org/2000/svg">
<g clip-path="url(#clip0_1002_2677)">
<path d="M137.668 -8.16406e-05H11.9184C11.46 -8.16406e-05 11.0071 -8.16406e-05 10.5499 0.00241836C10.1672 0.00491836 9.78761 0.0121809 9.40125 0.0182934C8.56189 0.0281706 7.72451 0.102014 6.89637 0.239181C6.06941 0.379334 5.26834 0.643563 4.52028 1.02293C3.77312 1.40551 3.09043 1.90263 2.49696 2.49626C1.90038 3.08821 1.40308 3.77244 1.02419 4.52262C0.64425 5.2713 0.380801 6.07359 0.242938 6.90177C0.103764 7.7289 0.028873 8.56557 0.0189375 9.40427C0.0073375 9.78752 0.0061125 10.172 0 10.5553V39.4482C0.0061125 39.8363 0.0073375 40.2123 0.0189375 40.6005C0.028876 41.4392 0.103767 42.2758 0.242938 43.1029C0.38042 43.9316 0.643885 44.7343 1.02419 45.4833C1.40291 46.231 1.90028 46.9125 2.49696 47.5012C3.08818 48.0974 3.77132 48.5949 4.52028 48.9745C5.26833 49.3549 6.06931 49.6207 6.89637 49.763C7.72465 49.8991 8.56195 49.973 9.40125 49.984C9.78761 49.9925 10.1672 49.9974 10.5499 49.9974C11.0071 49.9999 11.46 49.9999 11.9184 49.9999H137.668C138.118 49.9999 138.574 49.9999 139.023 49.9974C139.404 49.9974 139.795 49.9925 140.176 49.984C141.014 49.9736 141.849 49.8997 142.676 49.763C143.506 49.6197 144.309 49.354 145.061 48.9745C145.809 48.5947 146.492 48.0972 147.083 47.5012C147.678 46.9102 148.176 46.2292 148.56 45.4833C148.937 44.7338 149.198 43.9311 149.333 43.1029C149.473 42.2757 149.55 41.4393 149.565 40.6005C149.57 40.2123 149.57 39.8363 149.57 39.4482C149.58 38.994 149.58 38.5424 149.58 38.0809V11.9201C149.58 11.4623 149.58 11.0082 149.57 10.5553C149.57 10.172 149.57 9.78752 149.565 9.40422C149.55 8.56545 149.473 7.72896 149.333 6.90172C149.198 6.07402 148.937 5.2718 148.56 4.52257C147.788 3.01891 146.564 1.79495 145.061 1.02282C144.309 0.644378 143.505 0.380219 142.676 0.239068C141.849 0.101297 141.014 0.0274281 140.176 0.0181184C139.795 0.0120184 139.404 0.00469336 139.023 0.00225586C138.574 -0.000244141 138.118 -0.000244141 137.668 -0.000244141V-8.16406e-05Z" fill="#A6A6A6"/>
<path d="M10.5561 48.9062C10.1752 48.9062 9.80358 48.9014 9.42572 48.8929C8.64295 48.8827 7.86201 48.8145 7.0893 48.689C6.36878 48.5649 5.6708 48.3341 5.01837 48.0041C4.37192 47.6769 3.78231 47.2478 3.27212 46.7334C2.75455 46.225 2.32364 45.6353 1.99648 44.9878C1.66572 44.336 1.43681 43.6374 1.31773 42.9163C1.18914 42.1414 1.11956 41.3579 1.10961 40.5725C1.10168 40.3089 1.09131 39.4311 1.09131 39.4311V10.5554C1.09131 10.5554 1.10236 9.69116 1.10967 9.43725C1.1192 8.6531 1.18837 7.87082 1.31658 7.09716C1.43588 6.37406 1.66497 5.67344 1.99591 5.01954C2.32186 4.37243 2.75038 3.78233 3.26483 3.2721C3.77871 2.75703 4.37021 2.32576 5.01776 1.99401C5.66869 1.66512 6.36535 1.43592 7.08441 1.31409C7.85966 1.1873 8.64331 1.11875 9.4288 1.10901L10.5567 1.09375H139.017L140.159 1.10963C140.937 1.11887 141.714 1.18681 142.482 1.31286C143.208 1.43622 143.912 1.66702 144.57 1.99768C145.868 2.66623 146.923 3.72395 147.589 5.02259C147.915 5.67197 148.14 6.36688 148.258 7.08374C148.388 7.86374 148.46 8.65217 148.475 9.44275C148.479 9.79675 148.479 10.177 148.479 10.5554C148.489 11.0242 148.489 11.4703 148.489 11.9202V38.081C148.489 38.5351 148.489 38.9783 148.479 39.425C148.479 39.8315 148.479 40.2039 148.474 40.5871C148.46 41.3636 148.388 42.138 148.261 42.904C148.144 43.6303 147.916 44.3344 147.586 44.9915C147.256 45.632 146.828 46.2166 146.316 46.7236C145.805 47.2409 145.215 47.6724 144.567 48.0018C143.91 48.3342 143.207 48.5659 142.482 48.689C141.709 48.8152 140.928 48.8834 140.145 48.8929C139.779 48.9014 139.396 48.9062 139.024 48.9062L137.669 48.9087L10.5561 48.9062Z" fill="black"/>
<path d="M30.961 25.3764C30.9744 24.3331 31.2516 23.3101 31.7666 22.4026C32.2816 21.4952 33.0178 20.7328 33.9067 20.1863C33.342 19.3799 32.5971 18.7162 31.7311 18.248C30.865 17.7798 29.9018 17.52 28.9177 17.4892C26.8187 17.2689 24.7838 18.7453 23.7141 18.7453C22.6238 18.7453 20.9769 17.5111 19.2035 17.5476C18.0564 17.5846 16.9385 17.9182 15.9586 18.5158C14.9788 19.1133 14.1704 19.9545 13.6123 20.9574C11.1948 25.1429 12.9981 31.2942 15.3138 34.6775C16.4725 36.3342 17.8266 38.1848 19.5984 38.1191C21.3322 38.0472 21.9798 37.0135 24.0726 37.0135C26.1461 37.0135 26.7536 38.1191 28.5614 38.0774C30.4219 38.0472 31.594 36.4134 32.712 34.741C33.5445 33.5605 34.1851 32.2559 34.61 30.8754C33.5292 30.4182 32.6068 29.653 31.9579 28.6751C31.309 27.6972 30.9623 26.55 30.961 25.3764Z" fill="white"/>
<path d="M27.5465 15.2637C28.5609 14.0459 29.0606 12.4807 28.9396 10.9004C27.3898 11.0632 25.9583 11.8039 24.9302 12.9749C24.4275 13.547 24.0425 14.2125 23.7972 14.9335C23.5519 15.6545 23.4511 16.4167 23.5005 17.1766C24.2757 17.1846 25.0426 17.0166 25.7434 16.6852C26.4442 16.3539 27.0607 15.8678 27.5465 15.2637Z" fill="white"/>
<path d="M52.8777 33.9246H46.9609L45.54 38.1202H43.0339L48.6382 22.5977H51.2419L56.8462 38.1202H54.2973L52.8777 33.9246ZM47.5737 31.9886H52.2637L49.9517 25.1795H49.887L47.5737 31.9886Z" fill="white"/>
<path d="M68.9495 32.4623C68.9495 35.9792 67.0672 38.2387 64.2266 38.2387C63.507 38.2763 62.7914 38.1106 62.1617 37.7604C61.5319 37.4102 61.0135 36.8898 60.6658 36.2587H60.6121V41.8641H58.2891V26.8031H60.5376V28.6854H60.5804C60.9441 28.0574 61.4712 27.5396 62.1058 27.1873C62.7403 26.835 63.4585 26.6613 64.1839 26.6847C67.0561 26.6847 68.9495 28.9552 68.9495 32.4623ZM66.5618 32.4623C66.5618 30.1711 65.3777 28.6647 63.5711 28.6647C61.7962 28.6647 60.6023 30.2028 60.6023 32.4623C60.6023 34.7426 61.7962 36.2697 63.5711 36.2697C65.3777 36.2697 66.5618 34.7743 66.5618 32.4623Z" fill="white"/>
<path d="M81.4056 32.4623C81.4056 35.9791 79.5232 38.2387 76.6827 38.2387C75.9631 38.2763 75.2475 38.1105 74.6177 37.7604C73.988 37.4102 73.4696 36.8898 73.1219 36.2587H73.0681V41.8641H70.7451V26.8031H72.9936V28.6854H73.0364C73.4001 28.0573 73.9272 27.5396 74.5618 27.1873C75.1963 26.835 75.9145 26.6613 76.6399 26.6847C79.5122 26.6847 81.4056 28.9552 81.4056 32.4623ZM79.0179 32.4623C79.0179 30.171 77.8338 28.6647 76.0271 28.6647C74.2522 28.6647 73.0584 30.2028 73.0584 32.4623C73.0584 34.7426 74.2522 36.2697 76.0271 36.2697C77.8338 36.2697 79.0179 34.7743 79.0179 32.4623H79.0179Z" fill="white"/>
<path d="M89.638 33.7952C89.8101 35.3345 91.3055 36.3452 93.3489 36.3452C95.3069 36.3452 96.7156 35.3345 96.7156 33.9465C96.7156 32.7417 95.866 32.0203 93.8543 31.5259L91.8426 31.0413C88.9922 30.3528 87.669 29.0198 87.669 26.8567C87.669 24.1785 90.003 22.3389 93.3172 22.3389C96.5972 22.3389 98.8457 24.1785 98.9214 26.8567H96.5764C96.4361 25.3076 95.1555 24.3726 93.2842 24.3726C91.4129 24.3726 90.1323 25.3186 90.1323 26.6956C90.1323 27.793 90.9502 28.4387 92.9509 28.9331L94.6611 29.353C97.8459 30.1062 99.1692 31.3855 99.1692 33.656C99.1692 36.56 96.856 38.3789 93.1768 38.3789C89.7344 38.3789 87.4102 36.6027 87.26 33.7951L89.638 33.7952Z" fill="white"/>
<path d="M104.182 24.125V26.8032H106.334V28.6428H104.182V34.8818C104.182 35.8511 104.613 36.3027 105.559 36.3027C105.815 36.2983 106.07 36.2803 106.323 36.249V38.0776C105.898 38.1571 105.466 38.1931 105.033 38.185C102.742 38.185 101.848 37.3244 101.848 35.1296V28.6428H100.203V26.8032H101.848V24.125H104.182Z" fill="white"/>
<path d="M107.581 32.4622C107.581 28.9014 109.678 26.6638 112.948 26.6638C116.23 26.6638 118.317 28.9013 118.317 32.4622C118.317 36.0327 116.241 38.2605 112.948 38.2605C109.657 38.2605 107.581 36.0327 107.581 32.4622ZM115.95 32.4622C115.95 30.0195 114.831 28.5779 112.948 28.5779C111.066 28.5779 109.948 30.0305 109.948 32.4622C109.948 34.9145 111.066 36.3452 112.948 36.3452C114.831 36.3452 115.95 34.9145 115.95 32.4622H115.95Z" fill="white"/>
<path d="M120.232 26.803H122.448V28.7293H122.502C122.652 28.1277 123.004 27.596 123.5 27.2236C123.996 26.8513 124.604 26.6609 125.224 26.6846C125.492 26.6836 125.759 26.7127 126.02 26.7713V28.9441C125.682 28.8408 125.329 28.7934 124.976 28.8037C124.639 28.79 124.302 28.8495 123.99 28.9782C123.678 29.1068 123.397 29.3014 123.167 29.5488C122.937 29.7962 122.763 30.0904 122.658 30.4112C122.552 30.732 122.517 31.0719 122.555 31.4075V38.1201H120.232L120.232 26.803Z" fill="white"/>
<path d="M136.73 34.7964C136.417 36.8508 134.417 38.2607 131.857 38.2607C128.565 38.2607 126.521 36.0549 126.521 32.5161C126.521 28.9663 128.576 26.6641 131.759 26.6641C134.89 26.6641 136.859 28.8149 136.859 32.2463V33.0422H128.866V33.1826C128.829 33.5991 128.881 34.0187 129.019 34.4135C129.157 34.8083 129.377 35.1693 129.665 35.4725C129.953 35.7756 130.302 36.0141 130.689 36.172C131.076 36.3299 131.493 36.4036 131.911 36.3882C132.46 36.4396 133.01 36.3125 133.481 36.0257C133.952 35.7389 134.318 35.3077 134.524 34.7964L136.73 34.7964ZM128.877 31.4187H134.535C134.556 31.0442 134.499 30.6694 134.368 30.3179C134.238 29.9664 134.035 29.6457 133.775 29.376C133.514 29.1063 133.201 28.8934 132.854 28.7506C132.507 28.6079 132.134 28.5383 131.759 28.5464C131.381 28.5441 131.006 28.6168 130.656 28.7602C130.306 28.9037 129.988 29.115 129.72 29.382C129.452 29.6491 129.239 29.9665 129.095 30.3161C128.95 30.6657 128.876 31.0404 128.877 31.4187V31.4187Z" fill="white"/>
<path d="M47.283 10.9137C47.77 10.8788 48.2587 10.9524 48.7138 11.1292C49.169 11.3059 49.5792 11.5815 49.9149 11.9361C50.2506 12.2906 50.5035 12.7152 50.6553 13.1793C50.807 13.6434 50.8539 14.1354 50.7925 14.6198C50.7925 17.0026 49.5046 18.3723 47.283 18.3723H44.5889V10.9137H47.283ZM45.7473 17.3175H47.1536C47.5016 17.3383 47.8498 17.2812 48.173 17.1505C48.4962 17.0197 48.7861 16.8185 49.0217 16.5616C49.2574 16.3046 49.4327 15.9983 49.535 15.6651C49.6374 15.3318 49.6641 14.9799 49.6133 14.635C49.6604 14.2914 49.631 13.9417 49.5271 13.6109C49.4232 13.2801 49.2474 12.9763 49.0123 12.7214C48.7772 12.4665 48.4887 12.2667 48.1673 12.1364C47.846 12.0061 47.4998 11.9485 47.1536 11.9677H45.7473V17.3175Z" fill="white"/>
<path d="M52.1012 15.555C52.0658 15.1851 52.1081 14.8119 52.2254 14.4593C52.3427 14.1067 52.5324 13.7825 52.7823 13.5076C53.0323 13.2326 53.3369 13.0129 53.6767 12.8625C54.0165 12.7122 54.384 12.6345 54.7556 12.6345C55.1272 12.6345 55.4947 12.7122 55.8345 12.8625C56.1743 13.0129 56.4789 13.2326 56.7289 13.5076C56.9788 13.7825 57.1685 14.1067 57.2858 14.4593C57.4031 14.8119 57.4454 15.1851 57.41 15.555C57.4461 15.9253 57.4043 16.299 57.2873 16.6522C57.1703 17.0053 56.9807 17.3301 56.7307 17.6056C56.4807 17.8811 56.1759 18.1013 55.8357 18.252C55.4955 18.4026 55.1276 18.4805 54.7556 18.4805C54.3836 18.4805 54.0157 18.4026 53.6755 18.252C53.3353 18.1013 53.0305 17.8811 52.7805 17.6056C52.5305 17.3301 52.3409 17.0053 52.2239 16.6522C52.1069 16.299 52.0651 15.9253 52.1012 15.555ZM56.2674 15.555C56.2674 14.3349 55.7193 13.6214 54.7574 13.6214C53.7919 13.6214 53.2487 14.3349 53.2487 15.555C53.2487 16.7849 53.7919 17.4929 54.7574 17.4929C55.7194 17.4929 56.2674 16.78 56.2674 15.555H56.2674Z" fill="white"/>
<path d="M64.4668 18.3718H63.3145L62.1511 14.2263H62.0632L60.9048 18.3718H59.7634L58.2119 12.7432H59.3386L60.3469 17.0382H60.4299L61.5872 12.7432H62.6528L63.8101 17.0382H63.898L64.9014 12.7432H66.0122L64.4668 18.3718Z" fill="white"/>
<path d="M67.3171 12.7431H68.3865V13.6373H68.4695C68.6103 13.3161 68.8478 13.0469 69.1489 12.8671C69.45 12.6874 69.7997 12.606 70.1492 12.6344C70.423 12.6139 70.698 12.6552 70.9538 12.7553C71.2095 12.8554 71.4395 13.0118 71.6266 13.2128C71.8137 13.4139 71.9532 13.6545 72.0347 13.9167C72.1162 14.179 72.1376 14.4563 72.0974 14.7279V18.3717H70.9866V15.0069C70.9866 14.1024 70.5935 13.6525 69.772 13.6525C69.586 13.6439 69.4004 13.6755 69.2278 13.7453C69.0553 13.8151 68.8998 13.9214 68.7722 14.0568C68.6445 14.1923 68.5477 14.3538 68.4883 14.5302C68.4288 14.7066 68.4083 14.8938 68.428 15.0789V18.3718H67.3171L67.3171 12.7431Z" fill="white"/>
<path d="M73.8674 10.5459H74.9783V18.3718H73.8674V10.5459Z" fill="white"/>
<path d="M76.5223 15.5553C76.4869 15.1854 76.5293 14.8122 76.6466 14.4596C76.7639 14.107 76.9537 13.7828 77.2036 13.5078C77.4536 13.2328 77.7582 13.0131 78.0981 12.8628C78.4379 12.7124 78.8054 12.6348 79.177 12.6348C79.5486 12.6348 79.9161 12.7124 80.256 12.8628C80.5958 13.0131 80.9005 13.2328 81.1504 13.5078C81.4004 13.7828 81.5901 14.107 81.7074 14.4596C81.8248 14.8122 81.8671 15.1854 81.8317 15.5553C81.8678 15.9256 81.8259 16.2994 81.7089 16.6525C81.5919 17.0057 81.4022 17.3304 81.1522 17.606C80.9022 17.8815 80.5973 18.1016 80.2571 18.2523C79.917 18.4029 79.5491 18.4808 79.177 18.4808C78.805 18.4808 78.4371 18.4029 78.0969 18.2523C77.7567 18.1016 77.4518 17.8815 77.2018 17.606C76.9518 17.3304 76.7622 17.0057 76.6452 16.6525C76.5281 16.2994 76.4863 15.9256 76.5223 15.5553ZM80.6885 15.5553C80.6885 14.3353 80.1404 13.6218 79.1785 13.6218C78.213 13.6218 77.6698 14.3353 77.6698 15.5554C77.6698 16.7852 78.213 17.4932 79.1785 17.4932C80.1405 17.4932 80.6886 16.7803 80.6886 15.5553H80.6885Z" fill="white"/>
<path d="M83.0015 16.78C83.0015 15.7668 83.7559 15.1827 85.095 15.0997L86.6196 15.0118V14.526C86.6196 13.9315 86.2266 13.5958 85.4673 13.5958C84.8472 13.5958 84.4175 13.8235 84.2942 14.2214H83.2188C83.3323 13.2546 84.2417 12.6345 85.5186 12.6345C86.9297 12.6345 87.7256 13.337 87.7256 14.526V18.3718H86.6562V17.5808H86.5684C86.39 17.8646 86.1395 18.0959 85.8424 18.2511C85.5454 18.4064 85.2125 18.48 84.8777 18.4646C84.6414 18.4891 84.4026 18.4639 84.1766 18.3906C83.9507 18.3172 83.7426 18.1973 83.5658 18.0386C83.3891 17.8799 83.2475 17.6859 83.1503 17.4691C83.0531 17.2523 83.0024 17.0176 83.0015 16.78ZM86.6196 16.2991V15.8285L85.2451 15.9164C84.47 15.9682 84.1184 16.2319 84.1184 16.7281C84.1184 17.2347 84.5578 17.5295 85.1621 17.5295C85.3392 17.5474 85.5181 17.5296 85.6881 17.477C85.8581 17.4243 86.0158 17.3381 86.1517 17.2233C86.2877 17.1085 86.3992 16.9675 86.4796 16.8087C86.56 16.6499 86.6076 16.4766 86.6196 16.2991Z" fill="white"/>
<path d="M89.1853 15.5551C89.1853 13.7765 90.0996 12.6498 91.5217 12.6498C91.8735 12.6336 92.2226 12.7178 92.5283 12.8927C92.8339 13.0676 93.0835 13.3258 93.2478 13.6373H93.3308V10.5459H94.4417V18.3718H93.3772V17.4825H93.2893C93.1123 17.7919 92.854 18.0469 92.5425 18.22C92.2309 18.3931 91.8779 18.4777 91.5217 18.4646C90.0899 18.4646 89.1853 17.3379 89.1853 15.5551ZM90.3328 15.5551C90.3328 16.7489 90.8956 17.4673 91.8367 17.4673C92.773 17.4673 93.3516 16.7386 93.3516 15.56C93.3516 14.3869 92.7669 13.6477 91.8367 13.6477C90.9016 13.6477 90.3328 14.371 90.3328 15.5551H90.3328Z" fill="white"/>
<path d="M99.0377 15.555C99.0023 15.1851 99.0446 14.8119 99.1619 14.4593C99.2792 14.1067 99.4689 13.7825 99.7189 13.5076C99.9688 13.2326 100.273 13.0129 100.613 12.8625C100.953 12.7122 101.321 12.6345 101.692 12.6345C102.064 12.6345 102.431 12.7122 102.771 12.8625C103.111 13.0129 103.415 13.2326 103.665 13.5076C103.915 13.7825 104.105 14.1067 104.222 14.4593C104.34 14.8119 104.382 15.1851 104.347 15.555C104.383 15.9253 104.341 16.299 104.224 16.6522C104.107 17.0053 103.917 17.3301 103.667 17.6056C103.417 17.8811 103.112 18.1013 102.772 18.252C102.432 18.4026 102.064 18.4805 101.692 18.4805C101.32 18.4805 100.952 18.4026 100.612 18.252C100.272 18.1013 99.967 17.8811 99.717 17.6056C99.467 17.3301 99.2774 17.0053 99.1604 16.6522C99.0435 16.299 99.0016 15.9253 99.0377 15.555ZM103.204 15.555C103.204 14.3349 102.656 13.6214 101.694 13.6214C100.728 13.6214 100.185 14.3349 100.185 15.555C100.185 16.7849 100.728 17.4929 101.694 17.4929C102.656 17.4929 103.204 16.78 103.204 15.555Z" fill="white"/>
<path d="M105.837 12.7431H106.906V13.6373H106.989C107.13 13.3161 107.368 13.0469 107.669 12.8671C107.97 12.6874 108.319 12.606 108.669 12.6344C108.943 12.6139 109.218 12.6552 109.474 12.7553C109.729 12.8554 109.959 13.0118 110.146 13.2128C110.333 13.4139 110.473 13.6545 110.554 13.9167C110.636 14.179 110.657 14.4563 110.617 14.7279V18.3717H109.506V15.0069C109.506 14.1024 109.113 13.6525 108.292 13.6525C108.106 13.6439 107.92 13.6755 107.748 13.7453C107.575 13.8151 107.42 13.9214 107.292 14.0568C107.164 14.1923 107.067 14.3538 107.008 14.5302C106.949 14.7066 106.928 14.8938 106.948 15.0789V18.3718H105.837V12.7431Z" fill="white"/>
<path d="M116.894 11.3418V12.7688H118.114V13.7045H116.894V16.5988C116.894 17.1884 117.137 17.4465 117.69 17.4465C117.832 17.4461 117.973 17.4375 118.114 17.4209V18.3462C117.914 18.3819 117.712 18.4009 117.51 18.4029C116.274 18.4029 115.782 17.9684 115.782 16.8832V13.7044H114.889V12.7687H115.782V11.3418H116.894Z" fill="white"/>
<path d="M119.631 10.5459H120.732V13.6477H120.82C120.967 13.3236 121.212 13.0528 121.519 12.8724C121.826 12.692 122.181 12.6106 122.536 12.6394C122.809 12.6246 123.081 12.6701 123.334 12.7726C123.587 12.8752 123.814 13.0323 123.999 13.2327C124.184 13.4331 124.323 13.6719 124.405 13.9321C124.487 14.1923 124.511 14.4674 124.475 14.7378V18.3718H123.363V15.0118C123.363 14.1128 122.944 13.6575 122.159 13.6575C121.968 13.6418 121.776 13.668 121.596 13.7344C121.417 13.8007 121.254 13.9055 121.119 14.0414C120.984 14.1773 120.88 14.3411 120.815 14.5213C120.75 14.7014 120.725 14.8936 120.742 15.0845V18.3718H119.631L119.631 10.5459Z" fill="white"/>
<path d="M130.952 16.8524C130.801 17.3668 130.474 17.8118 130.028 18.1095C129.582 18.4072 129.046 18.5386 128.513 18.4808C128.142 18.4906 127.773 18.4196 127.433 18.2726C127.092 18.1257 126.788 17.9065 126.54 17.63C126.293 17.3536 126.109 17.0267 126 16.6719C125.892 16.3171 125.862 15.943 125.913 15.5755C125.863 15.2069 125.894 14.832 126.002 14.4762C126.11 14.1203 126.293 13.7919 126.539 13.513C126.785 13.2342 127.088 13.0115 127.428 12.86C127.768 12.7085 128.136 12.6317 128.508 12.6349C130.074 12.6349 131.019 13.7049 131.019 15.4724V15.86H127.044V15.9222C127.027 16.1288 127.053 16.3367 127.12 16.5326C127.188 16.7286 127.296 16.9082 127.437 17.06C127.578 17.2118 127.75 17.3325 127.94 17.4142C128.131 17.496 128.336 17.537 128.543 17.5347C128.809 17.5666 129.078 17.5188 129.317 17.3973C129.555 17.2758 129.752 17.0861 129.882 16.8523L130.952 16.8524ZM127.044 15.0384H129.887C129.901 14.8495 129.876 14.6598 129.812 14.4814C129.748 14.303 129.648 14.1399 129.517 14.0025C129.387 13.8652 129.229 13.7567 129.054 13.684C128.879 13.6113 128.691 13.576 128.502 13.5803C128.31 13.5779 128.119 13.614 127.941 13.6864C127.763 13.7588 127.601 13.8661 127.466 14.002C127.33 14.1379 127.222 14.2996 127.15 14.4776C127.078 14.6556 127.042 14.8463 127.044 15.0384H127.044Z" fill="white"/>
</g>
<defs>
<clipPath id="clip0_1002_2677">
<rect width="149.58" height="50" fill="white"/>
</clipPath>
</defs>
</svg>
