<svg width="119" height="115" viewBox="0 0 119 115" fill="none" xmlns="http://www.w3.org/2000/svg">
<path d="M19.8034 4C19.8034 2.067 21.3704 0.5 23.3034 0.5H84.3034C86.2364 0.5 87.8034 2.067 87.8034 4V20.5C87.8034 21.3284 87.1318 22 86.3034 22C85.4749 22 84.8034 21.3284 84.8034 20.5V4C84.8034 3.72386 84.5795 3.5 84.3034 3.5H23.3034C23.0272 3.5 22.8034 3.72386 22.8034 4V61.5C22.8034 62.3284 22.1318 63 21.3034 63C20.4749 63 19.8034 62.3284 19.8034 61.5V4Z" fill="#FC0006"/>
<path d="M86.3034 92.5C87.1318 92.5 87.8034 93.1716 87.8034 94V111C87.8034 112.933 86.2364 114.5 84.3034 114.5H23.3034C21.3704 114.5 19.8034 112.933 19.8034 111V104.5C19.8034 103.672 20.4749 103 21.3034 103C22.1318 103 22.8034 103.672 22.8034 104.5V111C22.8034 111.276 23.0272 111.5 23.3034 111.5H84.3034C84.5795 111.5 84.8034 111.276 84.8034 111V94C84.8034 93.1716 85.4749 92.5 86.3034 92.5Z" fill="#FC0006"/>
<path d="M44.3034 9C44.3034 7.89543 45.1988 7 46.3034 7H61.3034C62.4079 7 63.3034 7.89543 63.3034 9C63.3034 10.1046 62.4079 11 61.3034 11H46.3034C45.1988 11 44.3034 10.1046 44.3034 9Z" fill="#FC0006"/>
<path d="M64.5695 19.5C63.2308 19.5 62.1455 20.5853 62.1455 21.9241V24.5981C57.225 25.4384 52.6721 27.3555 48.7387 30.0969L46.2906 27.6489C45.344 26.7022 43.8091 26.7022 42.8625 27.6489L38.2887 32.2227C37.342 33.1694 37.342 34.7042 38.2887 35.6508L40.6791 38.0413C37.8537 41.9731 35.8612 46.5459 34.9617 51.5H32.2274C30.8886 51.5 29.8034 52.5853 29.8034 53.9241V61.076C29.8034 62.4147 30.8886 63.5 32.2274 63.5H34.9617C35.8201 68.2279 37.674 72.6085 40.2973 76.4162L38.4164 78.2971C37.4698 79.2438 37.4697 80.7786 38.4164 81.7252L42.9902 86.2991C43.9369 87.2457 45.4717 87.2457 46.4183 86.2991L48.1986 84.5188C52.2531 87.4655 56.9981 89.5229 62.1455 90.402V93.076C62.1455 94.4147 63.2308 95.5 64.5695 95.5H71.0379C72.3766 95.5 73.4619 94.4147 73.4619 93.076V90.4019C78.5101 89.5396 83.1715 87.544 87.174 84.6875C87.8483 84.2062 88.0048 83.2695 87.5235 82.5952C87.0423 81.9209 86.1055 81.7644 85.4312 82.2456C81.4757 85.0686 76.8167 86.9659 71.7682 87.6236C71.021 87.7209 70.4619 88.3575 70.4619 89.111V92.5H65.1455V89.1111C65.1455 88.3576 64.5864 87.721 63.8392 87.6237C58.2777 86.8993 53.1884 84.6704 48.9919 81.3566C48.3949 80.8852 47.5395 80.9353 47.0016 81.4732L44.7043 83.7705L40.945 80.0112L43.3192 77.6369C43.8466 77.1096 43.9064 76.275 43.4597 75.6778C40.4774 71.6906 38.4528 66.9485 37.724 61.7902C37.6195 61.0502 36.9861 60.5 36.2388 60.5H32.8034V54.5H36.2388C36.9862 54.5 37.6195 53.9499 37.7241 53.2098C38.4835 47.8345 40.6501 42.911 43.8414 38.8228C44.3075 38.2257 44.2553 37.3748 43.7197 36.8392L40.8173 33.9368L44.5766 30.1775L47.523 33.1239C48.0526 33.6535 48.8916 33.7113 49.4888 33.2593C53.5875 30.1575 58.4953 28.0725 63.8392 27.3764C64.5864 27.2791 65.1455 26.6425 65.1455 25.889V22.5H70.4619V25.8891C70.4619 26.6426 71.021 27.2792 71.7682 27.3765C77.0526 28.0649 81.9104 30.1115 85.9812 33.1564C86.5783 33.6031 87.413 33.5432 87.9403 33.0159L90.4425 30.5137L94.2018 34.273L91.7765 36.6983C91.2386 37.2361 91.1885 38.0915 91.66 38.6885C95.0978 43.0421 97.368 48.3565 98.0021 54.1628C98.092 54.9863 98.8325 55.581 99.656 55.4911C100.48 55.4011 101.074 54.6606 100.984 53.8371C100.338 47.9206 98.146 42.4687 94.8221 37.8953L96.7303 35.9871C97.677 35.0404 97.677 33.5056 96.7303 32.5589L92.1565 27.9851C91.2099 27.0385 89.675 27.0385 88.7284 27.9851L86.7195 29.994C82.8203 27.3076 78.3203 25.428 73.4619 24.5982V21.9241C73.4619 20.5853 72.3766 19.5 71.0379 19.5H64.5695Z" fill="#FC0006"/>
<path d="M53.8034 107C55.7364 107 57.3034 105.433 57.3034 103.5C57.3034 101.567 55.7364 100 53.8034 100C51.8704 100 50.3034 101.567 50.3034 103.5C50.3034 105.433 51.8704 107 53.8034 107Z" fill="#FC0006"/>
<path d="M67.8034 35.5C55.6531 35.5 45.8034 45.3497 45.8034 57.5C45.8034 69.6503 55.6531 79.5 67.8034 79.5C69.1348 79.5 70.4374 79.3819 71.7016 79.1559C72.7717 78.9647 73.8148 78.6961 74.8249 78.3561C75.6101 78.0919 76.4608 78.5142 76.725 79.2994C76.9892 80.0845 76.5669 80.9352 75.7818 81.1994C74.6326 81.5862 73.4462 81.8917 72.2294 82.1091C70.7918 82.3661 69.3126 82.5 67.8034 82.5C53.9962 82.5 42.8034 71.3071 42.8034 57.5C42.8034 43.6929 53.9962 32.5 67.8034 32.5C77.5979 32.5 86.0742 38.1328 90.1744 46.3289C90.5451 47.0698 90.2449 47.9709 89.504 48.3415C88.7631 48.7121 87.8621 48.412 87.4914 47.6711C83.8798 40.4517 76.4185 35.5 67.8034 35.5Z" fill="#FC0006"/>
<path d="M59.8034 57.5C59.8034 53.0817 63.3851 49.5 67.8034 49.5C71.016 49.5 73.7894 51.3937 75.0625 54.1323C75.4117 54.8835 76.3038 55.2094 77.055 54.8602C77.8062 54.511 78.1321 53.6189 77.7829 52.8677C76.0362 49.1102 72.2262 46.5 67.8034 46.5C61.7282 46.5 56.8034 51.4249 56.8034 57.5C56.8034 63.5751 61.7282 68.5 67.8034 68.5C68.6318 68.5 69.3034 67.8284 69.3034 67C69.3034 66.1716 68.6318 65.5 67.8034 65.5C63.3851 65.5 59.8034 61.9183 59.8034 57.5Z" fill="#FC0006"/>
<path d="M70.3034 57.5C70.3034 58.8807 69.1841 60 67.8034 60C66.4226 60 65.3034 58.8807 65.3034 57.5C65.3034 56.1193 66.4226 55 67.8034 55C69.1841 55 70.3034 56.1193 70.3034 57.5Z" fill="#FC0006"/>
<path fill-rule="evenodd" clip-rule="evenodd" d="M85.2242 51.5C83.8479 51.5 82.5173 51.7077 81.2636 52.0944C80.7611 52.2494 80.3764 52.6562 80.2498 53.1667C80.1233 53.6771 80.2732 54.2165 80.6451 54.5884L86.8949 60.8382L81.8641 65.869L75.2755 59.2804C74.9216 58.9265 74.4145 58.7724 73.9236 58.8696C73.4326 58.9668 73.0225 59.3024 72.8301 59.7644C72.1681 61.3539 71.8034 63.0966 71.8034 64.9208C71.8034 72.3329 77.812 78.3416 85.2242 78.3416C86.9122 78.3416 88.53 78.0293 90.0211 77.4585L108.921 96.3587C111.059 98.4962 114.525 98.4962 116.662 96.3587C118.8 94.2211 118.8 90.7554 116.662 88.6178L97.7619 69.7176C98.3327 68.2266 98.645 66.6088 98.645 64.9208C98.645 57.5087 92.6363 51.5 85.2242 51.5ZM90.0769 59.7776L84.8075 54.5082C84.9457 54.5027 85.0846 54.5 85.2242 54.5C90.9794 54.5 95.645 59.1656 95.645 64.9208C95.645 66.5323 95.2802 68.0544 94.6302 69.4128C94.3556 69.9866 94.4728 70.6711 94.9226 71.1209L114.541 90.7391C115.507 91.7051 115.507 93.2713 114.541 94.2373C113.575 95.2033 112.009 95.2033 111.043 94.2373L91.4244 74.6192C90.9746 74.1694 90.29 74.0522 89.7162 74.3268C88.3578 74.9769 86.8357 75.3416 85.2242 75.3416C79.4689 75.3416 74.8034 70.6761 74.8034 64.9208C74.8034 64.3317 74.8521 63.7546 74.9457 63.1932L80.8035 69.051C81.0848 69.3323 81.4663 69.4903 81.8641 69.4903C82.2619 69.4903 82.6435 69.3323 82.9248 69.051L90.0769 61.8989C90.6627 61.3131 90.6627 60.3634 90.0769 59.7776Z" fill="#FC0006"/>
<path fill-rule="evenodd" clip-rule="evenodd" d="M16.3034 74.5C11.6089 74.5 7.80336 78.3056 7.80336 83C7.80336 87.6944 11.6089 91.5 16.3034 91.5C20.9978 91.5 24.8034 87.6944 24.8034 83C24.8034 78.3056 20.9978 74.5 16.3034 74.5ZM10.8034 83C10.8034 79.9624 13.2658 77.5 16.3034 77.5C19.3409 77.5 21.8034 79.9624 21.8034 83C21.8034 86.0376 19.3409 88.5 16.3034 88.5C13.2658 88.5 10.8034 86.0376 10.8034 83Z" fill="#FC0006"/>
<path fill-rule="evenodd" clip-rule="evenodd" d="M30.6462 72.5684C29.9558 71.3727 28.4269 70.963 27.2311 71.6534L26.1804 72.26C25.4437 71.5996 24.629 71.0058 23.7408 70.493C22.6797 69.8804 21.571 69.4164 20.4402 69.0956V68.5445C20.4402 67.8815 20.1768 67.2456 19.7079 66.7768C19.2391 66.3079 18.6032 66.0445 17.9402 66.0445H13.8419C12.4612 66.0445 11.3419 67.1638 11.3419 68.5445V69.495C9.69083 70.1213 8.14619 71.0506 6.80046 72.2595L5.75042 71.6533C4.55469 70.9629 3.02571 71.3726 2.33535 72.5684L0.335354 76.0325C-0.355002 77.2282 0.054686 78.7572 1.25042 79.4475L2.30045 80.0538C1.87775 82.0536 1.89115 84.0949 2.30342 86.0454L1.25037 86.6534C0.676157 86.9849 0.25716 87.5309 0.085553 88.1714C-0.0860551 88.8118 0.00378296 89.4942 0.335304 90.0684L2.3353 93.5325C3.02566 94.7283 4.55464 95.138 5.75037 94.4476L6.80128 93.8409C7.53794 94.5013 8.35267 95.095 9.2408 95.6078C9.92348 96.0019 10.6261 96.3347 11.3419 96.6074V98.5445C11.3419 99.2076 11.6053 99.8435 12.0741 100.312C12.543 100.781 13.1789 101.045 13.8419 101.045H17.9402C19.3209 101.045 20.4402 99.9252 20.4402 98.5445V97.0021C22.5423 96.4072 24.5143 95.3387 26.1812 93.8413L27.2312 94.4475C28.4269 95.1379 29.9559 94.7282 30.6462 93.5325L32.6462 90.0684C33.3366 88.8726 32.9269 87.3437 31.7312 86.6533L30.6811 86.0471C31.1038 84.0472 31.0904 82.006 30.6782 80.0555L31.7311 79.4476C32.3053 79.1161 32.7243 78.57 32.8959 77.9296C33.0676 77.2891 32.9777 76.6068 32.6462 76.0325L30.6462 72.5684ZM22.4908 72.6581C23.7658 73.3942 24.8546 74.3289 25.7406 75.4007L28.4811 73.8184L30.4811 77.2825L27.7381 78.8663C28.7195 81.509 28.7685 84.4796 27.7394 87.2354L30.4812 88.8184L28.4812 92.2825L25.7394 90.6995C23.7442 93.1178 20.9255 94.5977 17.9402 94.9633V98.5445H13.8419V94.7577C12.6934 94.4974 11.5642 94.0624 10.4908 93.4427C9.21586 92.7066 8.12709 91.7719 7.24102 90.7002L4.50037 92.2825L2.50037 88.8184L5.24358 87.2346C4.26205 84.5918 4.21313 81.6212 5.24218 78.8654L2.50042 77.2825L4.50042 73.8184L7.24218 75.4013C8.96775 73.3098 11.3093 71.9202 13.8419 71.3464L13.8419 68.5445H17.9402V71.1351C19.4986 71.324 21.0454 71.8236 22.4908 72.6581Z" fill="#FC0006"/>
</svg>
