<svg width="20" height="20" viewBox="0 0 20 20" fill="none" xmlns="http://www.w3.org/2000/svg">
<mask id="mask0_27040_11464" style="mask-type:alpha" maskUnits="userSpaceOnUse" x="0" y="0" width="20" height="20">
<rect width="20" height="20" fill="#D9D9D9"/>
</mask>
<g mask="url(#mask0_27040_11464)">
<path d="M3.26357 17.5C3.04751 17.5 2.86624 17.4244 2.71975 17.2731C2.57325 17.1219 2.5 16.9388 2.5 16.7241V12.4393C2.5 12.0018 2.65583 11.6282 2.96749 11.3184C3.27914 11.0085 3.65499 10.8536 4.09503 10.8536H4.26471V7.27736C4.26471 6.83989 4.42054 6.46624 4.7322 6.15641C5.04385 5.84659 5.4197 5.69168 5.85974 5.69168H9.33825V4.40286C9.0792 4.23305 8.86737 4.03371 8.70278 3.80485C8.53819 3.57599 8.4559 3.30299 8.4559 2.98586C8.4559 2.78906 8.49436 2.59872 8.57127 2.41485C8.64819 2.23097 8.76358 2.06257 8.91744 1.90963L10 0.833374L11.0826 1.90963C11.2364 2.06257 11.3518 2.23097 11.4287 2.41485C11.5056 2.59872 11.5441 2.78906 11.5441 2.98586C11.5441 3.30299 11.4618 3.57599 11.2972 3.80485C11.1326 4.03371 10.9208 4.23305 10.6617 4.40286V5.69168H14.1403C14.5803 5.69168 14.9561 5.84659 15.2678 6.15641C15.5795 6.46624 15.7353 6.83989 15.7353 7.27736V10.8536H15.905C16.345 10.8536 16.7209 11.0085 17.0325 11.3184C17.3442 11.6282 17.5 12.0018 17.5 12.4393V16.7241C17.5 16.9388 17.4239 17.1219 17.2718 17.2731C17.1196 17.4244 16.9355 17.5 16.7194 17.5H3.26357ZM5.58822 10.8536H14.4118V7.27736C14.4118 7.19863 14.3863 7.13396 14.3354 7.08335C14.2845 7.03273 14.2194 7.00743 14.1403 7.00743H5.85974C5.78055 7.00743 5.7155 7.03273 5.66459 7.08335C5.61368 7.13396 5.58822 7.19863 5.58822 7.27736V10.8536ZM3.82351 16.1843H16.1765V12.4393C16.1765 12.3606 16.151 12.2959 16.1001 12.2453C16.0492 12.1947 15.9842 12.1694 15.905 12.1694H4.09503C4.01584 12.1694 3.95079 12.1947 3.89988 12.2453C3.84897 12.2959 3.82351 12.3606 3.82351 12.4393V16.1843Z" fill="#ABACB6"/>
</g>
</svg>
