<svg width="26" height="26" viewBox="0 0 26 26" fill="none" xmlns="http://www.w3.org/2000/svg">
<mask id="mask0_27040_29466" style="mask-type:alpha" maskUnits="userSpaceOnUse" x="0" y="0" width="26" height="26">
<rect width="26" height="26" fill="#D9D9D9"/>
</mask>
<g mask="url(#mask0_27040_29466)">
<path d="M12.9998 18.9583C14.354 18.9583 15.505 18.4844 16.453 17.5365C17.4009 16.5885 17.8748 15.4375 17.8748 14.0833C17.8748 12.7292 17.4009 11.5781 16.453 10.6302C15.505 9.68229 14.354 9.20833 12.9998 9.20833C11.6457 9.20833 10.4946 9.68229 9.54671 10.6302C8.5988 11.5781 8.12484 12.7292 8.12484 14.0833C8.12484 15.4375 8.5988 16.5885 9.54671 17.5365C10.4946 18.4844 11.6457 18.9583 12.9998 18.9583ZM12.9998 16.7917C12.2415 16.7917 11.6005 16.5299 11.0769 16.0063C10.5533 15.4826 10.2915 14.8417 10.2915 14.0833C10.2915 13.325 10.5533 12.684 11.0769 12.1604C11.6005 11.6368 12.2415 11.375 12.9998 11.375C13.7582 11.375 14.3991 11.6368 14.9228 12.1604C15.4464 12.684 15.7082 13.325 15.7082 14.0833C15.7082 14.8417 15.4464 15.4826 14.9228 16.0063C14.3991 16.5299 13.7582 16.7917 12.9998 16.7917ZM4.33317 22.75C3.73734 22.75 3.22727 22.5378 2.80296 22.1135C2.37866 21.6892 2.1665 21.1792 2.1665 20.5833V7.58333C2.1665 6.9875 2.37866 6.47743 2.80296 6.05313C3.22727 5.62882 3.73734 5.41667 4.33317 5.41667H7.74567L9.74984 3.25H16.2498L18.254 5.41667H21.6665C22.2623 5.41667 22.7724 5.62882 23.1967 6.05313C23.621 6.47743 23.8332 6.9875 23.8332 7.58333V20.5833C23.8332 21.1792 23.621 21.6892 23.1967 22.1135C22.7724 22.5378 22.2623 22.75 21.6665 22.75H4.33317Z" fill="#F8F6F0"/>
</g>
</svg>
