<svg width="75" height="75" viewBox="0 0 75 75" fill="none" xmlns="http://www.w3.org/2000/svg">
<path d="M45.9829 67.8955H29.0171C13.6641 67.8955 7.10449 61.3359 7.10449 45.9829V29.0171C7.10449 13.6641 13.6641 7.10449 29.0171 7.10449H45.9814C61.3345 7.10449 67.894 13.6641 67.894 29.0171V45.9814C67.8955 61.3359 61.3359 67.8955 45.9829 67.8955ZM29.0171 11.3452C15.9829 11.3452 11.3452 15.9829 11.3452 29.0171V45.9814C11.3452 59.0156 15.9829 63.6533 29.0171 63.6533H45.9814C59.0156 63.6533 63.6533 59.0156 63.6533 45.9814V29.0171C63.6533 15.9829 59.0156 11.3452 45.9814 11.3452H29.0171Z" fill="#717179"/>
<path d="M24.2959 46.6611C23.8433 46.6611 23.3906 46.519 22.9951 46.2085C22.062 45.501 21.8921 44.1724 22.5996 43.2392L29.3291 34.5029C30.1494 33.457 31.3081 32.7788 32.6367 32.6089C33.9375 32.439 35.2661 32.8066 36.312 33.6269L41.4858 37.6992C41.6836 37.8691 41.8814 37.8691 42.0234 37.8398C42.1362 37.8398 42.334 37.7827 42.5039 37.5571L49.0357 29.1313C49.7432 28.1982 51.0996 28.0283 52.0049 28.7637C52.938 29.4712 53.1079 30.7998 52.3726 31.7329L45.8408 40.1587C45.0205 41.2046 43.8618 41.8828 42.5332 42.0249C41.2046 42.1948 39.9038 41.8271 38.8579 41.0068L33.6841 36.9346C33.4863 36.7646 33.2593 36.7646 33.1465 36.7925C33.0337 36.7925 32.8359 36.8496 32.666 37.0752L25.9365 45.8115C25.5674 46.3784 24.9463 46.6611 24.2959 46.6611Z" fill="#717179"/>
</svg>
