<svg width="25" height="24" viewBox="0 0 25 24" fill="none" xmlns="http://www.w3.org/2000/svg">
<path d="M12.5 1.5C6.70156 1.5 2 6.20156 2 12C2 17.7984 6.70156 22.5 12.5 22.5C18.2984 22.5 23 17.7984 23 12C23 6.20156 18.2984 1.5 12.5 1.5ZM16.3766 15.9891L14.8297 15.982L12.5 13.2047L10.1727 15.9797L8.62344 15.9867C8.52031 15.9867 8.43594 15.9047 8.43594 15.7992C8.43594 15.7547 8.45234 15.7125 8.48047 15.6773L11.5297 12.0445L8.48047 8.41406C8.45215 8.37971 8.43643 8.3367 8.43594 8.29219C8.43594 8.18906 8.52031 8.10469 8.62344 8.10469L10.1727 8.11172L12.5 10.8891L14.8273 8.11406L16.3742 8.10703C16.4773 8.10703 16.5617 8.18906 16.5617 8.29453C16.5617 8.33906 16.5453 8.38125 16.5172 8.41641L13.4727 12.0469L16.5195 15.6797C16.5477 15.7148 16.5641 15.757 16.5641 15.8016C16.5641 15.9047 16.4797 15.9891 16.3766 15.9891Z" fill="white"/>
</svg>
