<svg width="877" height="470" viewBox="0 0 877 470" fill="none" xmlns="http://www.w3.org/2000/svg">
<g filter="url(#filter0_d_11032_69383)">
<mask id="path-1-inside-1_11032_69383" fill="white">
<path fill-rule="evenodd" clip-rule="evenodd" d="M42 27H421.104C422.103 36.5533 430.182 44 440 44C449.818 44 457.897 36.5533 458.896 27H835C841.627 27 847 32.3726 847 39V425C847 431.627 841.627 437 835 437H459C459 426.507 450.493 418 440 418C429.507 418 421 426.507 421 437H42C35.3726 437 30 431.627 30 425V39C30 32.3726 35.3726 27 42 27Z"/>
</mask>
<path fill-rule="evenodd" clip-rule="evenodd" d="M42 27H421.104C422.103 36.5533 430.182 44 440 44C449.818 44 457.897 36.5533 458.896 27H835C841.627 27 847 32.3726 847 39V425C847 431.627 841.627 437 835 437H459C459 426.507 450.493 418 440 418C429.507 418 421 426.507 421 437H42C35.3726 437 30 431.627 30 425V39C30 32.3726 35.3726 27 42 27Z" fill="#303034"/>
<path d="M421.104 27L422.099 26.896L422.005 26H421.104V27ZM458.896 27V26H457.995L457.901 26.896L458.896 27ZM459 437H458V438H459V437ZM421 437V438H422V437H421ZM421.104 26H42V28H421.104V26ZM440 43C430.699 43 423.045 35.9454 422.099 26.896L420.109 27.104C421.162 37.1612 429.665 45 440 45V43ZM457.901 26.896C456.955 35.9454 449.301 43 440 43V45C450.335 45 458.838 37.1612 459.891 27.104L457.901 26.896ZM835 26H458.896V28H835V26ZM848 39C848 31.8203 842.18 26 835 26V28C841.075 28 846 32.9249 846 39H848ZM848 425V39H846V425H848ZM835 438C842.18 438 848 432.18 848 425H846C846 431.075 841.075 436 835 436V438ZM459 438H835V436H459V438ZM440 419C449.941 419 458 427.059 458 437H460C460 425.954 451.046 417 440 417V419ZM422 437C422 427.059 430.059 419 440 419V417C428.954 417 420 425.954 420 437H422ZM42 438H421V436H42V438ZM29 425C29 432.18 34.8203 438 42 438V436C35.9249 436 31 431.075 31 425H29ZM29 39V425H31V39H29ZM42 26C34.8203 26 29 31.8203 29 39H31C31 32.9249 35.9249 28 42 28V26Z" fill="#717179" fill-opacity="0.5" mask="url(#path-1-inside-1_11032_69383)"/>
</g>
<defs>
<filter id="filter0_d_11032_69383" x="0" y="0" width="877" height="470" filterUnits="userSpaceOnUse" color-interpolation-filters="sRGB">
<feFlood flood-opacity="0" result="BackgroundImageFix"/>
<feColorMatrix in="SourceAlpha" type="matrix" values="0 0 0 0 0 0 0 0 0 0 0 0 0 0 0 0 0 0 127 0" result="hardAlpha"/>
<feOffset dy="3"/>
<feGaussianBlur stdDeviation="15"/>
<feComposite in2="hardAlpha" operator="out"/>
<feColorMatrix type="matrix" values="0 0 0 0 0 0 0 0 0 0 0 0 0 0 0 0 0 0 0.25 0"/>
<feBlend mode="normal" in2="BackgroundImageFix" result="effect1_dropShadow_11032_69383"/>
<feBlend mode="normal" in="SourceGraphic" in2="effect1_dropShadow_11032_69383" result="shape"/>
</filter>
</defs>
</svg>
