<svg width="16" height="16" viewBox="0 0 16 16" fill="none" xmlns="http://www.w3.org/2000/svg">
<mask id="mask0_26325_5064" style="mask-type:alpha" maskUnits="userSpaceOnUse" x="0" y="0" width="16" height="16">
<rect width="16" height="16" fill="#D9D9D9"/>
</mask>
<g mask="url(#mask0_26325_5064)">
<path d="M8.00016 11.1025C8.14189 11.1025 8.26062 11.0546 8.35634 10.9587C8.45206 10.8629 8.49993 10.7441 8.49993 10.6023C8.49993 10.4606 8.45199 10.3419 8.35613 10.2461C8.26025 10.1504 8.14145 10.1026 7.99973 10.1026C7.85799 10.1026 7.73926 10.1505 7.64354 10.2464C7.54782 10.3422 7.49996 10.461 7.49996 10.6028C7.49996 10.7445 7.54789 10.8632 7.64376 10.959C7.73964 11.0547 7.85844 11.1025 8.00016 11.1025ZM8.00016 8.49997C8.14189 8.49997 8.26062 8.45203 8.35634 8.35617C8.45206 8.26029 8.49993 8.14149 8.49993 7.99977C8.49993 7.85803 8.45199 7.73931 8.35613 7.64358C8.26025 7.54786 8.14145 7.5 7.99973 7.5C7.85799 7.5 7.73926 7.54793 7.64354 7.6438C7.54782 7.73968 7.49996 7.85848 7.49996 8.0002C7.49996 8.14193 7.54789 8.26066 7.64376 8.35638C7.73964 8.45211 7.85844 8.49997 8.00016 8.49997ZM8.00016 5.89742C8.14189 5.89742 8.26062 5.84948 8.35634 5.7536C8.45206 5.65772 8.49993 5.53892 8.49993 5.3972C8.49993 5.25548 8.45199 5.13675 8.35613 5.04102C8.26025 4.94529 8.14145 4.89743 7.99973 4.89743C7.85799 4.89743 7.73926 4.94537 7.64354 5.04125C7.54782 5.13712 7.49996 5.25592 7.49996 5.39765C7.49996 5.53937 7.54789 5.6581 7.64376 5.75383C7.73964 5.84956 7.85844 5.89742 8.00016 5.89742ZM13.1281 13H2.87176C2.54035 13 2.25664 12.882 2.02064 12.646C1.78463 12.41 1.66663 12.1262 1.66663 11.7948V9.60257C2.04611 9.52991 2.36321 9.34379 2.61791 9.04422C2.87261 8.74465 2.99996 8.39657 2.99996 7.99998C2.99996 7.60339 2.87261 7.25532 2.61791 6.95575C2.36321 6.65617 2.04611 6.47006 1.66663 6.3974V4.20513C1.66663 3.87372 1.78463 3.59002 2.02064 3.35402C2.25664 3.11801 2.54035 3 2.87176 3H13.1281C13.4595 3 13.7432 3.11801 13.9792 3.35402C14.2153 3.59002 14.3333 3.87372 14.3333 4.20513V6.3974C13.9538 6.47006 13.6367 6.65617 13.382 6.95575C13.1273 7.25532 12.9999 7.60339 12.9999 7.99998C12.9999 8.39657 13.1273 8.74465 13.382 9.04422C13.6367 9.34379 13.9538 9.52991 14.3333 9.60257V11.7948C14.3333 12.1262 14.2153 12.41 13.9792 12.646C13.7432 12.882 13.4595 13 13.1281 13ZM13.1281 12C13.188 12 13.2371 11.9808 13.2756 11.9423C13.314 11.9038 13.3333 11.8547 13.3333 11.7948V10.3C12.9222 10.0555 12.5972 9.73054 12.3583 9.32498C12.1194 8.91943 11.9999 8.47776 11.9999 7.99998C11.9999 7.52221 12.1194 7.08054 12.3583 6.67498C12.5972 6.26943 12.9222 5.94443 13.3333 5.69998V4.20513C13.3333 4.1453 13.314 4.09615 13.2756 4.05768C13.2371 4.01922 13.188 3.99998 13.1281 3.99998H2.87176C2.81193 3.99998 2.76278 4.01922 2.72431 4.05768C2.68584 4.09615 2.66661 4.1453 2.66661 4.20513V5.69998C3.07772 5.94443 3.40272 6.26943 3.64161 6.67498C3.8805 7.08054 3.99994 7.52221 3.99994 7.99998C3.99994 8.47776 3.8805 8.91943 3.64161 9.32498C3.40272 9.73054 3.07772 10.0555 2.66661 10.3V11.7948C2.66661 11.8547 2.68584 11.9038 2.72431 11.9423C2.76278 11.9808 2.81193 12 2.87176 12H13.1281Z" fill="#FC0006"/>
</g>
</svg>
