<svg width="28" height="28" viewBox="0 0 28 28" fill="none" xmlns="http://www.w3.org/2000/svg">
<path fill-rule="evenodd" clip-rule="evenodd" d="M2.3335 21.2379C2.3335 24.0023 4.58115 26.25 7.34561 26.25H20.6547C23.4192 26.25 25.6668 24.0023 25.6696 21.2379V6.76211C25.6696 3.99766 23.4192 1.75 20.6575 1.75H7.34561C4.58115 1.75 2.3335 3.99766 2.3335 6.76211V21.2379ZM4.0835 6.76211C4.0835 4.96289 5.54639 3.5 7.34561 3.5H20.6575C22.4567 3.5 23.9196 4.96289 23.9196 6.76211V21.2379C23.9196 23.0371 22.4567 24.5 20.6575 24.5H7.34561C5.54639 24.5 4.0835 23.0371 4.0835 21.2379V6.76211ZM8.75016 10.5H14.0002C14.4841 10.5 14.8752 10.109 14.8752 9.625C14.8752 9.14102 14.4841 8.75 14.0002 8.75H8.75016C8.26618 8.75 7.87516 9.14102 7.87516 9.625C7.87516 10.109 8.26618 10.5 8.75016 10.5ZM7.87516 14C7.87516 14.484 8.26618 14.875 8.75016 14.875H19.2502C19.7341 14.875 20.1252 14.484 20.1252 14C20.1252 13.516 19.7341 13.125 19.2502 13.125H8.75016C8.26618 13.125 7.87516 13.516 7.87516 14ZM7.87516 18.375C7.87516 18.859 8.26618 19.25 8.75016 19.25H19.2502C19.7341 19.25 20.1252 18.859 20.1252 18.375C20.1252 17.891 19.7341 17.5 19.2502 17.5H8.75016C8.26618 17.5 7.87516 17.891 7.87516 18.375Z" fill="white"/>
</svg>
