<svg width="28" height="28" viewBox="0 0 28 28" fill="none" xmlns="http://www.w3.org/2000/svg">
<path fill-rule="evenodd" clip-rule="evenodd" d="M1.3999 6.9999C1.3999 5.84011 2.3401 4.8999 3.4999 4.8999H24.4999C25.6597 4.8999 26.5999 5.8401 26.5999 6.9999V10.9217C26.5999 11.3604 26.2944 11.7398 25.8659 11.8335C24.9988 12.0231 24.2666 12.8814 24.2666 13.9999C24.2666 15.1184 24.9988 15.9767 25.8659 16.1663C26.2944 16.26 26.5999 16.6394 26.5999 17.0781V20.9999C26.5999 22.1597 25.6597 23.0999 24.4999 23.0999H3.4999C2.3401 23.0999 1.3999 22.1597 1.3999 20.9999V17.0781C1.3999 16.6394 1.70537 16.26 2.13391 16.1663C3.00102 15.9767 3.73324 15.1184 3.73324 13.9999C3.73324 12.8814 3.00102 12.0231 2.13391 11.8335C1.70537 11.7398 1.3999 11.3604 1.3999 10.9217V6.9999ZM3.4999 6.76657C3.37104 6.76657 3.26657 6.87104 3.26657 6.9999V10.2532C4.66493 10.8856 5.5999 12.3531 5.5999 13.9999C5.5999 15.6467 4.66493 17.1142 3.26657 17.7467V20.9999C3.26657 21.1288 3.37104 21.2332 3.4999 21.2332H24.4999C24.6288 21.2332 24.7332 21.1288 24.7332 20.9999V17.7467C23.3349 17.1142 22.3999 15.6467 22.3999 13.9999C22.3999 12.3531 23.3349 10.8856 24.7332 10.2532V6.9999C24.7332 6.87104 24.6288 6.76657 24.4999 6.76657H3.4999Z" fill="white"/>
<path d="M17.9181 9.85201C18.1125 10.0465 18.2217 10.3102 18.2217 10.5852C18.2217 10.8602 18.1125 11.1239 17.9181 11.3184L11.3184 17.9181C11.2227 18.0171 11.1083 18.0961 10.9818 18.1505C10.8552 18.2048 10.7192 18.2334 10.5815 18.2346C10.4438 18.2358 10.3072 18.2096 10.1798 18.1575C10.0523 18.1053 9.93653 18.0283 9.83916 17.9309C9.74179 17.8336 9.66479 17.7178 9.61264 17.5903C9.5605 17.4629 9.53426 17.3263 9.53546 17.1886C9.53665 17.0509 9.56526 16.9149 9.61961 16.7883C9.67396 16.6618 9.75297 16.5474 9.85201 16.4517L16.4517 9.85201C16.6462 9.6576 16.9099 9.54838 17.1849 9.54838C17.4599 9.54838 17.7236 9.6576 17.9181 9.85201ZM10.8891 12.4446C10.4765 12.4446 10.0808 12.2807 9.78911 11.989C9.49738 11.6973 9.3335 11.3016 9.3335 10.8891C9.3335 10.4765 9.49738 10.0808 9.78911 9.78911C10.0808 9.49739 10.4765 9.3335 10.8891 9.3335C11.3016 9.3335 11.6973 9.49739 11.989 9.78911C12.2807 10.0808 12.4446 10.4765 12.4446 10.8891C12.4446 11.3016 12.2807 11.6973 11.989 11.989C11.6973 12.2807 11.3016 12.4446 10.8891 12.4446ZM17.1113 18.6668C16.6987 18.6668 16.3031 18.5029 16.0113 18.2112C15.7196 17.9195 15.5557 17.5238 15.5557 17.1113C15.5557 16.6987 15.7196 16.3031 16.0113 16.0113C16.3031 15.7196 16.6987 15.5557 17.1113 15.5557C17.5238 15.5557 17.9195 15.7196 18.2112 16.0113C18.5029 16.3031 18.6668 16.6987 18.6668 17.1113C18.6668 17.5238 18.5029 17.9195 18.2112 18.2112C17.9195 18.5029 17.5238 18.6668 17.1113 18.6668Z" fill="#F8F6F0"/>
</svg>
