<svg width="63" height="59" viewBox="0 0 63 59" fill="none" xmlns="http://www.w3.org/2000/svg">
<g filter="url(#filter0_d_22970_18280)">
<path d="M23.6698 8.63491C24.0449 7.89687 24.947 7.6023 25.6854 7.97676L31.918 11.1375C32.3304 11.3467 32.8163 11.3539 33.2348 11.157L39.8771 8.033C40.6708 7.65967 41.6142 8.04415 41.9208 8.86597L44.1339 14.797C44.3147 15.2816 44.7325 15.6389 45.2393 15.7423L51.9139 17.1044C52.8386 17.2931 53.3614 18.2787 52.9989 19.1502L50.5185 25.1135C50.3118 25.6106 50.3873 26.1804 50.7164 26.6065L54.5473 31.5667C55.1081 32.2928 54.8914 33.3479 54.0897 33.7941L47.834 37.2765C47.4084 37.5134 47.1244 37.9422 47.0722 38.4264L46.3631 45.0049C46.2729 45.8418 45.5118 46.4407 44.6771 46.3315L37.4661 45.3878C37.0167 45.329 36.5647 45.4765 36.2366 45.7893L30.972 50.8066C30.3626 51.3873 29.3947 51.353 28.828 50.7306L24.3734 45.8381C24.0455 45.478 23.5632 45.2995 23.0798 45.3594L15.9745 46.2397C15.0639 46.3526 14.2663 45.6287 14.2906 44.7115L14.4561 38.4464C14.4703 37.9082 14.1951 37.4037 13.7348 37.1244L8.21317 33.7739C7.4063 33.2843 7.24668 32.1801 7.88186 31.482L12.4665 26.4435C12.8146 26.0609 12.941 25.5259 12.801 25.028L11.0876 18.9338C10.8502 18.0894 11.3848 17.2223 12.246 17.0553L19.4519 15.6575C19.9059 15.5695 20.2939 15.2769 20.5034 14.8646L23.6698 8.63491Z" fill="#0BFFFF"/>
<path d="M23.6698 8.63491C24.0449 7.89687 24.947 7.6023 25.6854 7.97676L31.918 11.1375C32.3304 11.3467 32.8163 11.3539 33.2348 11.157L39.8771 8.033C40.6708 7.65967 41.6142 8.04415 41.9208 8.86597L44.1339 14.797C44.3147 15.2816 44.7325 15.6389 45.2393 15.7423L51.9139 17.1044C52.8386 17.2931 53.3614 18.2787 52.9989 19.1502L50.5185 25.1135C50.3118 25.6106 50.3873 26.1804 50.7164 26.6065L54.5473 31.5667C55.1081 32.2928 54.8914 33.3479 54.0897 33.7941L47.834 37.2765C47.4084 37.5134 47.1244 37.9422 47.0722 38.4264L46.3631 45.0049C46.2729 45.8418 45.5118 46.4407 44.6771 46.3315L37.4661 45.3878C37.0167 45.329 36.5647 45.4765 36.2366 45.7893L30.972 50.8066C30.3626 51.3873 29.3947 51.353 28.828 50.7306L24.3734 45.8381C24.0455 45.478 23.5632 45.2995 23.0798 45.3594L15.9745 46.2397C15.0639 46.3526 14.2663 45.6287 14.2906 44.7115L14.4561 38.4464C14.4703 37.9082 14.1951 37.4037 13.7348 37.1244L8.21317 33.7739C7.4063 33.2843 7.24668 32.1801 7.88186 31.482L12.4665 26.4435C12.8146 26.0609 12.941 25.5259 12.801 25.028L11.0876 18.9338C10.8502 18.0894 11.3848 17.2223 12.246 17.0553L19.4519 15.6575C19.9059 15.5695 20.2939 15.2769 20.5034 14.8646L23.6698 8.63491Z" stroke="white" stroke-width="0.749999"/>
</g>
<g filter="url(#filter1_d_22970_18280)">
<path d="M20.0623 38.253L16.291 26.7031L21.2817 25.0735L21.8451 26.7989L19.4068 27.5951L20.3566 30.5039L22.4812 29.8102L23.0632 31.5926L20.9386 32.2863L22.6147 37.4196L20.0623 38.253Z" fill="white"/>
<path d="M26.245 36.2342L22.4737 24.6843L25.6534 23.6461C26.4329 23.3915 27.1358 23.2567 27.762 23.2416C28.3883 23.2264 28.9312 23.3911 29.3908 23.7354C29.8568 24.0671 30.2217 24.637 30.4855 25.445C30.6407 25.9203 30.7408 26.3558 30.7858 26.7514C30.8308 27.1469 30.7938 27.5167 30.6747 27.8606C30.5619 28.192 30.3449 28.5101 30.0237 28.8148L33.4316 33.8876L30.7936 34.7489L27.8345 29.9873L27.1073 30.2247L28.7974 35.4008L26.245 36.2342ZM26.6277 28.756L27.3406 28.5232C27.7019 28.4053 27.9621 28.2519 28.1214 28.0632C28.2776 27.8649 28.3549 27.6345 28.3533 27.372C28.3582 27.097 28.3047 26.7883 28.193 26.4461C28.0316 25.9518 27.8156 25.5963 27.5449 25.3796C27.2743 25.1629 26.8966 25.1337 26.4118 25.292L25.5848 25.562L26.6277 28.756Z" fill="white"/>
<path d="M34.7949 33.4424L31.0236 21.8926L36.2139 20.1978L36.7819 21.9374L34.144 22.7988L35.0798 25.6648L37.0903 25.0084L37.6677 26.7765L35.6571 27.433L36.7839 30.8837L39.4503 30.013L40.0137 31.7384L34.7949 33.4424Z" fill="white"/>
<path d="M41.1725 31.36L37.4012 19.8101L42.5915 18.1154L43.1595 19.855L40.5216 20.7163L41.4574 23.5824L43.4679 22.9259L44.0453 24.694L42.0347 25.3505L43.1615 28.8012L45.8279 27.9306L46.3913 29.6559L41.1725 31.36Z" fill="white"/>
</g>
<g filter="url(#filter2_d_22970_18280)">
<path fill-rule="evenodd" clip-rule="evenodd" d="M19.4234 39.5175L15.0312 26.0664L25.3443 22.6989C26.1895 22.423 26.9909 22.2634 27.7391 22.2454C28.5641 22.2254 29.3283 22.4451 29.9821 22.9315C30.1497 23.0519 30.3034 23.1887 30.4442 23.3397L29.7638 21.2559L43.2329 16.8578L44.4217 20.4987L41.7838 21.36L42.0989 22.3249L44.1094 21.6684L45.3075 25.3377L43.297 25.9942L43.8029 27.5437L46.4694 26.673L47.6536 30.2996L30.3596 35.9465L29.6601 34.821L30.0596 36.0445L25.606 37.4987L23.9299 32.3654L22.2008 32.93L23.877 38.0633L19.4234 39.5175ZM20.9398 32.2898L23.0644 31.5961L22.4824 29.8137L20.3578 30.5074L19.408 27.5985L21.8463 26.8024L21.2829 25.077L16.2923 26.7066L20.0636 38.2565L22.616 37.4231L20.9398 32.2898ZM20.669 28.2388L20.998 29.2464L22.7271 28.6818L22.3981 27.6742L20.669 28.2388ZM27.1085 30.2282L27.8357 29.9908L30.7949 34.7524L33.4328 33.8911L30.0249 28.8183C30.3462 28.5136 30.5632 28.1955 30.6759 27.8641C30.795 27.5202 30.8321 27.1504 30.7871 26.7548C30.7421 26.3593 30.642 25.9238 30.4868 25.4485C30.2229 24.6405 29.858 24.0706 29.392 23.7389C28.9324 23.3945 28.3895 23.2299 27.7633 23.2451C27.137 23.2602 26.4342 23.395 25.6547 23.6495L22.4749 24.6878L26.2462 36.2377L28.7986 35.4043L27.1085 30.2282ZM31.6217 28.1888C31.5372 28.4366 31.4192 28.6685 31.2746 28.8853L33.1821 31.7247L31.786 27.4488C31.7593 27.6999 31.7052 27.9471 31.6217 28.1888ZM39.3493 28.9979L38.8434 27.4484L36.9194 28.0767L37.4253 29.6262L39.3493 28.9979ZM36.7851 30.8872L35.6584 27.4365L37.6689 26.78L37.0916 25.0118L35.081 25.6683L34.1452 22.8023L36.7831 21.9409L36.2151 20.2013L31.0248 21.8961L34.7961 33.4459L40.0149 31.7418L39.4516 30.0165L36.7851 30.8872ZM35.4062 23.4425L35.7213 24.4073L37.6453 23.7791L37.3302 22.8142L35.4062 23.4425ZM43.1627 28.8047L42.036 25.354L44.0465 24.6975L43.4692 22.9294L41.4586 23.5859L40.5228 20.7198L43.1607 19.8585L42.5927 18.1188L37.4024 19.8136L41.1737 31.3635L46.3925 29.6594L45.8292 27.934L43.1627 28.8047ZM27.3545 27.3697L27.3547 27.3579C27.3571 27.2225 27.3309 27.0271 27.2436 26.76C27.1351 26.4277 27.0242 26.2672 26.9556 26.1956C26.9328 26.1967 26.8978 26.2005 26.8488 26.2113L27.2637 27.4819C27.2773 27.4749 27.2894 27.4681 27.3003 27.4617C27.3241 27.4477 27.3396 27.4366 27.3489 27.4293C27.3493 27.4283 27.3495 27.4276 27.3497 27.427C27.3506 27.4243 27.3548 27.4114 27.3546 27.3814L27.3545 27.3697ZM28.1226 28.0667C28.0002 28.2118 27.8181 28.336 27.5763 28.4392C27.5036 28.4703 27.4254 28.4995 27.3419 28.5267L26.6289 28.7595L25.586 25.5655L26.413 25.2954C26.4554 25.2816 26.4969 25.2692 26.5376 25.2583C26.963 25.1437 27.2992 25.1853 27.5462 25.383C27.8168 25.5997 28.0328 25.9553 28.1942 26.4496C28.306 26.7918 28.3594 27.1004 28.3546 27.3755C28.3561 27.638 28.2788 27.8684 28.1226 28.0667Z" fill="#00DADA"/>
</g>
<defs>
<filter id="filter0_d_22970_18280" x="4.11524" y="5.9375" width="54.1211" height="50.1602" filterUnits="userSpaceOnUse" color-interpolation-filters="sRGB">
<feFlood flood-opacity="0" result="BackgroundImageFix"/>
<feColorMatrix in="SourceAlpha" type="matrix" values="0 0 0 0 0 0 0 0 0 0 0 0 0 0 0 0 0 0 127 0" result="hardAlpha"/>
<feOffset dy="1.5"/>
<feGaussianBlur stdDeviation="1.5"/>
<feComposite in2="hardAlpha" operator="out"/>
<feColorMatrix type="matrix" values="0 0 0 0 0 0 0 0 0 0 0 0 0 0 0 0 0 0 0.25 0"/>
<feBlend mode="normal" in2="BackgroundImageFix" result="effect1_dropShadow_22970_18280"/>
<feBlend mode="normal" in="SourceGraphic" in2="effect1_dropShadow_22970_18280" result="shape"/>
</filter>
<filter id="filter1_d_22970_18280" x="16.291" y="18.1172" width="30.8496" height="20.1367" filterUnits="userSpaceOnUse" color-interpolation-filters="sRGB">
<feFlood flood-opacity="0" result="BackgroundImageFix"/>
<feColorMatrix in="SourceAlpha" type="matrix" values="0 0 0 0 0 0 0 0 0 0 0 0 0 0 0 0 0 0 127 0" result="hardAlpha"/>
<feOffset dx="0.749999"/>
<feComposite in2="hardAlpha" operator="out"/>
<feColorMatrix type="matrix" values="0 0 0 0 0 0 0 0 0 0 0 0 0 0 0 0 0 0 0.1 0"/>
<feBlend mode="normal" in2="BackgroundImageFix" result="effect1_dropShadow_22970_18280"/>
<feBlend mode="normal" in="SourceGraphic" in2="effect1_dropShadow_22970_18280" result="shape"/>
</filter>
<filter id="filter2_d_22970_18280" x="15.0312" y="16.8594" width="33.373" height="22.6562" filterUnits="userSpaceOnUse" color-interpolation-filters="sRGB">
<feFlood flood-opacity="0" result="BackgroundImageFix"/>
<feColorMatrix in="SourceAlpha" type="matrix" values="0 0 0 0 0 0 0 0 0 0 0 0 0 0 0 0 0 0 127 0" result="hardAlpha"/>
<feOffset dx="0.749999"/>
<feComposite in2="hardAlpha" operator="out"/>
<feColorMatrix type="matrix" values="0 0 0 0 0 0 0 0 0 0 0 0 0 0 0 0 0 0 0.1 0"/>
<feBlend mode="normal" in2="BackgroundImageFix" result="effect1_dropShadow_22970_18280"/>
<feBlend mode="normal" in="SourceGraphic" in2="effect1_dropShadow_22970_18280" result="shape"/>
</filter>
</defs>
</svg>
