<svg width="124" height="124" viewBox="0 0 124 124" fill="none" xmlns="http://www.w3.org/2000/svg">
<g opacity="0.8">
<path fill-rule="evenodd" clip-rule="evenodd" d="M14.0796 54.2033C16.6822 37.0684 28.3866 21.8172 45.9088 15.4397C63.4309 9.06212 82.2003 13.2218 95.2081 24.6749C96.1063 25.4657 97.4753 25.3787 98.2661 24.4806C99.0569 23.5825 98.9699 22.2134 98.0718 21.4226C83.9145 8.95736 63.4879 4.42994 44.4267 11.3677C25.3654 18.3054 12.628 34.9035 9.79537 53.5526C9.61568 54.7356 10.4291 55.8403 11.6121 56.02C12.7952 56.1997 13.8999 55.3864 14.0796 54.2033ZM29.9529 97.8149C29.0548 97.0241 27.6857 97.1111 26.8949 98.0092C26.1042 98.9073 26.1912 100.276 27.0893 101.067C41.2466 113.532 61.6731 118.06 80.7343 111.122C99.7956 104.184 112.533 87.5863 115.366 68.9372C115.545 67.7541 114.732 66.6494 113.549 66.4697C112.366 66.29 111.261 67.1034 111.081 68.2865C108.479 85.4214 96.7744 100.673 79.2523 107.05C61.7301 113.428 42.9607 109.268 29.9529 97.8149ZM40.194 46.064C43.275 41.5136 47.7647 37.8589 53.3265 35.8345C58.8883 33.8102 64.6768 33.724 69.9619 35.2293C71.1128 35.5571 72.3115 34.8899 72.6392 33.739C72.967 32.5882 72.2998 31.3895 71.1489 31.0617C65.0156 29.3148 58.2919 29.4158 51.8444 31.7625C45.3969 34.1092 40.1813 38.3538 36.6058 43.6344C35.9349 44.6252 36.1942 45.9724 37.1851 46.6433C38.1759 47.3142 39.523 47.0548 40.194 46.064ZM55.1908 87.2675C54.04 86.9398 52.8413 87.607 52.5135 88.7578C52.1858 89.9087 52.853 91.1074 54.0038 91.4351C60.1371 93.182 66.8608 93.081 73.3084 90.7343C79.7559 88.3876 84.9715 84.143 88.547 78.8624C89.2179 77.8716 88.9585 76.5245 87.9677 75.8536C86.9768 75.1827 85.6297 75.442 84.9588 76.4329C81.8778 80.9832 77.3881 84.638 71.8263 86.6623C66.2645 88.6866 60.4759 88.7728 55.1908 87.2675ZM47.6549 18.2755L50.0495 20.6033L53.3138 19.8982L51.8399 22.8949L53.5192 25.7815L50.2137 25.3059L47.9873 27.7949L47.4183 24.5043L44.363 23.156L47.3168 21.5979L47.6549 18.2755ZM77.6315 95.8337L75.2369 93.506L74.8988 96.8284L71.945 98.3865L75.0003 99.7347L75.5694 103.025L77.7958 100.536L81.1012 101.012L79.422 98.1254L80.8958 95.1287L77.6315 95.8337ZM63.7152 15.7471L65.4257 18.6153L68.7613 18.7791L66.562 21.2923L67.437 24.5151L64.3673 23.2002L61.5725 25.0282L61.8745 21.7024L59.2723 19.6093L62.5287 18.8688L63.7152 15.7471ZM62.125 98.213L60.4144 95.3448L59.2279 98.4664L55.9715 99.207L58.5737 101.3L58.2717 104.626L61.0665 102.798L64.1362 104.113L63.2613 100.89L65.4605 98.3768L62.125 98.213ZM32.7778 27.0066L35.6933 28.6353L38.6638 27.1094L38.0158 30.3854L40.385 32.739L37.0691 33.1351L35.5627 36.1156L34.1614 33.0843L30.8613 32.5728L33.3111 30.3033L32.7778 27.0066ZM89.3925 87.4829L86.4771 85.8543L87.0103 89.1509L84.5605 91.4204L87.8606 91.932L89.262 94.9633L90.7683 91.9828L94.0842 91.5867L91.7151 89.2331L92.3631 85.957L89.3925 87.4829Z" fill="#ABACB6"/>
<path fill-rule="evenodd" clip-rule="evenodd" d="M7.9991 60.1529C6.00835 60.8775 4.98192 63.0787 5.70649 65.0694L16.5538 94.8721C17.2784 96.8629 19.4796 97.8893 21.4703 97.1648L116.368 62.6246C118.359 61.9001 119.386 59.6989 118.661 57.7081L107.814 27.9054C107.089 25.9146 104.888 24.8882 102.897 25.6128L7.9991 60.1529ZM15.4943 65.3514L23.8406 88.1731L28.8839 86.3287L25.1744 76.1857L29.3725 74.6504L28.0845 71.1285L23.8864 72.6638L21.7844 66.9161L26.6023 65.1542L25.3555 61.745L15.4943 65.3514ZM38.351 82.2914C39.5526 82.4908 41.0268 82.2711 42.7736 81.6323C44.5205 80.9934 45.7792 80.2136 46.5499 79.2929C47.3137 78.3534 47.6936 77.2669 47.6896 76.0332C47.6975 74.7738 47.4095 73.3459 46.8256 71.7493L41.0657 55.9995L36.0505 57.8336L42.0887 74.3441C42.2605 74.8137 42.3946 75.297 42.4912 75.7941C42.6066 76.2843 42.5972 76.7243 42.4629 77.1141C42.3286 77.504 41.9891 77.7985 41.4444 77.9977C40.9185 78.19 40.4691 78.184 40.0962 77.9797C39.7421 77.7684 39.4416 77.4418 39.1948 76.9997C38.9479 76.5576 38.7386 76.1017 38.5669 75.6321L32.5287 59.1216L27.5417 60.9455L33.3017 76.6952C33.8856 78.2918 34.5774 79.5721 35.3771 80.536C36.17 81.4812 37.1613 82.0663 38.351 82.2914ZM44.2745 54.826L52.6208 77.6477L56.9316 76.0711L52.6039 64.2377L61.6086 74.3607L65.0178 73.1139L56.6715 50.2922L52.5016 51.8172L56.5202 62.8054L47.8246 53.5277L44.2745 54.826ZM60.0679 49.0501L68.4142 71.8717L74.2464 69.7388C76.2186 69.0175 77.6567 68.2041 78.5607 67.2985C79.4834 66.3861 79.9744 65.3121 80.0337 64.0766C80.0861 62.8223 79.7997 61.3405 79.1746 59.6312L76.1452 51.3478C75.5269 49.6573 74.8001 48.3686 73.9646 47.4816C73.1222 46.5758 72.0576 46.0813 70.7708 45.9983C69.4771 45.8964 67.8348 46.2096 65.8438 46.9377L60.0679 49.0501ZM72.9687 66.2451L72.1798 66.5336L66.3992 50.7275L67.1599 50.4493C67.9113 50.1745 68.4903 50.0692 68.8971 50.1334C69.3039 50.1976 69.6298 50.4191 69.8749 50.798C70.1387 51.17 70.3943 51.6941 70.6416 52.3703L74.2789 62.3161C74.5262 62.9923 74.6853 63.5729 74.7563 64.0581C74.846 64.5364 74.763 64.95 74.5074 65.2991C74.2517 65.6481 73.7388 65.9635 72.9687 66.2451ZM76.5766 43.0125L84.9229 65.8342L95.235 62.0629L93.9882 58.6538L88.7195 60.5806L86.2259 53.7623L90.1985 52.3094L88.9208 48.8157L84.9482 50.2686L82.877 44.6054L88.0894 42.6992L86.8323 39.2618L76.5766 43.0125ZM89.1783 38.4039L97.5246 61.2256L103.357 59.0926C105.329 58.3713 106.767 57.5579 107.671 56.6523C108.594 55.7399 109.085 54.6659 109.144 53.4304C109.196 52.1761 108.91 50.6943 108.285 48.985L105.256 40.7016C104.637 39.0111 103.91 37.7224 103.075 36.8354C102.233 35.9296 101.168 35.4352 99.8812 35.3521C98.5876 35.2502 96.9452 35.5634 94.9542 36.2915L89.1783 38.4039ZM102.079 55.5989L101.29 55.8874L95.5096 40.0813L96.2704 39.8031C97.0217 39.5283 97.6008 39.423 98.0075 39.4872C98.4143 39.5514 98.7403 39.7729 98.9853 40.1518C99.2491 40.5238 99.5047 41.0479 99.752 41.7241L103.389 51.6699C103.637 52.3461 103.796 52.9268 103.867 53.4119C103.956 53.8902 103.873 54.3038 103.618 54.6529C103.362 55.0019 102.849 55.3173 102.079 55.5989Z" fill="#ABACB6"/>
</g>
</svg>
