<svg width="17" height="17" viewBox="0 0 17 17" fill="none" xmlns="http://www.w3.org/2000/svg">
<path fill-rule="evenodd" clip-rule="evenodd" d="M17 8.69323C17 8.09051 16.9448 7.51096 16.8423 6.9546H8.67348V10.2426H13.3414C13.1403 11.3051 12.5292 12.2053 11.6106 12.808V14.9407H14.4138C16.0538 13.461 17 11.2819 17 8.69323Z" fill="#4285F4"/>
<path fill-rule="evenodd" clip-rule="evenodd" d="M8.6735 17C11.0153 17 12.9787 16.2389 14.4138 14.9407L11.6106 12.808C10.834 13.318 9.84047 13.6193 8.6735 13.6193C6.41444 13.6193 4.50233 12.1241 3.82028 10.115H0.922548V12.3173C2.34973 15.0952 5.28295 17 8.6735 17Z" fill="#34A853"/>
<path fill-rule="evenodd" clip-rule="evenodd" d="M3.82028 10.115C3.64681 9.60499 3.54825 9.06028 3.54825 8.50005C3.54825 7.93982 3.64681 7.39505 3.82028 6.88505V4.68277H0.922544C0.335112 5.83027 0 7.12846 0 8.50005C0 9.87164 0.335116 11.1698 0.922548 12.3173L3.82028 10.115Z" fill="#FBBC05"/>
<path fill-rule="evenodd" clip-rule="evenodd" d="M8.6735 3.38068C9.94692 3.38068 11.0902 3.80955 11.9891 4.65182L14.4768 2.21386C12.9748 0.842273 11.0114 0 8.6735 0C5.28295 0 2.34973 1.90482 0.922544 4.68277L3.82028 6.88505C4.50233 4.87595 6.41444 3.38068 8.6735 3.38068Z" fill="#EA4335"/>
</svg>
