<svg width="12" height="11" viewBox="0 0 12 11" fill="none" xmlns="http://www.w3.org/2000/svg">
<path fill-rule="evenodd" clip-rule="evenodd" d="M9.53066 1.23166C9.37232 1.23166 9.22057 1.23177 9.07361 1.23187C8.68476 1.23214 8.32946 1.23239 7.97435 1.23059C7.96518 1.23054 7.95599 1.2305 7.94679 1.23046C7.82961 1.22994 7.71051 1.22942 7.59787 1.20545C7.3771 1.15833 7.26014 0.992915 7.32294 0.806953C7.36694 0.675906 7.52378 0.506925 7.65278 0.487453C7.8873 0.452029 8.12873 0.457014 8.37005 0.461995C8.45692 0.463789 8.54378 0.465582 8.63029 0.465489C8.74543 0.4653 8.86059 0.465053 8.97575 0.464806C9.50345 0.463675 10.0313 0.462543 10.559 0.46691C10.9294 0.470099 11.0475 0.585573 11.0487 0.936953C11.0517 1.79061 11.0517 2.64427 11.0483 3.49792C11.0471 3.79405 10.8952 3.95948 10.6402 3.96018C10.3814 3.96124 10.2332 3.79972 10.2317 3.50181C10.2297 3.10377 10.2301 2.70575 10.2306 2.28566C10.2308 2.09974 10.231 1.9095 10.231 1.71302C10.1133 1.80977 9.9999 1.90271 9.88948 1.99317C9.65181 2.18789 9.42809 2.37116 9.20648 2.55642C8.12521 3.46068 7.04448 4.36562 5.9638 5.27052C5.49427 5.66369 5.02474 6.05685 4.55518 6.44994C4.30093 6.66284 4.03088 6.67735 3.86163 6.48856C3.70066 6.30896 3.7492 6.08049 3.99967 5.87116C4.94458 5.08108 5.88971 4.29132 6.83483 3.50158C7.58331 2.87615 8.33178 2.25073 9.0801 1.62517C9.16152 1.55652 9.24146 1.48603 9.33828 1.40066C9.3953 1.35038 9.45818 1.29494 9.53066 1.23166ZM1.28477 9.68644V1.73982L1.28479 1.73983H1.63953C1.92985 1.73983 2.22017 1.74008 2.5105 1.74033C3.45381 1.74114 4.39713 1.74195 5.34045 1.7342C5.49507 1.73306 5.68151 1.69431 5.79322 1.59952C5.87497 1.53032 5.90346 1.33059 5.87571 1.20759C5.8206 0.962347 5.60975 0.916468 5.38595 0.916839C4.43093 0.918093 3.47576 0.918008 2.52063 0.917924C2.04516 0.917882 1.5697 0.91784 1.09428 0.917963C0.562369 0.918333 0.45842 1.02402 0.45842 1.5649C0.458168 3.41301 0.458252 5.26127 0.458336 7.10948C0.458378 8.03356 0.45842 8.95763 0.45842 9.88166C0.45842 10.4477 0.549411 10.5414 1.10797 10.5414C4.0417 10.5418 6.97544 10.5418 9.90918 10.5414C9.92498 10.5414 9.9408 10.5415 9.95664 10.5416C10.0239 10.5421 10.0913 10.5425 10.1578 10.5346C10.3963 10.5057 10.5388 10.3706 10.5391 10.1213C10.5421 8.6562 10.5432 7.19078 10.5377 5.72573C10.5365 5.47746 10.3901 5.33868 10.1433 5.33153C9.8918 5.32402 9.76898 5.47861 9.72459 5.70994C9.71489 5.76026 9.71689 5.81305 9.71888 5.86576C9.7197 5.88749 9.72052 5.9092 9.72052 5.93073V9.68644H1.28477Z" fill="#F8F6F0"/>
</svg>
