<svg width="24" height="24" viewBox="0 0 24 24" fill="none" xmlns="http://www.w3.org/2000/svg">
<path fill-rule="evenodd" clip-rule="evenodd" d="M3.80005 1.50005C3.80005 1.11345 4.11345 0.800049 4.50005 0.800049H19.5C19.8866 0.800049 20.2 1.11345 20.2 1.50005C20.2 1.88665 19.8866 2.20005 19.5 2.20005H18.8106C18.9362 3.57478 18.7571 5.43513 17.885 7.29698C17.075 9.02621 15.6745 10.7399 13.4024 12.0579C15.3943 13.3852 16.7945 14.7597 17.6689 16.2752C18.6518 17.9791 18.9339 19.7977 18.7274 21.8H19.5C19.8866 21.8 20.2 22.1135 20.2 22.5C20.2 22.8866 19.8866 23.2001 19.5 23.2001H4.50005C4.11345 23.2001 3.80005 22.8866 3.80005 22.5C3.80005 22.1135 4.11345 21.8 4.50005 21.8H5.24775C4.85378 19.4067 5.54225 14.8779 10.5178 11.9843C9.55437 11.4009 8.80817 10.793 8.20309 10.1413C7.37299 9.24717 6.83659 8.30046 6.36624 7.29719C5.48779 5.42342 5.33288 3.52893 5.30575 2.20005H4.50005C4.11345 2.20005 3.80005 1.88665 3.80005 1.50005ZM6.70645 2.20005C6.73197 3.3457 6.85699 4.82415 7.45765 6.30005H16.7937C17.4244 4.75524 17.5207 3.25552 17.4037 2.20005H6.70645ZM16.068 7.70005H8.14649C8.45098 8.23126 8.79507 8.72125 9.22908 9.18872C9.87176 9.88095 10.7358 10.5495 12.0095 11.2184C13.9577 10.2474 15.2404 8.99428 16.068 7.70005ZM11.9611 12.7961C7.77882 14.8844 6.64547 18.1161 6.55823 20.3113C6.93555 19.9488 7.37402 19.5787 7.8622 19.2383C8.97649 18.4614 10.4069 17.8 12 17.8C13.5932 17.8 15.0236 18.4614 16.1379 19.2383C16.6014 19.5615 17.0202 19.9115 17.3843 20.2564C17.3368 19.0651 17.042 17.9902 16.4562 16.9749C15.639 15.5583 14.2193 14.1947 11.9611 12.7961ZM16.9369 21.8C16.5337 21.3532 15.9868 20.8397 15.3372 20.3868C14.3598 19.7053 13.2069 19.2001 12 19.2001C10.7932 19.2001 9.64027 19.7053 8.6629 20.3868C8.01325 20.8397 7.46641 21.3532 7.06323 21.8H16.9369Z" fill="white"/>
</svg>
