<svg width="14" height="15" viewBox="0 0 14 15" fill="none" xmlns="http://www.w3.org/2000/svg">
<g clip-path="url(#clip0_9615_45631)">
<path fill-rule="evenodd" clip-rule="evenodd" d="M2.2168 1.37501C2.2168 1.14949 2.39961 0.966675 2.62513 0.966675H11.3751C11.6006 0.966675 11.7835 1.14949 11.7835 1.37501C11.7835 1.60052 11.6006 1.78334 11.3751 1.78334H10.973C11.0462 2.58527 10.9418 3.67047 10.433 4.75655C9.96052 5.76527 9.14354 6.76491 7.81817 7.53378C8.98011 8.30803 9.7969 9.10979 10.3069 9.99387C10.8803 10.9878 11.0449 12.0486 10.9244 13.2167H11.3751C11.6006 13.2167 11.7835 13.3995 11.7835 13.625C11.7835 13.8505 11.6006 14.0333 11.3751 14.0333H2.62513C2.39961 14.0333 2.2168 13.8505 2.2168 13.625C2.2168 13.3995 2.39961 13.2167 2.62513 13.2167H3.06129C2.83148 11.8205 3.23308 9.17877 6.13549 7.49084C5.57348 7.15053 5.1382 6.7959 4.78524 6.41572C4.30101 5.89416 3.98811 5.34191 3.71374 4.75667C3.20131 3.66364 3.11095 2.55852 3.09513 1.78334H2.62513C2.39961 1.78334 2.2168 1.60052 2.2168 1.37501ZM3.9122 1.78334C3.92709 2.45164 4.00001 3.31407 4.3504 4.17501H9.79644C10.1643 3.27387 10.2205 2.39903 10.1523 1.78334H3.9122ZM9.3731 4.99167H4.75222C4.92984 5.30155 5.13056 5.58738 5.38373 5.86007C5.75863 6.26387 6.26266 6.65383 7.00563 7.04404C8.14209 6.47766 8.89031 5.74664 9.3731 4.99167ZM6.97742 7.96436C4.53775 9.18254 3.87662 11.0677 3.82573 12.3482C4.04584 12.1368 4.30162 11.9209 4.58639 11.7223C5.23639 11.2692 6.07082 10.8833 7.00013 10.8833C7.92944 10.8833 8.76387 11.2692 9.41387 11.7223C9.68427 11.9109 9.92852 12.115 10.1409 12.3162C10.1132 11.6213 9.94126 10.9943 9.59956 10.402C9.12283 9.57563 8.29467 8.78023 6.97742 7.96436ZM9.87994 13.2167C9.64475 12.956 9.32576 12.6565 8.9468 12.3923C8.37667 11.9948 7.70415 11.7 7.00013 11.7C6.29611 11.7 5.62359 11.9948 5.05346 12.3923C4.6745 12.6565 4.35551 12.956 4.12032 13.2167H9.87994Z" fill="#ABACB6"/>
</g>
<defs>
<clipPath id="clip0_9615_45631">
<rect width="14" height="14" fill="white" transform="translate(0 0.5)"/>
</clipPath>
</defs>
</svg>
