<svg width="85" height="84" viewBox="0 0 85 84" fill="none" xmlns="http://www.w3.org/2000/svg">
<path fill-rule="evenodd" clip-rule="evenodd" d="M21.3294 0C18.6892 0 16.5489 2.1403 16.5489 4.78049V12.2927C16.5489 13.047 17.1604 13.6585 17.9147 13.6585C18.6691 13.6585 19.2806 13.047 19.2806 12.2927V4.78049C19.2806 3.64898 20.1978 2.73171 21.3294 2.73171H28.54L29.4992 5.60929C30.1499 7.56136 31.9767 8.87805 34.0344 8.87805H48.2341C50.2918 8.87805 52.1186 7.56136 52.7693 5.60928L53.7284 2.73171H60.9391C62.0706 2.73171 62.9879 3.64898 62.9879 4.78049V33.122C62.9879 33.8763 63.5994 34.4878 64.3537 34.4878C65.1081 34.4878 65.7196 33.8763 65.7196 33.122V4.78049C65.7196 2.1403 63.5793 0 60.9391 0H21.3294ZM32.0907 4.74544L31.4195 2.73171H50.849L50.1777 4.74544C49.8989 5.58205 49.1159 6.14634 48.2341 6.14634H34.0344C33.1525 6.14634 32.3696 5.58205 32.0907 4.74544ZM19.2806 60.0976C19.2806 59.3432 18.6691 58.7317 17.9147 58.7317C17.1604 58.7317 16.5489 59.3432 16.5489 60.0976V78.5366C16.5489 81.9512 18.9391 84 21.6708 84H61.2806C64.3537 84 65.7196 82.2927 65.7196 80.5854V78.1951C65.7196 77.4408 65.1081 76.8293 64.3537 76.8293C63.5994 76.8293 62.9879 77.4408 62.9879 78.1951V79.2195C62.9879 80.351 62.0706 81.2683 60.9391 81.2683H21.3294C20.1978 81.2683 19.2806 80.351 19.2806 79.2195V60.0976ZM3.57326 36.1951C3.57326 26.7659 11.2172 19.122 20.6464 19.122C30.0757 19.122 37.7196 26.7659 37.7196 36.1951C37.7196 45.6244 30.0757 53.2683 20.6464 53.2683C11.2172 53.2683 3.57326 45.6244 3.57326 36.1951ZM20.6464 16.3902C9.7085 16.3902 0.841553 25.2572 0.841553 36.1951C0.841553 47.1331 9.7085 56 20.6464 56C31.5844 56 40.4513 47.1331 40.4513 36.1951C40.4513 25.2572 31.5844 16.3902 20.6464 16.3902ZM22.0123 28C22.0123 27.2457 21.4008 26.6341 20.6464 26.6341C19.8921 26.6341 19.2806 27.2457 19.2806 28V34.1838L17.8722 32.7273C17.3478 32.1851 16.4831 32.1706 15.9408 32.695C15.3986 33.2194 15.3841 34.084 15.9085 34.6263L19.6646 38.5105C19.9219 38.7766 20.2762 38.9268 20.6464 38.9268C21.0166 38.9268 21.3709 38.7766 21.6283 38.5105L25.3844 34.6263C25.9088 34.084 25.8943 33.2194 25.352 32.695C24.8098 32.1706 23.9451 32.1851 23.4207 32.7273L22.0123 34.1838V28ZM12.1098 37.561C12.1098 36.8066 11.4983 36.1951 10.744 36.1951C9.98965 36.1951 9.37814 36.8066 9.37814 37.561V43.0244V44.3902H10.744H30.5489H31.9147V43.0244V37.561C31.9147 36.8066 31.3032 36.1951 30.5489 36.1951C29.7945 36.1951 29.183 36.8066 29.183 37.561V41.6585H12.1098V37.561ZM25.2809 60.0216C25.8447 59.6583 26.3273 59.1796 26.6951 58.6189C27.8598 58.3055 28.9883 57.9038 30.073 57.4214C29.6793 59.4747 28.4497 61.2295 26.7603 62.3179C26.2338 62.6572 25.8431 62.9795 25.6058 63.2626C25.48 63.4127 25.4387 63.5004 25.4269 63.5336V70.3415H81.4269V63.5336C81.4151 63.5004 81.3739 63.4127 81.248 63.2626C81.0107 62.9795 80.62 62.6572 80.0935 62.3179C78.0255 60.9856 76.6464 58.6547 76.6464 56C76.6464 53.3453 78.0255 51.0144 80.0935 49.6821C80.62 49.3428 81.0107 49.0205 81.248 48.7374C81.3739 48.5873 81.4151 48.4996 81.4269 48.4664V40.9756H43.3733C43.5602 40.0828 43.6957 39.1712 43.7768 38.2439H81.4269C82.9356 38.2439 84.1586 39.4669 84.1586 40.9756V48.4878C84.1586 49.9965 82.8412 51.1613 81.573 51.9784C80.2525 52.8292 79.3781 54.3125 79.3781 56C79.3781 57.6875 80.2525 59.1708 81.573 60.0216C82.8412 60.8387 84.1586 62.0035 84.1586 63.5122V70.3415C84.1586 71.8501 82.9356 73.0732 81.4269 73.0732H25.4269C23.9182 73.0732 22.6952 71.8501 22.6952 70.3415V63.5122C22.6952 62.0035 24.0126 60.8387 25.2809 60.0216ZM81.4286 48.4614C81.4308 48.4544 81.431 48.4511 81.431 48.4511L81.4301 48.4542C81.4296 48.4559 81.4291 48.4583 81.4286 48.4614ZM81.431 63.5489C81.431 63.5489 81.4296 63.5454 81.4286 63.5386C81.4309 63.5456 81.431 63.5489 81.431 63.5489ZM25.4252 63.5386C25.4243 63.5416 25.4237 63.544 25.4233 63.5457C25.4229 63.5479 25.4228 63.5489 25.4228 63.5489L25.4237 63.5463C25.4239 63.5453 25.4242 63.544 25.4246 63.5425C25.4248 63.5414 25.425 63.54 25.4252 63.5386ZM39.0855 50.5366C39.0855 49.7822 39.697 49.1707 40.4513 49.1707H66.4025C67.1569 49.1707 67.7684 49.7822 67.7684 50.5366C67.7684 51.2909 67.1569 51.9024 66.4025 51.9024H40.4513C39.697 51.9024 39.0855 51.2909 39.0855 50.5366ZM39.0855 60.7805C39.0855 60.0261 39.697 59.4146 40.4513 59.4146H66.4025C67.1569 59.4146 67.7684 60.0261 67.7684 60.7805C67.7684 61.5348 67.1569 62.1463 66.4025 62.1463H40.4513C39.697 62.1463 39.0855 61.5348 39.0855 60.7805Z" fill="#717179"/>
</svg>
