<svg width="13" height="12" viewBox="0 0 13 12" fill="none" xmlns="http://www.w3.org/2000/svg">
<path fill-rule="evenodd" clip-rule="evenodd" d="M6.38911 0C8.42583 0 10.0448 1.7037 10.0448 3.72684C10.0448 5.74998 8.42583 7.34719 6.44133 7.40043C6.33688 7.45367 6.23244 7.45367 6.12799 7.45367C4.14349 7.45367 2.52456 9.10413 2.52456 11.1273C2.52456 11.4999 2.21122 11.8194 1.84565 11.8194C1.48009 11.8194 1.16675 11.4999 1.16675 11.1273C1.16675 9.10413 2.36789 7.34719 4.03905 6.54858C3.25569 5.85646 2.73346 4.84489 2.73346 3.72684C2.73346 1.65046 4.35239 0 6.38911 0ZM6.38911 1.33101C5.08352 1.33101 4.03905 2.39582 4.03905 3.72684C4.03905 4.89813 4.92685 5.85646 6.02354 6.06942H6.18021C6.20632 6.06942 6.24549 6.08273 6.28466 6.09604C6.32383 6.10935 6.36299 6.12266 6.38911 6.12266C7.6947 6.12266 8.73917 5.05785 8.73917 3.72684C8.73917 2.39582 7.6947 1.33101 6.38911 1.33101ZM11.6381 8.47141C11.8984 8.21106 11.8984 7.78895 11.6381 7.5286C11.3777 7.26825 10.9556 7.26825 10.6953 7.5286L8.14025 10.0836L6.94347 9.01738C6.66856 8.77246 6.24715 8.79677 6.00223 9.07168C5.7573 9.3466 5.78162 9.76801 6.05653 10.0129L7.7232 11.4978C7.98697 11.7328 8.38827 11.7212 8.63807 11.4714L11.6381 8.47141Z" fill="#27272A"/>
</svg>
