<svg width="9" height="11" viewBox="0 0 9 11" fill="none" xmlns="http://www.w3.org/2000/svg">
<path fill-rule="evenodd" clip-rule="evenodd" d="M1.0625 4.37266C1.0625 2.55984 2.60733 1.10016 4.5 1.10016C6.39267 1.10016 7.9375 2.55984 7.9375 4.37266C7.9375 5.27232 7.37846 6.55607 6.6189 7.63578C6.24344 8.1695 5.83235 8.63383 5.44154 8.96058C5.03531 9.30021 4.7098 9.44183 4.5 9.44183C4.2902 9.44183 3.96469 9.30021 3.55846 8.96058C3.16765 8.63383 2.75656 8.1695 2.3811 7.63578C1.62154 6.55607 1.0625 5.27232 1.0625 4.37266ZM4.5 0.458496C2.21601 0.458496 0.375 2.2164 0.375 4.37266C0.375 5.45755 1.01909 6.8688 1.8064 7.98796C2.20437 8.55367 2.65266 9.06473 3.09974 9.43852C3.53141 9.79943 4.0223 10.0835 4.5 10.0835C4.9777 10.0835 5.46859 9.79943 5.90026 9.43852C6.34734 9.06473 6.79563 8.55367 7.1936 7.98796C7.98091 6.8688 8.625 5.45755 8.625 4.37266C8.625 2.2164 6.78399 0.458496 4.5 0.458496ZM3.20588 4.52956C3.20588 3.81483 3.78528 3.23544 4.5 3.23544C5.21472 3.23544 5.79412 3.81483 5.79412 4.52956C5.79412 5.24428 5.21472 5.82367 4.5 5.82367C3.78528 5.82367 3.20588 5.24428 3.20588 4.52956ZM4.5 2.58838C3.42792 2.58838 2.55882 3.45747 2.55882 4.52956C2.55882 5.60164 3.42792 6.47073 4.5 6.47073C5.57208 6.47073 6.44118 5.60164 6.44118 4.52956C6.44118 3.45747 5.57208 2.58838 4.5 2.58838Z" fill="#FC0006"/>
</svg>
