<svg width="16" height="14" viewBox="0 0 16 14" fill="none" xmlns="http://www.w3.org/2000/svg">
<path d="M1.58942 13.25C1.16848 13.25 0.812175 13.1041 0.520508 12.8125C0.228841 12.5208 0.0830078 12.1645 0.0830078 11.7435V2.25642C0.0830078 1.83547 0.228841 1.47917 0.520508 1.1875C0.812175 0.895833 1.16848 0.75 1.58942 0.75H14.4099C14.8308 0.75 15.1871 0.895833 15.4788 1.1875C15.7705 1.47917 15.9163 1.83547 15.9163 2.25642V11.7435C15.9163 12.1645 15.7705 12.5208 15.4788 12.8125C15.1871 13.1041 14.8308 13.25 14.4099 13.25H1.58942ZM7.99965 7.46469L1.33299 3.20187V11.7435C1.33299 11.8183 1.35703 11.8798 1.40511 11.9279C1.4532 11.9759 1.51463 12 1.58942 12H14.4099C14.4847 12 14.5461 11.9759 14.5942 11.9279C14.6423 11.8798 14.6663 11.8183 14.6663 11.7435V3.20187L7.99965 7.46469ZM7.99965 6.16665L14.5381 1.99998H1.4612L7.99965 6.16665ZM1.33299 3.20187V1.99998V11.7435C1.33299 11.8183 1.35703 11.8798 1.40511 11.9279C1.4532 11.9759 1.51463 12 1.58942 12H1.33299V3.20187Z" fill="#ABACB6"/>
</svg>
