<svg width="16" height="16" viewBox="0 0 16 16" fill="none" xmlns="http://www.w3.org/2000/svg">
<path d="M7.7614 8.41965H4.89458C4.83346 8.42054 4.77313 8.43348 4.71702 8.45772C4.66092 8.48195 4.61014 8.51702 4.5676 8.5609C4.52506 8.60479 4.49159 8.65663 4.46911 8.71346C4.44663 8.7703 4.43558 8.83101 4.43659 8.89212C4.43536 9.01488 4.48276 9.13315 4.56842 9.2211C4.65408 9.30904 4.77106 9.35953 4.89381 9.36154H7.7614C7.88462 9.35993 8.00218 9.30954 8.08832 9.2214C8.17445 9.13327 8.22213 9.01458 8.22091 8.89136C8.22233 8.76792 8.17477 8.64896 8.08863 8.56054C8.0025 8.47212 7.88482 8.42146 7.7614 8.41965ZM10.4232 6.28592H4.89458C4.77169 6.28773 4.65452 6.33813 4.56869 6.4261C4.48286 6.51406 4.43536 6.63244 4.43659 6.75534C4.43496 6.87837 4.48217 6.99702 4.56788 7.0853C4.65358 7.17358 4.77079 7.22428 4.89381 7.22628H10.4247C10.5481 7.22468 10.6658 7.17418 10.7519 7.08588C10.8381 6.99758 10.8857 6.8787 10.8843 6.75534C10.8851 6.63197 10.8371 6.51329 10.7507 6.4252C10.6643 6.33711 10.5466 6.28676 10.4232 6.28516V6.28592Z" fill="white"/>
<path d="M14.1618 2.9268H13.0877V1.17495C13.0889 1.10903 13.0768 1.04353 13.0521 0.982178C13.0275 0.920827 12.9907 0.864831 12.9439 0.817388C12.897 0.769945 12.8411 0.731986 12.7793 0.705678C12.7175 0.67937 12.651 0.665229 12.5836 0.664062H2.95255C2.09428 0.664062 1.39766 1.34688 1.3435 2.20325C1.33677 2.23707 1.33342 2.27146 1.3335 2.30591V13.6889C1.3335 13.7247 1.33683 13.7606 1.3435 13.7932C1.39766 14.6495 2.09428 15.3307 2.95255 15.3307H14.1626C14.23 15.3296 14.2965 15.3154 14.3584 15.2891C14.4202 15.2628 14.4761 15.2248 14.5229 15.1774C14.5697 15.13 14.6065 15.074 14.6312 15.0126C14.6559 14.9513 14.668 14.8858 14.6667 14.8198V3.43688C14.669 3.30389 14.6171 3.17548 14.5226 3.07984C14.4281 2.9842 14.2986 2.92916 14.1626 2.9268H14.1618ZM2.95255 1.68747H12.0794V2.92599H2.95255C2.61591 2.92599 2.34259 2.64895 2.34259 2.30754C2.34083 2.22762 2.35522 2.14814 2.38495 2.07367C2.41468 1.9992 2.45916 1.93121 2.51583 1.87359C2.57251 1.81598 2.64026 1.76988 2.71521 1.73794C2.79015 1.706 2.87081 1.68885 2.95255 1.68747ZM2.95255 14.309C2.61591 14.309 2.34259 14.0311 2.34259 13.6889V3.82554C2.53092 3.90377 2.73757 3.94777 2.95422 3.94777H13.6568V14.309H2.95255Z" fill="white"/>
</svg>
