<svg width="16" height="16" viewBox="0 0 16 16" fill="none" xmlns="http://www.w3.org/2000/svg">
<g clip-path="url(#clip0_7606_46927)">
<path d="M10.5383 0.664063C10.9762 0.664046 11.397 0.833735 11.7123 1.13748C12.0277 1.44122 12.2131 1.85537 12.2295 2.29291L12.2306 2.35637V6.30509C12.2313 6.45147 12.175 6.59237 12.0737 6.69803C11.9724 6.80369 11.834 6.86583 11.6877 6.87132C11.5414 6.87681 11.3987 6.82523 11.2898 6.72746C11.1808 6.6297 11.1141 6.49341 11.1038 6.3474L11.1024 6.30509V2.35637C11.1024 2.21405 11.0487 2.07698 10.9519 1.97263C10.8552 1.86827 10.7225 1.80435 10.5806 1.79368L10.5383 1.79227H2.35881C2.2165 1.79222 2.07942 1.84597 1.97507 1.94274C1.87071 2.03951 1.80679 2.17215 1.79612 2.31406L1.79471 2.35637V13.6384C1.79466 13.7807 1.84841 13.9178 1.94518 14.0222C2.04195 14.1265 2.17459 14.1904 2.3165 14.2011L2.35881 14.2025H6.30753C6.45391 14.2019 6.59481 14.2581 6.70047 14.3595C6.80613 14.4608 6.86827 14.5992 6.87376 14.7455C6.87925 14.8917 6.82767 15.0344 6.7299 15.1434C6.63214 15.2523 6.49585 15.319 6.34984 15.3293L6.30753 15.3307H2.35881C1.92096 15.3307 1.50015 15.1611 1.18478 14.8573C0.869417 14.5536 0.684051 14.1394 0.667632 13.7019L0.666504 13.6384V2.35637C0.666488 1.91852 0.836176 1.4977 1.13992 1.18234C1.44366 0.866975 1.85781 0.68161 2.29535 0.665191L2.35881 0.664063H10.5383ZM11.6665 7.9974C12.1784 7.99739 12.6703 8.19621 13.0385 8.55193C13.4066 8.90765 13.6222 9.39245 13.6397 9.90406L13.6409 9.97176V10.2538C14.0787 10.2538 14.4995 10.4235 14.8149 10.7272C15.1303 11.031 15.3156 11.4451 15.332 11.8827L15.3332 11.9461V13.6384C15.3332 14.0763 15.1635 14.4971 14.8598 14.8125C14.556 15.1278 14.1419 15.3132 13.7043 15.3296L13.6409 15.3307H9.69215C9.25429 15.3307 8.83348 15.1611 8.51811 14.8573C8.20275 14.5536 8.01739 14.1394 8.00097 13.7019L7.99984 13.6384V11.9461C7.99982 11.5083 8.16951 11.0874 8.47325 10.7721C8.77699 10.4567 9.19114 10.2714 9.62868 10.2549L9.69215 10.2538V9.97176C9.69215 9.44812 9.90016 8.94594 10.2704 8.57567C10.6407 8.20541 11.1429 7.9974 11.6665 7.9974ZM13.6409 11.382H9.69215C9.54983 11.382 9.41276 11.4357 9.3084 11.5325C9.20405 11.6293 9.14013 11.7619 9.12945 11.9038L9.12804 11.9461V13.6384C9.128 13.7807 9.18175 13.9178 9.27852 14.0222C9.37529 14.1265 9.50792 14.1904 9.64984 14.2011L9.69215 14.2025H13.6409C13.7832 14.2026 13.9203 14.1488 14.0246 14.0521C14.129 13.9553 14.1929 13.8226 14.2036 13.6807L14.205 13.6384V11.9461C14.205 11.7965 14.1455 11.653 14.0397 11.5472C13.934 11.4414 13.7905 11.382 13.6409 11.382ZM11.6665 9.1256C11.4507 9.12559 11.243 9.20805 11.086 9.35612C10.9289 9.50418 10.8344 9.70666 10.8218 9.92211L10.8204 9.97176H12.5127C12.5127 9.76441 12.4366 9.56427 12.2988 9.40933C12.161 9.25439 11.9711 9.15543 11.7652 9.13124L11.7161 9.12701L11.6665 9.1256ZM5.74343 8.5615C5.88981 8.56084 6.03071 8.61712 6.13637 8.71843C6.24203 8.81974 6.30416 8.95815 6.30966 9.10443C6.31515 9.25071 6.26356 9.39339 6.1658 9.50234C6.06804 9.61129 5.93175 9.67797 5.78573 9.68829L5.74343 9.6897H3.48702C3.34064 9.69036 3.19973 9.63409 3.09408 9.53278C2.98842 9.43147 2.92628 9.29305 2.92079 9.14677C2.91529 9.00049 2.96688 8.85781 3.06464 8.74886C3.16241 8.63991 3.29869 8.57323 3.44471 8.56291L3.48702 8.5615H5.74343ZM5.74343 6.30509C5.88981 6.30443 6.03071 6.36071 6.13637 6.46202C6.24203 6.56333 6.30416 6.70174 6.30966 6.84802C6.31515 6.9943 6.26356 7.13698 6.1658 7.24593C6.06804 7.35488 5.93175 7.42156 5.78573 7.43188L5.74343 7.43329H3.48702C3.34064 7.43395 3.19973 7.37768 3.09408 7.27637C2.98842 7.17506 2.92628 7.03664 2.92079 6.89036C2.91529 6.74408 2.96688 6.6014 3.06464 6.49245C3.16241 6.3835 3.29869 6.31682 3.44471 6.3065L3.48702 6.30509H5.74343ZM8.84599 4.04868C8.99237 4.04802 9.13327 4.10429 9.23893 4.20561C9.34459 4.30692 9.40673 4.44533 9.41222 4.59161C9.41771 4.73789 9.36613 4.88057 9.26837 4.98952C9.1706 5.09847 9.03432 5.16515 8.8883 5.17547L8.84599 5.17688H3.48702C3.34064 5.17754 3.19973 5.12127 3.09408 5.01996C2.98842 4.91864 2.92628 4.78023 2.92079 4.63395C2.91529 4.48767 2.96688 4.34499 3.06464 4.23604C3.16241 4.12709 3.29869 4.06041 3.44471 4.05009L3.48702 4.04868H8.84599Z" fill="white"/>
</g>
<defs>
<clipPath id="clip0_7606_46927">
<rect width="16" height="16" fill="white"/>
</clipPath>
</defs>
</svg>
