<svg width="16" height="16" viewBox="0 0 16 16" fill="none" xmlns="http://www.w3.org/2000/svg">
<path fill-rule="evenodd" clip-rule="evenodd" d="M6.95581 4.84038C7.09837 4.41636 7.66039 4.3305 7.92306 4.69262L8.83873 5.95501L10.3982 5.9709C10.8455 5.97545 11.1008 6.48343 10.8376 6.84514L9.91994 8.1061L10.3867 9.59412C10.5206 10.021 10.1164 10.4208 9.69106 10.2822L8.20825 9.79912L6.9373 10.7029C6.57273 10.9621 6.06758 10.7012 6.06793 10.2539L6.06915 8.69437L4.81688 7.7649C4.45767 7.49828 4.54968 6.93724 4.97524 6.79934L6.45881 6.31858L6.95581 4.84038ZM7.5783 5.67552L7.22127 6.7374C7.1657 6.90267 7.03511 7.03184 6.86924 7.08559L5.80351 7.43095L6.70309 8.09864C6.8431 8.20256 6.92559 8.36668 6.92545 8.54104L6.92458 9.66134L7.83758 9.01211C7.97968 8.91107 8.16125 8.88333 8.32704 8.93734L9.39223 9.28436L9.05692 8.21543C9.00473 8.04906 9.03446 7.8678 9.13705 7.72682L9.79626 6.82099L8.67602 6.80958C8.50166 6.8078 8.33846 6.72352 8.23609 6.58237L7.5783 5.67552Z" fill="white"/>
<path fill-rule="evenodd" clip-rule="evenodd" d="M1.18614 3.99323C0.530998 4.09332 0.0724997 4.64967 0.162054 5.23589L0.464876 7.21814C0.498747 7.43986 0.700601 7.6053 0.949905 7.61567C1.45435 7.63665 1.93424 8.0073 2.0206 8.57265C2.10697 9.13799 1.75963 9.63502 1.28446 9.80565C1.04962 9.88999 0.906371 10.1081 0.940242 10.3299L1.24306 12.3121C1.33262 12.8983 1.93631 13.2924 2.59145 13.1923L14.4538 11.3802C15.109 11.2801 15.5675 10.7237 15.4779 10.1375L15.1751 8.15525C15.1412 7.93353 14.9394 7.7681 14.6901 7.75773C14.1856 7.73674 13.7057 7.36609 13.6194 6.80075C13.533 6.2354 13.8803 5.73838 14.3555 5.56774C14.5903 5.48341 14.7336 5.26525 14.6997 5.04353L14.3969 3.06128C14.3074 2.47506 13.7037 2.08098 13.0485 2.18106L1.18614 3.99323ZM1.08468 5.09494L1.33411 6.72766C2.11505 6.89715 2.80432 7.5224 2.94323 8.4317C3.08214 9.34101 2.61099 10.1435 1.91627 10.5385L2.16569 12.1712C2.1662 12.1746 2.16973 12.1983 2.21535 12.228C2.26356 12.2595 2.34577 12.2857 2.45051 12.2697L14.3129 10.4575C14.4176 10.4415 14.4883 10.392 14.5249 10.3476C14.5595 10.3055 14.5558 10.282 14.5553 10.2786L14.3059 8.64574C13.5249 8.47624 12.8357 7.851 12.6967 6.94169C12.5578 6.03239 13.029 5.22987 13.7237 4.83494L13.4743 3.20222C13.4738 3.19879 13.4702 3.17514 13.4246 3.14535C13.3764 3.11389 13.2942 3.08769 13.1895 3.10369L1.32709 4.91586C1.22235 4.93186 1.15171 4.98142 1.1151 5.02584C1.08045 5.06788 1.08415 5.09152 1.08468 5.09494Z" fill="white"/>
<path d="M14.7952 12.0658C14.8317 11.8107 14.6544 11.5743 14.3992 11.5379C14.1441 11.5014 13.9077 11.6787 13.8713 11.9339L13.7124 13.0457C13.6484 13.4938 13.2504 13.8172 12.7987 13.788L3.69661 13.2008C3.43941 13.1842 3.21746 13.3793 3.20087 13.6365C3.18428 13.8937 3.37932 14.1156 3.63652 14.1322L12.7386 14.7194C13.6767 14.78 14.5034 14.1084 14.6364 13.1777L14.7952 12.0658Z" fill="white"/>
</svg>
