<svg width="16" height="16" viewBox="0 0 16 16" fill="none" xmlns="http://www.w3.org/2000/svg">
<g clip-path="url(#clip0_7606_46912)">
<path fill-rule="evenodd" clip-rule="evenodd" d="M7.62587 0.821485C7.83254 0.614843 8.16762 0.614843 8.37429 0.821485L13.6661 6.11262C13.6663 6.11279 13.6665 6.11296 13.6666 6.11313L15.1784 7.6247C15.3851 7.83134 15.3851 8.16638 15.1784 8.37302C14.9717 8.57966 14.6367 8.57966 14.43 8.37302L13.8214 7.76449V14.2729C13.8214 14.2884 13.8207 14.3039 13.8194 14.3193C13.7936 14.6117 13.6532 14.8821 13.4288 15.0714C13.2107 15.2553 12.9306 15.3481 12.6465 15.3312H9.73891C9.44664 15.3312 9.2097 15.0943 9.2097 14.8021V10.1154H6.79046V14.8021C6.79046 15.0943 6.55352 15.3312 6.26125 15.3312H3.35367C3.06957 15.3481 2.78944 15.2553 2.5714 15.0714C2.34694 14.8821 2.20652 14.6117 2.18081 14.3193C2.17945 14.3039 2.17878 14.2884 2.17878 14.2729V7.76449L1.57017 8.37302C1.3635 8.57966 1.02842 8.57966 0.82175 8.37302C0.615081 8.16638 0.615081 7.83134 0.82175 7.6247L7.62587 0.821485ZM3.23719 6.70621V14.2372C3.24013 14.247 3.24585 14.2558 3.25376 14.2624C3.26445 14.2714 3.27827 14.2759 3.29221 14.2747C3.3066 14.2735 3.32104 14.2729 3.33548 14.2729H5.73204V9.58628C5.73204 9.29404 5.96898 9.05714 6.26125 9.05714H9.73891C10.0312 9.05714 10.2681 9.29404 10.2681 9.58628V14.2729H12.6647C12.6791 14.2729 12.6936 14.2735 12.708 14.2747C12.7219 14.2759 12.7357 14.2714 12.7464 14.2624C12.7543 14.2558 12.76 14.247 12.763 14.2372V6.70621L8.00008 1.94396L3.23719 6.70621Z" fill="white"/>
</g>
<defs>
<clipPath id="clip0_7606_46912">
<rect width="16" height="16" fill="white"/>
</clipPath>
</defs>
</svg>
