<svg width="16" height="16" viewBox="0 0 16 16" fill="none" xmlns="http://www.w3.org/2000/svg">
<path d="M10 8.66686C10.3682 8.66686 10.6667 8.36838 10.6667 8.00019C10.6667 7.632 10.3682 7.33353 10 7.33353C9.63184 7.33353 9.33337 7.632 9.33337 8.00019C9.33337 8.36838 9.63184 8.66686 10 8.66686Z" fill="white"/>
<path fill-rule="evenodd" clip-rule="evenodd" d="M0.866699 3.33353C0.866699 2.70761 1.37411 2.2002 2.00003 2.2002H14C14.626 2.2002 15.1334 2.70761 15.1334 3.33353V12.6669C15.1334 13.2928 14.626 13.8002 14 13.8002H2.00003C1.37411 13.8002 0.866699 13.2928 0.866699 12.6669V3.33353ZM2.00003 3.13353C1.88958 3.13353 1.80003 3.22307 1.80003 3.33353V12.6669C1.80003 12.7773 1.88958 12.8669 2.00003 12.8669H14C14.1105 12.8669 14.2 12.7773 14.2 12.6669V10.4669H10C8.63773 10.4669 7.53337 9.3625 7.53337 8.0002C7.53337 6.63789 8.63773 5.53353 10 5.53353H14.2V3.33353C14.2 3.22307 14.1105 3.13353 14 3.13353H2.00003ZM10 6.46686H14.2V9.53353H10C9.1532 9.53353 8.4667 8.84703 8.4667 8.0002C8.4667 7.15336 9.1532 6.46686 10 6.46686Z" fill="white"/>
</svg>
