<svg width="20" height="20" viewBox="0 0 20 20" fill="none" xmlns="http://www.w3.org/2000/svg">
<mask id="mask0_27040_11456" style="mask-type:alpha" maskUnits="userSpaceOnUse" x="0" y="0" width="20" height="20">
<rect width="20" height="20" fill="#D9D9D9"/>
</mask>
<g mask="url(#mask0_27040_11456)">
<path d="M12.8383 9.00642C13.1415 9.00642 13.3987 8.90028 13.6097 8.68802C13.8207 8.47577 13.9262 8.21803 13.9262 7.91479C13.9262 7.61157 13.82 7.35446 13.6078 7.14346C13.3955 6.93246 13.1378 6.82696 12.8345 6.82696C12.5313 6.82696 12.2742 6.93309 12.0632 7.14535C11.8522 7.3576 11.7467 7.61535 11.7467 7.91858C11.7467 8.22181 11.8528 8.47892 12.0651 8.68992C12.2774 8.90092 12.5351 9.00642 12.8383 9.00642ZM7.16525 9.00642C7.46847 9.00642 7.72559 8.90028 7.93659 8.68802C8.1476 8.47577 8.25311 8.21803 8.25311 7.91479C8.25311 7.61157 8.14697 7.35446 7.93471 7.14346C7.72245 6.93246 7.4647 6.82696 7.16148 6.82696C6.85826 6.82696 6.60114 6.93309 6.39013 7.14535C6.17913 7.3576 6.07363 7.61535 6.07363 7.91858C6.07363 8.22181 6.17976 8.47892 6.39202 8.68992C6.60429 8.90092 6.86203 9.00642 7.16525 9.00642ZM9.9999 14.3269C10.8696 14.3269 11.6644 14.0836 12.3845 13.597C13.1046 13.1103 13.6356 12.4669 13.9774 11.6667H6.02236C6.36423 12.4669 6.89521 13.1103 7.61529 13.597C8.33538 14.0836 9.13024 14.3269 9.9999 14.3269ZM10.0013 17.9167C8.90635 17.9167 7.87715 17.7089 6.91371 17.2933C5.95025 16.8778 5.11218 16.3138 4.3995 15.6015C3.68681 14.8891 3.12259 14.0514 2.70686 13.0884C2.29112 12.1253 2.08325 11.0964 2.08325 10.0014C2.08325 8.90647 2.29103 7.87728 2.70659 6.91383C3.12214 5.95037 3.6861 5.11231 4.39846 4.39963C5.11084 3.68693 5.94854 3.12272 6.91156 2.70698C7.87458 2.29124 8.90356 2.08337 9.9985 2.08337C11.0934 2.08337 12.1226 2.29115 13.0861 2.70671C14.0495 3.12226 14.8876 3.68622 15.6003 4.39858C16.313 5.11096 16.8772 5.94866 17.2929 6.91169C17.7087 7.8747 17.9165 8.90368 17.9165 9.99863C17.9165 11.0936 17.7088 12.1228 17.2932 13.0862C16.8777 14.0497 16.3137 14.8877 15.6013 15.6004C14.889 16.3131 14.0513 16.8773 13.0882 17.2931C12.1252 17.7088 11.0962 17.9167 10.0013 17.9167ZM9.9999 16.6667C11.861 16.6667 13.4374 16.0209 14.7291 14.7292C16.0207 13.4375 16.6666 11.8611 16.6666 10C16.6666 8.13891 16.0207 6.56252 14.7291 5.27085C13.4374 3.97919 11.861 3.33335 9.9999 3.33335C8.13879 3.33335 6.5624 3.97919 5.27073 5.27085C3.97906 6.56252 3.33323 8.13891 3.33323 10C3.33323 11.8611 3.97906 13.4375 5.27073 14.7292C6.5624 16.0209 8.13879 16.6667 9.9999 16.6667Z" fill="#ABACB6"/>
</g>
</svg>
