<svg width="24" height="24" viewBox="0 0 24 24" fill="none" xmlns="http://www.w3.org/2000/svg">
<mask id="mask0_21678_35856" style="mask-type:alpha" maskUnits="userSpaceOnUse" x="0" y="0" width="24" height="24">
<rect width="24" height="24" fill="#D9D9D9"/>
</mask>
<g mask="url(#mask0_21678_35856)">
<path d="M12 22C11.45 22 10.9792 21.798 10.5875 21.3939C10.1958 20.9898 10 20.504 10 19.9366C10 19.3691 10.1958 18.8833 10.5875 18.4792C10.9792 18.0751 11.45 17.8731 12 17.8731C12.55 17.8731 13.0208 18.0751 13.4125 18.4792C13.8042 18.8833 14 19.3691 14 19.9366C14 20.504 13.8042 20.9898 13.4125 21.3939C13.0208 21.798 12.55 22 12 22ZM12 14.0635C11.45 14.0635 10.9792 13.8614 10.5875 13.4573C10.1958 13.0532 10 12.5674 10 12C10 11.4326 10.1958 10.9468 10.5875 10.5427C10.9792 10.1386 11.45 9.93653 12 9.93653C12.55 9.93653 13.0208 10.1386 13.4125 10.5427C13.8042 10.9468 14 11.4326 14 12C14 12.5674 13.8042 13.0532 13.4125 13.4573C13.0208 13.8614 12.55 14.0635 12 14.0635ZM12 6.12691C11.45 6.12691 10.9792 5.92486 10.5875 5.52076C10.1958 5.11668 10 4.63091 10 4.06344C10 3.496 10.1958 3.01023 10.5875 2.60612C10.9792 2.20204 11.45 2 12 2C12.55 2 13.0208 2.20204 13.4125 2.60612C13.8042 3.01023 14 3.496 14 4.06344C14 4.63091 13.8042 5.11668 13.4125 5.52076C13.0208 5.92486 12.55 6.12691 12 6.12691Z" fill="#F8F6F0"/>
</g>
</svg>
