<svg width="130" height="120" viewBox="0 0 130 120" fill="none" xmlns="http://www.w3.org/2000/svg">
<path fill-rule="evenodd" clip-rule="evenodd" d="M89.4239 0.892334H42.4539C38.0069 0.892334 34.4019 4.49733 34.4019 8.94432V72.329L39.7699 73.7692V8.94432C39.7699 7.46199 40.9716 6.26033 42.4539 6.26033H89.4239C90.9062 6.26033 92.1079 7.46199 92.1079 8.94432V73.5202L65.2701 79.6034L11.3618 67.3842C10.4921 67.1871 9.59696 67.5895 9.16721 68.3709L1.19581 82.8643C0.892371 83.416 0.866462 84.0784 1.12587 84.6522C1.38528 85.2259 1.89973 85.644 2.51438 85.7806L13.9924 88.3312V104.844C13.9924 105.751 14.6033 106.545 15.4806 106.777L64.7583 119.821C65.0989 119.911 65.4523 119.909 65.7842 119.821L115.06 106.777C115.937 106.545 116.548 105.751 116.548 104.844V88.3312L128.026 85.7806C128.64 85.644 129.155 85.2259 129.414 84.6522C129.674 84.0784 129.648 83.416 129.344 82.8643L121.373 68.3709C120.943 67.5895 120.048 67.1871 119.178 67.3842L117.989 67.6539L127.709 21.6081C128.336 18.6386 126.379 15.7404 123.39 15.2129L103.309 11.6692C101.849 11.4116 100.457 12.3862 100.199 13.8459C99.9417 15.3057 100.916 16.6979 102.376 16.9555L122.457 20.4993L112.227 68.96L97.4759 72.3035V8.94432C97.4759 4.49733 93.8709 0.892334 89.4239 0.892334ZM9.4182 20.4993L19.517 68.3355L13.7013 66.7752L4.16597 21.6081C3.53909 18.6386 5.49661 15.7404 8.48533 15.2129L28.5664 11.6692C30.0262 11.4116 31.4184 12.3862 31.676 13.8459C31.9336 15.3057 30.9591 16.6979 29.4993 16.9555L9.4182 20.4993ZM77.346 12.9705H54.532C50.085 12.9705 46.48 16.5755 46.48 21.0224V43.8364C46.48 48.2834 50.085 51.8884 54.532 51.8884H77.346C81.793 51.8884 85.398 48.2834 85.398 43.8364V21.0224C85.398 16.5755 81.793 12.9705 77.346 12.9705ZM51.848 21.0224C51.848 19.5401 53.0497 18.3385 54.532 18.3385H77.346C78.8283 18.3385 80.03 19.5401 80.03 21.0224V43.8364C80.03 45.3188 78.8283 46.5204 77.346 46.5204H54.532C53.0497 46.5204 51.848 45.3187 51.848 43.8364V21.0224ZM46.48 59.9403C46.48 58.458 47.6817 57.2563 49.164 57.2563H82.714C84.1963 57.2563 85.398 58.458 85.398 59.9403C85.398 61.4227 84.1963 62.6243 82.714 62.6243H49.164C47.6817 62.6243 46.48 61.4227 46.48 59.9403ZM49.164 66.6501C47.6817 66.6501 46.48 67.8518 46.48 69.3341C46.48 70.8165 47.6817 72.0181 49.164 72.0181H67.952C69.4344 72.0181 70.636 70.8165 70.636 69.3341C70.636 67.8518 69.4344 66.6501 67.952 66.6501H49.164ZM112.548 103.304L67.2701 115.289V86.6846L76.1355 96.0715C76.6159 96.5802 77.3272 96.8008 78.0112 96.6533L112.548 89.2042V103.304ZM17.9923 89.2042V103.304L63.2701 115.289V86.6846L54.4047 96.0715C53.9243 96.5802 53.2129 96.8008 52.529 96.6533L17.9923 89.2042ZM61.4089 82.8297L52.2705 92.5056L16.4262 84.7745L16.414 84.7718L5.9863 82.4545L11.9463 71.6182L61.4089 82.8297ZM114.126 84.7718L124.554 82.4545L118.594 71.6182L69.1313 82.8297L78.2696 92.5056L114.114 84.7745L114.126 84.7718Z" fill="#FC0006"/>
</svg>
