<svg width="131" height="130" viewBox="0 0 131 130" fill="none" xmlns="http://www.w3.org/2000/svg">
<path fill-rule="evenodd" clip-rule="evenodd" d="M26.5 11C26.5 7.13401 29.634 4 33.5 4H91.5C95.366 4 98.5 7.13401 98.5 11V27.5C98.5 28.6046 97.6046 29.5 96.5 29.5C95.3954 29.5 94.5 28.6046 94.5 27.5V11C94.5 9.34315 93.1569 8 91.5 8H80.9415L79.537 12.2136C78.5842 15.072 75.9092 17 72.8962 17H52.1038C49.0908 17 46.4158 15.072 45.463 12.2136L44.0585 8H33.5C31.8431 8 30.5 9.34315 30.5 11V20C30.5 21.1046 29.6046 22 28.5 22C27.3954 22 26.5 21.1046 26.5 20V11ZM48.2749 8L49.2577 10.9487C49.6661 12.1737 50.8125 13 52.1038 13H72.8962C74.1875 13 75.3339 12.1737 75.7422 10.9487L76.7251 8H48.2749ZM28.5 90C29.6046 90 30.5 90.8954 30.5 92V120C30.5 121.657 31.8431 123 33.5 123H91.5C93.1569 123 94.5 121.657 94.5 120V118.5C94.5 117.395 95.3954 116.5 96.5 116.5C97.6046 116.5 98.5 117.395 98.5 118.5V122C98.5 124.5 96.5 127 92 127H34C30 127 26.5 124 26.5 119V92C26.5 90.8954 27.3954 90 28.5 90ZM30.5 31C16.6929 31 5.5 42.1929 5.5 56C5.5 69.8071 16.6929 81 30.5 81C44.3071 81 55.5 69.8071 55.5 56C55.5 42.1929 44.3071 31 30.5 31ZM1.5 56C1.5 39.9837 14.4837 27 30.5 27C46.5163 27 59.5 39.9837 59.5 56C59.5 72.0163 46.5163 85 30.5 85C14.4837 85 1.5 72.0163 1.5 56ZM30.5 40C31.6046 40 32.5 40.8954 32.5 42V51.0548L34.5623 48.9222C35.3301 48.1282 36.5963 48.1069 37.3903 48.8748C38.1843 49.6426 38.2056 50.9088 37.4377 51.7028L31.9377 57.3903C31.5609 57.78 31.0421 58 30.5 58C29.9579 58 29.4391 57.78 29.0623 57.3903L23.5623 51.7028C22.7944 50.9088 22.8157 49.6426 23.6097 48.8748C24.4037 48.1069 25.6699 48.1282 26.4377 48.9222L28.5 51.0548V42C28.5 40.8954 29.3954 40 30.5 40ZM16 54C17.1046 54 18 54.8954 18 56V62H43V56C43 54.8954 43.8954 54 45 54C46.1046 54 47 54.8954 47 56V64V66H45H16H14V64V56C14 54.8954 14.8954 54 16 54Z" fill="#FC0006"/>
<path fill-rule="evenodd" clip-rule="evenodd" d="M50.5 82.9271V107.353C50.5 110.472 53.1863 113 56.5 113H110C113.314 113 116 110.472 116 107.353V70.6471C116 67.5283 113.314 65 110 65H63.4579C63.1143 66.2899 62.6896 67.5467 62.1897 68.7647H110C111.105 68.7647 112 69.6075 112 70.6471V79.4H95.5C89.9772 79.4 85.5 83.6981 85.5 89C85.5 94.3019 89.9771 98.6 95.5 98.6H112V107.353C112 108.393 111.105 109.235 110 109.235H56.5C55.3954 109.235 54.5 108.393 54.5 107.353V79.8037C53.2563 80.9496 51.9187 81.995 50.5 82.9271ZM64.4593 58.6028L107.307 49.3793C108.387 49.1469 109.074 48.0831 108.841 47.0032C108.609 45.9234 107.545 45.2364 106.465 45.4689L64.4025 54.5234C64.4671 55.3405 64.5 56.1664 64.5 57C64.5 57.5376 64.4863 58.072 64.4593 58.6028ZM62.7466 46.6966L111.625 36.1749C112.705 35.9425 113.768 36.6294 114.001 37.7093L122.208 75.8359C122.441 76.9157 121.754 77.9796 120.674 78.212L119.5 78.4647V82.5563L121.516 82.1224C124.755 81.4251 126.816 78.2336 126.119 74.9941L117.911 36.8675C117.214 33.628 114.022 31.5672 110.783 32.2645L61.141 42.9506C61.7549 44.1559 62.2922 45.4067 62.7466 46.6966ZM104.024 62C104.459 61.5373 104.667 60.8755 104.523 60.2076C104.291 59.1278 103.227 58.4408 102.147 58.6733L86.6929 62H104.024ZM111.5 83.24H95.5C92.1863 83.24 89.5 85.8188 89.5 89C89.5 92.1812 92.1863 94.76 95.5 94.76H111.5V83.24ZM94.5 91.88C96.1569 91.88 97.5 90.5906 97.5 89C97.5 87.4094 96.1569 86.12 94.5 86.12C92.8431 86.12 91.5 87.4094 91.5 89C91.5 90.5906 92.8431 91.88 94.5 91.88Z" fill="#FC0006"/>
</svg>
