<svg width="113" height="112" viewBox="0 0 113 112" fill="none" xmlns="http://www.w3.org/2000/svg">
<path fill-rule="evenodd" clip-rule="evenodd" d="M56.625 24.5C38.036 24.5 21.3672 31.238 9.77351 41.9057C8.85908 42.7471 7.43569 42.6879 6.59428 41.7735C5.75287 40.8591 5.81208 39.4357 6.72651 38.5943C19.1916 27.1247 36.9639 20 56.625 20C76.2861 20 94.0584 27.1247 106.524 38.5943C107.438 39.4357 107.497 40.8591 106.656 41.7735C105.814 42.6879 104.391 42.7471 103.477 41.9057C91.8828 31.238 75.214 24.5 56.625 24.5ZM56.625 42.5C42.039 42.5 28.9744 47.7872 19.8985 56.1383C18.9841 56.9797 17.5607 56.9205 16.7193 56.0061C15.8779 55.0916 15.9371 53.6682 16.8515 52.8268C26.7988 43.6739 40.9668 38 56.625 38C72.2832 38 86.4512 43.6739 96.3985 52.8268C97.3129 53.6682 97.3721 55.0916 96.5307 56.0061C95.6893 56.9205 94.2659 56.9797 93.3515 56.1383C84.2756 47.7872 71.2111 42.5 56.625 42.5ZM30.0235 69.6644C36.5816 63.6301 46.0419 59.7936 56.625 59.7936C67.2082 59.7936 76.6684 63.6301 83.2265 69.6644C84.1409 70.5058 85.5643 70.4466 86.4057 69.5322C87.2471 68.6178 87.1879 67.1944 86.2735 66.353C78.844 59.5168 68.2803 55.2936 56.625 55.2936C44.9697 55.2936 34.4061 59.5168 26.9765 66.353C26.0621 67.1944 26.0029 68.6178 26.8443 69.5322C27.6857 70.4466 29.1091 70.5058 30.0235 69.6644Z" fill="#F11E51"/>
<mask id="path-2-outside-1_430_934" maskUnits="userSpaceOnUse" x="32.9584" y="56.9289" width="48.0833" height="48.0833" fill="black">
<rect fill="white" x="32.9584" y="56.9289" width="48.0833" height="48.0833"/>
<path fill-rule="evenodd" clip-rule="evenodd" d="M48.5147 86.6274C47.7337 87.4084 47.7337 88.6748 48.5147 89.4558C49.2958 90.2369 50.5621 90.2369 51.3431 89.4558L57 83.799L62.6569 89.4558C63.4379 90.2369 64.7042 90.2369 65.4853 89.4558C66.2663 88.6748 66.2663 87.4084 65.4853 86.6274L59.8284 80.9705L65.4853 75.3137C66.2663 74.5326 66.2663 73.2663 65.4853 72.4853C64.7042 71.7042 63.4379 71.7042 62.6569 72.4853L57 78.1421L51.3431 72.4853C50.5621 71.7042 49.2958 71.7042 48.5147 72.4853C47.7337 73.2663 47.7337 74.5326 48.5147 75.3137L54.1716 80.9705L48.5147 86.6274Z"/>
</mask>
<path fill-rule="evenodd" clip-rule="evenodd" d="M48.5147 86.6274C47.7337 87.4084 47.7337 88.6748 48.5147 89.4558C49.2958 90.2369 50.5621 90.2369 51.3431 89.4558L57 83.799L62.6569 89.4558C63.4379 90.2369 64.7042 90.2369 65.4853 89.4558C66.2663 88.6748 66.2663 87.4084 65.4853 86.6274L59.8284 80.9705L65.4853 75.3137C66.2663 74.5326 66.2663 73.2663 65.4853 72.4853C64.7042 71.7042 63.4379 71.7042 62.6569 72.4853L57 78.1421L51.3431 72.4853C50.5621 71.7042 49.2958 71.7042 48.5147 72.4853C47.7337 73.2663 47.7337 74.5326 48.5147 75.3137L54.1716 80.9705L48.5147 86.6274Z" fill="#F11E51"/>
<path d="M48.5147 89.4558L45.6017 92.3689L48.5147 89.4558ZM48.5147 86.6274L45.6017 83.7144L45.6017 83.7144L48.5147 86.6274ZM51.3431 89.4558L48.4301 86.5428L48.4301 86.5428L51.3431 89.4558ZM57 83.799L59.913 80.8859L57 77.9729L54.087 80.8859L57 83.799ZM62.6569 89.4558L59.7438 92.3689L62.6569 89.4558ZM65.4853 86.6274L62.5722 89.5404L65.4853 86.6274ZM59.8284 80.9705L56.9154 78.0575L54.0023 80.9705L56.9154 83.8836L59.8284 80.9705ZM65.4853 75.3137L68.3983 78.2267L68.3983 78.2267L65.4853 75.3137ZM62.6569 72.4853L65.5699 75.3983L65.5699 75.3983L62.6569 72.4853ZM57 78.1421L54.087 81.0552L57 83.9682L59.913 81.0552L57 78.1421ZM48.5147 75.3137L45.6017 78.2267L48.5147 75.3137ZM54.1716 80.9705L57.0846 83.8836L59.9977 80.9705L57.0846 78.0575L54.1716 80.9705ZM51.4278 86.5428C52.2555 87.3706 52.2555 88.7127 51.4278 89.5404L45.6017 83.7144C43.2118 86.1042 43.2118 89.979 45.6017 92.3689L51.4278 86.5428ZM48.4301 86.5428C49.2579 85.715 50.6 85.715 51.4278 86.5428L45.6017 92.3689C47.9915 94.7587 51.8663 94.7587 54.2562 92.3689L48.4301 86.5428ZM54.087 80.8859L48.4301 86.5428L54.2562 92.3689L59.913 86.712L54.087 80.8859ZM65.5699 86.5428L59.913 80.8859L54.087 86.712L59.7438 92.3689L65.5699 86.5428ZM62.5722 86.5428C63.4 85.715 64.7421 85.715 65.5699 86.5428L59.7438 92.3689C62.1337 94.7587 66.0084 94.7587 68.3983 92.3689L62.5722 86.5428ZM62.5722 89.5404C61.7445 88.7127 61.7445 87.3706 62.5722 86.5428L68.3983 92.3689C70.7882 89.979 70.7882 86.1042 68.3983 83.7144L62.5722 89.5404ZM56.9154 83.8836L62.5722 89.5404L68.3983 83.7144L62.7415 78.0575L56.9154 83.8836ZM62.5722 72.4006L56.9154 78.0575L62.7415 83.8836L68.3983 78.2267L62.5722 72.4006ZM62.5722 75.3983C61.7445 74.5705 61.7445 73.2284 62.5722 72.4006L68.3983 78.2267C70.7882 75.8368 70.7882 71.9621 68.3983 69.5722L62.5722 75.3983ZM65.5699 75.3983C64.7421 76.2261 63.4 76.2261 62.5722 75.3983L68.3983 69.5722C66.0085 67.1823 62.1337 67.1823 59.7438 69.5722L65.5699 75.3983ZM59.913 81.0552L65.5699 75.3983L59.7438 69.5722L54.087 75.2291L59.913 81.0552ZM48.4301 75.3983L54.087 81.0552L59.913 75.2291L54.2562 69.5722L48.4301 75.3983ZM51.4278 75.3983C50.6 76.2261 49.2579 76.2261 48.4301 75.3983L54.2562 69.5722C51.8663 67.1823 47.9916 67.1823 45.6017 69.5722L51.4278 75.3983ZM51.4278 72.4006C52.2555 73.2284 52.2555 74.5705 51.4278 75.3983L45.6017 69.5722C43.2118 71.9621 43.2118 75.8368 45.6017 78.2267L51.4278 72.4006ZM57.0846 78.0575L51.4278 72.4006L45.6017 78.2267L51.2585 83.8836L57.0846 78.0575ZM51.4278 89.5404L57.0846 83.8836L51.2585 78.0575L45.6017 83.7144L51.4278 89.5404Z" fill="#27272A" mask="url(#path-2-outside-1_430_934)"/>
</svg>
