<svg width="130" height="120" viewBox="0 0 130 120" fill="none" xmlns="http://www.w3.org/2000/svg">
<path fill-rule="evenodd" clip-rule="evenodd" d="M88.9219 0.892334H41.952C37.505 0.892334 33.9 4.49733 33.9 8.94432V72.329L39.268 73.7692V8.94432C39.268 7.46199 40.4696 6.26033 41.952 6.26033H88.9219C90.4042 6.26033 91.6059 7.46199 91.6059 8.94432V73.5206L64.7701 79.6034L10.8618 67.3842C9.99208 67.1871 9.09696 67.5895 8.66721 68.3709L0.695807 82.8643C0.392371 83.416 0.366462 84.0784 0.625869 84.6522C0.885283 85.2259 1.39973 85.644 2.01438 85.7805L13.4924 88.3312V104.844C13.4924 105.751 14.1033 106.545 14.9806 106.777L64.2583 119.821C64.5989 119.911 64.9523 119.909 65.2842 119.821L114.56 106.777C115.437 106.545 116.048 105.751 116.048 104.844V88.3312L127.526 85.7805C128.14 85.644 128.655 85.2259 128.914 84.6522C129.174 84.0784 129.148 83.416 128.844 82.8643L120.873 68.3709C120.443 67.5895 119.548 67.1871 118.678 67.3842L117.487 67.6544L127.207 21.6081C127.834 18.6386 125.877 15.7404 122.888 15.2129L102.807 11.6692C101.347 11.4116 99.955 12.3862 99.6974 13.8459C99.4398 15.3057 100.414 16.6979 101.874 16.9555L121.955 20.4993L111.725 68.9604L96.9739 72.3039V8.94432C96.9739 4.49733 93.3689 0.892334 88.9219 0.892334ZM8.91625 20.4993L19.015 68.3355L13.1993 66.7752L3.66402 21.6081C3.03714 18.6386 4.99466 15.7404 7.98337 15.2129L28.0644 11.6692C29.5242 11.4116 30.9164 12.3862 31.174 13.8459C31.4316 15.3057 30.4571 16.6979 28.9973 16.9555L8.91625 20.4993ZM76.8441 12.9705H54.0301C49.5831 12.9705 45.9781 16.5755 45.9781 21.0224V43.8364C45.9781 48.2834 49.5831 51.8884 54.0301 51.8884H76.8441C81.291 51.8884 84.896 48.2834 84.896 43.8364V21.0224C84.896 16.5755 81.291 12.9705 76.8441 12.9705ZM51.3461 21.0224C51.3461 19.5401 52.5478 18.3385 54.0301 18.3385H76.8441C78.3264 18.3385 79.528 19.5401 79.528 21.0224V43.8364C79.528 45.3188 78.3264 46.5204 76.8441 46.5204H54.0301C52.5478 46.5204 51.3461 45.3187 51.3461 43.8364V21.0224ZM45.9781 59.9403C45.9781 58.458 47.1798 57.2563 48.6621 57.2563H82.2121C83.6944 57.2563 84.896 58.458 84.896 59.9403C84.896 61.4227 83.6944 62.6243 82.2121 62.6243H48.6621C47.1798 62.6243 45.9781 61.4227 45.9781 59.9403ZM48.6621 66.6501C47.1798 66.6501 45.9781 67.8518 45.9781 69.3341C45.9781 70.8165 47.1798 72.0181 48.6621 72.0181H67.4501C68.9324 72.0181 70.1341 70.8165 70.1341 69.3341C70.1341 67.8518 68.9324 66.6501 67.4501 66.6501H48.6621ZM112.048 103.304L66.7701 115.289V86.6846L75.6355 96.0715C76.1159 96.5802 76.8272 96.8008 77.5112 96.6533L112.048 89.2042V103.304ZM17.4923 89.2042V103.304L62.7701 115.289V86.6846L53.9047 96.0715C53.4243 96.5802 52.7129 96.8008 52.029 96.6533L17.4923 89.2042ZM60.9089 82.8297L51.7705 92.5056L15.9262 84.7745L15.914 84.7718L5.4863 82.4545L11.4463 71.6182L60.9089 82.8297ZM113.626 84.7718L124.054 82.4545L118.094 71.6182L68.6313 82.8297L77.7696 92.5056L113.614 84.7745L113.626 84.7718Z" fill="#FC0006"/>
</svg>
