<svg width="103" height="110" viewBox="0 0 103 110" fill="none" xmlns="http://www.w3.org/2000/svg">
<path fill-rule="evenodd" clip-rule="evenodd" d="M4.87424 1.70901C5.01859 0.727393 5.86078 0 6.85295 0H96.1471C97.1392 0 97.9814 0.727393 98.1258 1.70901L102.979 34.709C103.063 35.284 102.894 35.8674 102.514 36.3073C102.366 36.4785 102.192 36.6214 102 36.7321V38.8077C102 40.6055 101.22 42.2492 99.9318 43.51C99.9763 43.679 100 43.8567 100 44.04V87.9C100 90.7167 97.7614 93 95 93H82.4449V88.92H95C95.5523 88.92 96 88.4633 96 87.9V45.6839C95.2096 45.8894 94.3701 46 93.5 46C90.5967 46 88.0334 44.7683 86.5 42.8889C84.9666 44.7683 82.4033 46 79.5 46C76.5967 46 74.0334 44.7683 72.5 42.8889C70.9666 44.7683 68.4033 46 65.5 46C62.5967 46 60.0334 44.7683 58.5 42.8889C56.9666 44.7683 54.4033 46 51.5 46C48.5967 46 46.0334 44.7683 44.5 42.8889C42.9666 44.7683 40.4033 46 37.5 46C34.5967 46 32.0334 44.7683 30.5 42.8889C28.9666 44.7683 26.4033 46 23.5 46C20.5967 46 18.0334 44.7683 16.5 42.8889C14.9666 44.7683 12.4033 46 9.5 46C8.62995 46 7.79043 45.8894 7.00001 45.6839V87.9C7.00001 88.4633 7.44772 88.92 8.00001 88.92H23.5551V93H8.00001C5.23858 93 3.00001 90.7167 3.00001 87.9V44.04C3.00001 43.8567 3.02371 43.679 3.06816 43.51C1.77952 42.2492 1 40.6055 1 38.8077V36.732C0.808314 36.6214 0.634291 36.4785 0.486413 36.3073C0.106501 35.8674 -0.0632687 35.284 0.0212952 34.709L4.87424 1.70901ZM75 37H84V38.8077C84 40.9106 81.9853 42.6154 79.5 42.6154C77.0147 42.6154 75 40.9106 75 38.8077V37ZM47 37V38.8077C47 40.9106 49.0147 42.6154 51.5 42.6154C53.9853 42.6154 56 40.9106 56 38.8077V37H47ZM19 37H28V38.8077C28 40.9106 25.9853 42.6154 23.5 42.6154C21.0147 42.6154 19 40.9106 19 38.8077V37ZM89 37V38.8077C89 40.9106 91.0147 42.6154 93.5 42.6154C95.9853 42.6154 98 40.9106 98 38.8077V37H89ZM61 37H70V38.8077C70 40.9106 67.9853 42.6154 65.5 42.6154C63.0147 42.6154 61 40.9106 61 38.8077V37ZM33 37V38.8077C33 40.9106 35.0147 42.6154 37.5 42.6154C39.9853 42.6154 42 40.9106 42 38.8077V37H33ZM5 37H14V38.8077C14 40.9106 11.9853 42.6154 9.5 42.6154C7.01472 42.6154 5 40.9106 5 38.8077V37ZM8.58035 4L4.31564 33H98.6844L94.4197 4H8.58035Z" fill="#FC0006"/>
<path fill-rule="evenodd" clip-rule="evenodd" d="M66.4217 74.7564C66.4217 73.9895 65.9832 73.2902 65.2928 72.9561L53.7072 67.3502C53.1529 67.082 52.5059 67.0841 51.9534 67.3559L40.5567 72.9618C39.8727 73.2982 39.4394 73.9942 39.4394 74.7564V89.0001C39.4394 89.6953 39.8004 90.3405 40.3927 90.7043L51.7894 97.7043C52.387 98.0714 53.1331 98.0986 53.7559 97.7761L65.3415 91.7761C66.0051 91.4324 66.4217 90.7475 66.4217 90.0001L66.4217 74.7564ZM52.8433 71.3759L59.9224 74.8012L52.8437 78.4018L45.88 74.801L52.8433 71.3759ZM43.4394 87.8814V78.0422L51.9176 82.426C52.4896 82.7218 53.169 82.7241 53.7429 82.4321L62.4217 78.0176V88.7836L52.9199 93.7045L43.4394 87.8814Z" fill="#FC0006"/>
<path fill-rule="evenodd" clip-rule="evenodd" d="M51.5001 54.5567C52.4283 54.0208 53.5719 54.0208 54.5001 54.5567L76.0167 66.9794C76.9449 67.5153 77.5167 68.5056 77.5167 69.5774V94.4227C77.5167 95.4945 76.9449 96.4849 76.0167 97.0208L54.5001 109.443C53.5719 109.979 52.4283 109.979 51.5001 109.443L29.9834 97.0208C29.0552 96.4849 28.4834 95.4945 28.4834 94.4227V69.5774C28.4834 68.5056 29.0552 67.5153 29.9834 66.9794L51.5001 54.5567ZM32.4834 70.1548V93.8454L53.0001 105.691L73.5167 93.8454V70.1548L53.0001 58.3095L32.4834 70.1548Z" fill="#FC0006"/>
</svg>
