<svg width="103" height="111" viewBox="0 0 103 111" fill="none" xmlns="http://www.w3.org/2000/svg">
<path fill-rule="evenodd" clip-rule="evenodd" d="M4.87424 1.70901C5.01859 0.727393 5.86078 0 6.85295 0H96.1471C97.1392 0 97.9814 0.727393 98.1258 1.70901L102.979 34.709C103.063 35.284 102.894 35.8674 102.514 36.3073C102.366 36.4785 102.192 36.6214 102 36.7321V38.8077C102 40.6055 101.22 42.2492 99.9318 43.51C99.9763 43.679 100 43.8567 100 44.04V87.9C100 90.7167 97.7614 93 95 93H82.4449V88.92H95C95.5523 88.92 96 88.4633 96 87.9V45.6839C95.2096 45.8894 94.3701 46 93.5 46C90.5967 46 88.0334 44.7683 86.5 42.8889C84.9666 44.7683 82.4033 46 79.5 46C76.5967 46 74.0334 44.7683 72.5 42.8889C70.9666 44.7683 68.4033 46 65.5 46C62.5967 46 60.0334 44.7683 58.5 42.8889C56.9666 44.7683 54.4033 46 51.5 46C48.5967 46 46.0334 44.7683 44.5 42.8889C42.9666 44.7683 40.4033 46 37.5 46C34.5967 46 32.0334 44.7683 30.5 42.8889C28.9666 44.7683 26.4033 46 23.5 46C20.5967 46 18.0334 44.7683 16.5 42.8889C14.9666 44.7683 12.4033 46 9.5 46C8.62995 46 7.79043 45.8894 7.00001 45.6839V87.9C7.00001 88.4633 7.44772 88.92 8.00001 88.92H23.5551V93H8.00001C5.23858 93 3.00001 90.7167 3.00001 87.9V44.04C3.00001 43.8567 3.02371 43.679 3.06816 43.51C1.77952 42.2492 1 40.6055 1 38.8077V36.732C0.808314 36.6214 0.634291 36.4785 0.486413 36.3073C0.106501 35.8674 -0.0632687 35.284 0.0212952 34.709L4.87424 1.70901ZM75 37H84V38.8077C84 40.9106 81.9853 42.6154 79.5 42.6154C77.0147 42.6154 75 40.9106 75 38.8077V37ZM47 37V38.8077C47 40.9106 49.0147 42.6154 51.5 42.6154C53.9853 42.6154 56 40.9106 56 38.8077V37H47ZM19 37H28V38.8077C28 40.9106 25.9853 42.6154 23.5 42.6154C21.0147 42.6154 19 40.9106 19 38.8077V37ZM89 37V38.8077C89 40.9106 91.0147 42.6154 93.5 42.6154C95.9853 42.6154 98 40.9106 98 38.8077V37H89ZM61 37H70V38.8077C70 40.9106 67.9853 42.6154 65.5 42.6154C63.0147 42.6154 61 40.9106 61 38.8077V37ZM33 37V38.8077C33 40.9106 35.0147 42.6154 37.5 42.6154C39.9853 42.6154 42 40.9106 42 38.8077V37H33ZM5 37H14V38.8077C14 40.9106 11.9853 42.6154 9.5 42.6154C7.01472 42.6154 5 40.9106 5 38.8077V37ZM8.58035 4L4.31564 33H98.6844L94.4197 4H8.58035Z" fill="#FC0006"/>
<path d="M51.5001 54.5562C52.4283 54.0203 53.5719 54.0203 54.5001 54.5562L76.0167 66.9789C76.9449 67.5148 77.5167 68.5052 77.5167 69.577V94.4222C77.5167 95.494 76.9449 96.4844 76.0167 97.0203L71.7226 99.4995L69.7155 96.0395L73.5167 93.8449V70.1543L53.0001 58.309L32.4834 70.1543V93.8449L53.0001 105.69L57.4596 103.115L59.5324 106.686L54.5001 109.443C53.5719 109.979 52.4283 109.979 51.5001 109.443L29.9834 97.0203C29.0552 96.4844 28.4834 95.494 28.4834 94.4222V69.577C28.4834 68.5052 29.0552 67.5148 29.9834 66.9789L51.5001 54.5562Z" fill="#FC0006"/>
<path d="M70.5076 108.153L61.6948 92.889C64.21 90.9744 66.0118 88.2923 66.844 85.1865C67.8402 81.4688 67.3233 77.594 65.4038 74.2626C63.4844 70.9312 60.3767 68.5484 56.6636 67.5534C52.9505 66.5585 49.0665 67.0729 45.7397 68.9936C42.4083 70.9131 40.0267 74.0162 39.0305 77.7339C38.0356 81.447 38.55 85.331 40.4707 88.6578C42.3902 91.9892 45.4932 94.3708 49.211 95.3669C52.3168 96.1991 55.5358 95.9786 58.4503 94.7622L67.2644 110.022C67.2902 110.067 67.3246 110.106 67.3657 110.137C67.4067 110.169 67.4535 110.192 67.5034 110.205C67.5533 110.219 67.6054 110.222 67.6567 110.215C67.7079 110.209 67.7574 110.192 67.8021 110.166L70.3636 108.691C70.4083 108.665 70.4476 108.631 70.4791 108.59C70.5105 108.549 70.5336 108.502 70.547 108.452C70.5604 108.402 70.5638 108.35 70.557 108.299C70.5503 108.248 70.5335 108.198 70.5076 108.153ZM58.3126 90.7704C55.8217 92.2046 52.9271 92.5867 50.155 91.8439C47.3829 91.1011 45.0671 89.323 43.627 86.8355C42.1928 84.3446 41.8108 81.45 42.5536 78.6779C43.2964 75.9058 45.0757 73.5854 47.562 72.1499C50.0529 70.7157 52.9475 70.3337 55.7196 71.0765C58.4917 71.8193 60.8133 73.594 62.2475 76.0849C63.6817 78.5758 64.0638 81.4704 63.321 84.2425C62.5782 87.0146 60.7988 89.335 58.3126 90.7704Z" fill="#FC0006"/>
</svg>
