<svg width="125" height="71" viewBox="0 0 125 71" fill="none" xmlns="http://www.w3.org/2000/svg">
<path d="M75.875 25.2827C75.875 24.4543 76.5466 23.7827 77.375 23.7827C78.2034 23.7827 78.875 24.4543 78.875 25.2827V28.6182C78.875 29.4467 78.2034 30.1182 77.375 30.1182C76.5466 30.1182 75.875 29.4467 75.875 28.6182V25.2827Z" fill="#FC0006"/>
<path d="M75.875 34.4341C75.875 33.6057 76.5466 32.9341 77.375 32.9341C78.2034 32.9341 78.875 33.6057 78.875 34.4341V37.7696C78.875 38.598 78.2034 39.2696 77.375 39.2696C76.5466 39.2696 75.875 38.598 75.875 37.7696V34.4341Z" fill="#FC0006"/>
<path d="M77.375 42.0854C76.5466 42.0854 75.875 42.757 75.875 43.5854V46.921C75.875 47.7494 76.5466 48.421 77.375 48.421C78.2034 48.421 78.875 47.7494 78.875 46.921V43.5854C78.875 42.757 78.2034 42.0854 77.375 42.0854Z" fill="#FC0006"/>
<path d="M30.9146 28.0063C30.0861 28.0063 29.4146 28.6779 29.4146 29.5063V42.6971C29.4146 43.5256 30.0861 44.1971 30.9146 44.1971C31.743 44.1971 32.4146 43.5256 32.4146 42.6971V29.5063C32.4146 28.6779 31.743 28.0063 30.9146 28.0063Z" fill="#FC0006"/>
<path d="M39.9736 29.5063C39.9736 28.6779 40.6452 28.0063 41.4736 28.0063C42.3021 28.0063 42.9736 28.6779 42.9736 29.5063V42.6971C42.9736 43.5256 42.3021 44.1971 41.4736 44.1971C40.6452 44.1971 39.9736 43.5256 39.9736 42.6971V29.5063Z" fill="#FC0006"/>
<path d="M52.0327 28.0063C51.2043 28.0063 50.5327 28.6779 50.5327 29.5063V42.6971C50.5327 43.5256 51.2043 44.1971 52.0327 44.1971C52.8611 44.1971 53.5327 43.5256 53.5327 42.6971V29.5063C53.5327 28.6779 52.8611 28.0063 52.0327 28.0063Z" fill="#FC0006"/>
<path fill-rule="evenodd" clip-rule="evenodd" d="M18.7632 20.263C18.7632 19.0458 19.7499 18.0591 20.9671 18.0591H62.5C63.7172 18.0591 64.704 19.0458 64.704 20.263V50.5328C64.704 51.75 63.7172 52.7367 62.5 52.7367H20.9671C19.7499 52.7367 18.7632 51.75 18.7632 50.5328V20.263ZM21.7632 21.0591V49.7367H61.704V21.0591H21.7632Z" fill="#FC0006"/>
<path d="M97.9233 26.7199C97.5817 25.8986 96.4183 25.8986 96.0767 26.7199L94.325 30.9314C94.181 31.2776 93.8554 31.5142 93.4816 31.5442L88.935 31.9087C88.0483 31.9798 87.6888 33.0863 88.3643 33.6649L91.8284 36.6323C92.1132 36.8762 92.2376 37.259 92.1506 37.6238L91.0922 42.0605C90.8858 42.9257 91.8271 43.6096 92.5862 43.1459L96.4787 40.7684C96.7988 40.5729 97.2012 40.5729 97.5213 40.7684L101.414 43.1459C102.173 43.6096 103.114 42.9257 102.908 42.0605L101.849 37.6238C101.762 37.259 101.887 36.8762 102.172 36.6323L105.636 33.6649C106.311 33.0863 105.952 31.9798 105.065 31.9087L100.518 31.5442C100.145 31.5142 99.819 31.2776 99.675 30.9314L97.9233 26.7199Z" fill="#FC0006"/>
<path fill-rule="evenodd" clip-rule="evenodd" d="M9 6.7959C8.60218 6.7959 8.22064 6.95393 7.93934 7.23524C7.65804 7.51654 7.5 7.89807 7.5 8.2959V62.4998C7.5 63.3283 8.17157 63.9998 9 63.9998H68.8355C69.246 63.9998 69.6386 63.8316 69.9217 63.5344L77.0145 56.0872L85.4342 63.6179C85.7092 63.8639 86.0652 63.9998 86.4342 63.9998H116C116.828 63.9998 117.5 63.3283 117.5 62.4998V8.2959C117.5 7.46747 116.828 6.7959 116 6.7959H86.4342C86.0573 6.7959 85.6941 6.93783 85.4171 7.19344L77.0243 14.9367L69.0428 7.21766C68.7631 6.94713 68.3891 6.7959 68 6.7959H9ZM10.5 60.9998V9.7959H67.3933L75.9572 18.0782C76.5289 18.6311 77.4326 18.6417 78.0171 18.1025L87.0205 9.7959H114.5V60.9998H87.0072L77.9309 52.882C77.3271 52.3419 76.4035 52.3789 75.8447 52.9655L68.1927 60.9998H10.5Z" fill="#FC0006"/>
<path fill-rule="evenodd" clip-rule="evenodd" d="M2 0C1.17157 0 0.5 0.671573 0.5 1.5V69C0.5 69.8284 1.17157 70.5 2 70.5H71.5C71.9412 70.5 72.3601 70.3057 72.6451 69.9689L77.1304 64.6681L82.9793 70.0992C83.2568 70.3568 83.6214 70.5 84 70.5H123C123.828 70.5 124.5 69.8284 124.5 69V1.5C124.5 0.671573 123.828 0 123 0H85C84.6367 0 84.2857 0.131877 84.0122 0.371135L77.0684 6.44704L71.0607 0.43934C70.7794 0.158035 70.3978 0 70 0H2ZM3.5 67.5V3H69.3787L75.9393 9.56066C76.4977 10.1191 77.3934 10.1489 77.9878 9.62887L85.5636 3H121.5V67.5H84.589L78.0207 61.4008C77.7204 61.1219 77.319 60.9781 76.9099 61.0027C76.5008 61.0273 76.1196 61.2182 75.8549 61.5311L70.8043 67.5H3.5Z" fill="#FC0006"/>
</svg>
