<svg width="70" height="69" viewBox="0 0 70 69" fill="none" xmlns="http://www.w3.org/2000/svg">
<path fill-rule="evenodd" clip-rule="evenodd" d="M11.0369 31.0985C12.3382 22.531 18.1904 14.9054 26.9515 11.7167C35.7125 8.52789 45.0972 10.6077 51.6012 16.3343C52.0502 16.7297 52.7347 16.6862 53.1301 16.2371C53.5255 15.7881 53.482 15.1035 53.033 14.7081C45.9543 8.4755 35.741 6.21179 26.2104 9.68066C16.6798 13.1495 10.3111 21.4486 8.89476 30.7731C8.80491 31.3646 9.2116 31.917 9.80312 32.0068C10.3946 32.0967 10.947 31.69 11.0369 31.0985ZM18.9735 52.9043C18.5245 52.5089 17.8399 52.5524 17.4445 53.0014C17.0491 53.4505 17.0927 54.135 17.5417 54.5304C24.6203 60.763 34.8336 63.0267 44.3642 59.5579C53.8949 56.089 60.2636 47.79 61.6799 38.4654C61.7697 37.8739 61.3631 37.3215 60.7715 37.2317C60.18 37.1418 59.6276 37.5485 59.5378 38.1401C58.2365 46.7075 52.3843 54.3331 43.6232 57.5219C34.8621 60.7107 25.4774 58.6308 18.9735 52.9043ZM24.0942 27.0286C25.6347 24.7535 27.8795 22.9261 30.6604 21.9139C33.4414 20.9017 36.3356 20.8586 38.9782 21.6113C39.5536 21.7752 40.1529 21.4416 40.3168 20.8661C40.4807 20.2907 40.1471 19.6914 39.5717 19.5275C36.505 18.654 33.1432 18.7045 29.9194 19.8779C26.6956 21.0513 24.0879 23.1735 22.3001 25.8138C21.9646 26.3093 22.0943 26.9828 22.5897 27.3183C23.0852 27.6537 23.7587 27.524 24.0942 27.0286ZM31.5926 47.6304C31.0172 47.4665 30.4179 47.8001 30.254 48.3755C30.0901 48.951 30.4237 49.5503 30.9991 49.7142C34.0658 50.5876 37.4276 50.5371 40.6514 49.3638C43.8751 48.1904 46.4829 46.0682 48.2707 43.4279C48.6062 42.9324 48.4765 42.2589 47.981 41.9234C47.4856 41.588 46.8121 41.7176 46.4766 42.2131C44.9361 44.4882 42.6913 46.3156 39.9103 47.3278C37.1294 48.34 34.2352 48.383 31.5926 47.6304ZM27.8245 13.1346L29.0218 14.2985L30.654 13.9459L29.917 15.4443L30.7567 16.8876L29.1039 16.6498L27.9907 17.8943L27.7062 16.249L26.1786 15.5748L27.6555 14.7958L27.8245 13.1346ZM42.8128 51.9127L41.6155 50.7489L41.4465 52.41L39.9696 53.1891L41.4972 53.8632L41.7818 55.5086L42.895 54.264L44.5477 54.5018L43.7081 53.0585L44.445 51.5602L42.8128 51.9127ZM35.8566 11.8684L36.7119 13.3025L38.3797 13.3844L37.28 14.641L37.7175 16.2524L36.1827 15.595L34.7853 16.509L34.9363 14.8461L33.6352 13.7995L35.2634 13.4293L35.8566 11.8684ZM35.0596 53.1023L34.2043 51.6683L33.611 53.2291L31.9828 53.5993L33.2839 54.6459L33.1329 56.3088L34.5303 55.3948L36.0652 56.0522L35.6277 54.4408L36.7273 53.1842L35.0596 53.1023ZM20.384 17.5001L21.8418 18.3145L23.327 17.5515L23.003 19.1895L24.1876 20.3663L22.5296 20.5644L21.7765 22.0546L21.0758 20.539L19.4257 20.2832L20.6507 19.1485L20.384 17.5001ZM48.6933 47.7393L47.2356 46.9249L47.5022 48.5733L46.2773 49.708L47.9274 49.9638L48.6281 51.4794L49.3812 49.9892L51.0392 49.7911L49.8546 48.6143L50.1786 46.9763L48.6933 47.7393Z" fill="#0BFFFF"/>
<path fill-rule="evenodd" clip-rule="evenodd" d="M7.99662 34.0723C7.00124 34.4346 6.48803 35.5352 6.85031 36.5306L12.274 51.4319C12.6363 52.4273 13.7369 52.9405 14.7322 52.5782L62.1813 35.3082C63.1767 34.9459 63.6899 33.8453 63.3276 32.8499L57.904 17.9485C57.5417 16.9532 56.4411 16.44 55.4457 16.8022L7.99662 34.0723ZM17.6653 46.5482C18.2062 46.6545 18.8572 46.5691 19.6185 46.292C20.3881 46.0119 20.9459 45.6573 21.2919 45.2282C21.6462 44.7961 21.8282 44.2941 21.8379 43.7221C21.8476 43.1501 21.7261 42.517 21.4734 41.8226L20.0987 38.0455C19.8429 37.3428 19.529 36.7796 19.1569 36.3561C18.7849 35.9326 18.3258 35.6733 17.7796 35.5784C17.2388 35.4721 16.5836 35.559 15.8139 35.8391C15.0527 36.1162 14.4991 36.4693 14.1531 36.8984C13.8041 37.3191 13.6232 37.8112 13.6105 38.3748C13.5977 38.9385 13.7192 39.5716 13.975 40.2743L15.3497 44.0514C15.6025 44.7458 15.9164 45.3089 16.2915 45.7408C16.6666 46.1727 17.1245 46.4419 17.6653 46.5482ZM19.489 44.3354C19.4229 44.4921 19.2727 44.6131 19.0384 44.6984C18.8042 44.7836 18.6114 44.7875 18.46 44.71C18.317 44.6294 18.1953 44.5032 18.0948 44.3313C18.0027 44.1564 17.9217 43.9727 17.8516 43.7803L16.0704 38.8864C15.9973 38.6856 15.9455 38.4913 15.9151 38.3034C15.8815 38.1072 15.8978 37.9307 15.964 37.774C16.0301 37.6173 16.1719 37.4994 16.3894 37.4202C16.6237 37.335 16.8165 37.3311 16.9678 37.4087C17.1192 37.4862 17.2451 37.6109 17.3456 37.7828C17.443 37.9463 17.5282 38.1284 17.6013 38.3292L19.3826 43.2231C19.4526 43.4155 19.5044 43.6098 19.5379 43.8061C19.5714 44.0023 19.5551 44.1787 19.489 44.3354ZM20.3056 34.3606L24.0051 44.5249L25.925 43.8261L24.0067 38.5558L28.0081 43.068L29.5264 42.5153L25.8269 32.351L23.9697 33.027L25.751 37.9209L21.8867 33.7851L20.3056 34.3606ZM37.0025 39.9648C36.3667 40.1962 35.7944 40.2766 35.2855 40.206C34.7767 40.1354 34.3282 39.9055 33.9402 39.5162C33.5491 39.1185 33.204 38.5478 32.9049 37.804L34.7198 36.8166C34.8865 37.2485 35.052 37.5862 35.2164 37.8295C35.3891 38.0698 35.5595 38.2257 35.7276 38.2972C35.9041 38.3656 36.0844 38.3663 36.2684 38.2993C36.5027 38.214 36.6243 38.0797 36.6334 37.8964C36.6508 37.7101 36.6276 37.5291 36.5636 37.3534C36.4114 36.9351 36.1831 36.6203 35.8788 36.4089C35.5715 36.1892 35.193 35.9954 34.7434 35.8274L33.5864 35.3817C33.0829 35.1955 32.6226 34.9461 32.2057 34.6336C31.7942 34.3097 31.4772 33.8425 31.255 33.2318C30.9413 32.3701 30.9575 31.6205 31.3034 30.983C31.6462 30.3372 32.2568 29.8544 33.1352 29.5347C33.679 29.3368 34.1475 29.2705 34.5407 29.3358C34.9423 29.398 35.2816 29.5493 35.5585 29.7895C35.8408 30.0184 36.0721 30.2895 36.2525 30.6028C36.4381 30.9047 36.59 31.2047 36.7079 31.5028L34.8622 32.4446C34.7443 32.1465 34.629 31.8948 34.5163 31.6894C34.409 31.4727 34.288 31.3225 34.1534 31.2389C34.0157 31.1469 33.8506 31.1359 33.6582 31.206C33.4491 31.2821 33.3263 31.4262 33.2898 31.6385C33.2618 31.8476 33.2797 32.0401 33.3436 32.2157C33.4807 32.5922 33.6812 32.8698 33.9451 33.0484C34.2144 33.2157 34.5427 33.3757 34.9299 33.5284L36.0401 33.9628C36.6205 34.1779 37.1481 34.469 37.6228 34.8363C38.1059 35.2004 38.4753 35.7339 38.7311 36.4366C38.9046 36.9135 38.9542 37.3881 38.8798 37.8604C38.8024 38.3244 38.604 38.7424 38.2846 39.1144C37.9736 39.4834 37.5463 39.7669 37.0025 39.9648ZM38.3286 27.8008L40.1082 38.6639L42.2289 37.892L41.7992 35.6183L43.2925 35.0748L44.4123 37.0973L46.4828 36.3437L40.8885 26.8691L38.3286 27.8008ZM40.6076 30.0408L42.5905 33.8098L41.5113 34.2026L40.6076 30.0408ZM47.509 35.9702L43.8095 25.8059L46.0557 24.9883L49.2026 33.6343L51.5366 32.7848L52.0892 34.3031L47.509 35.9702ZM49.373 23.7809L53.0725 33.9452L57.6653 32.2736L57.1127 30.7552L54.7661 31.6093L53.6608 28.5726L55.4301 27.9286L54.8638 26.3726L53.0945 27.0166L52.1764 24.4943L54.4979 23.6494L53.9407 22.1184L49.373 23.7809Z" fill="#0BFFFF"/>
</svg>
