<svg width="11" height="9" viewBox="0 0 11 9" fill="none" xmlns="http://www.w3.org/2000/svg">
<path fill-rule="evenodd" clip-rule="evenodd" d="M6.19255 3.66961C6.06608 4.09331 5.81036 4.46691 5.46116 4.73817C6.16512 5.00223 6.77192 5.47452 7.20072 6.09212C7.62952 6.70972 7.85996 7.44332 7.86135 8.19518H7.17227C7.17227 7.39623 6.85489 6.63 6.28995 6.06506C5.72501 5.50012 4.95878 5.18274 4.15983 5.18274C3.36088 5.18274 2.59466 5.50012 2.02971 6.06506C1.46477 6.63 1.14739 7.39623 1.14739 8.19518H0.458252C0.459635 7.44332 0.690069 6.70973 1.11886 6.09213C1.54764 5.47453 2.15443 5.00224 2.85839 4.73817C2.50918 4.46691 2.25347 4.09331 2.12699 3.66961C2.00051 3.2459 2.00959 2.79326 2.15297 2.37497C2.29634 1.95667 2.56684 1.59364 2.92665 1.33661C3.28646 1.07958 3.71759 0.941406 4.15977 0.941406C4.60195 0.941406 5.03308 1.07958 5.39289 1.33661C5.7527 1.59364 6.0232 1.95667 6.16657 2.37497C6.30995 2.79326 6.31903 3.2459 6.19255 3.66961ZM4.9529 1.88177C4.7183 1.72435 4.44231 1.64 4.1598 1.63938C3.78049 1.63939 3.41668 1.78986 3.14817 2.05778C2.87966 2.32569 2.72838 2.68917 2.72753 3.06848C2.72753 3.35099 2.81126 3.62717 2.96815 3.86211C3.12505 4.09706 3.34805 4.28023 3.609 4.38849C3.86995 4.49675 4.15714 4.52523 4.43427 4.47035C4.7114 4.41546 4.96605 4.27967 5.16603 4.08012C5.36602 3.88058 5.50238 3.62623 5.55788 3.34922C5.61338 3.07221 5.58553 2.78497 5.47785 2.52378C5.37018 2.26259 5.1875 2.03918 4.9529 1.88177ZM8.84647 3.67196C8.72001 4.09508 8.46425 4.46798 8.11507 4.73835C8.81902 5.00242 9.4258 5.4747 9.85459 6.09229C10.2834 6.70988 10.5138 7.44345 10.5152 8.1953H9.82613C9.82432 7.39752 9.50614 6.63304 8.94139 6.06957C8.37664 5.5061 7.61144 5.18965 6.81366 5.18965V4.4977C7.19268 4.4977 7.55618 4.34714 7.82419 4.07913C8.0922 3.81112 8.24276 3.44762 8.24276 3.0686C8.24276 2.68958 8.0922 2.32608 7.82419 2.05807C7.55618 1.79006 7.19268 1.6395 6.81366 1.6395V0.951915C7.25527 0.950488 7.68624 1.08736 8.04611 1.34332C8.40597 1.59928 8.67667 1.96149 8.82021 2.37912C8.96375 2.79675 8.97293 3.24885 8.84647 3.67196Z" fill="#FC0006"/>
</svg>
