<svg width="12" height="10" viewBox="0 0 12 10" fill="none" xmlns="http://www.w3.org/2000/svg">
<path fill-rule="evenodd" clip-rule="evenodd" d="M8.33317 5.00008C8.33317 6.28875 7.2885 7.33341 5.99984 7.33341C4.71117 7.33341 3.6665 6.28875 3.6665 5.00008C3.6665 3.71142 4.71117 2.66675 5.99984 2.66675C7.2885 2.66675 8.33317 3.71142 8.33317 5.00008ZM7.45817 5.00008C7.45817 5.8055 6.80525 6.45841 5.99984 6.45841C5.19442 6.45841 4.5415 5.8055 4.5415 5.00008C4.5415 4.19467 5.19442 3.54175 5.99984 3.54175C6.80525 3.54175 7.45817 4.19467 7.45817 5.00008Z" fill="#ABACB6"/>
<path fill-rule="evenodd" clip-rule="evenodd" d="M11.8332 5.00008C11.8332 6.08897 9.2215 9.08341 5.99984 9.08341C2.77818 9.08341 0.166504 6.08897 0.166504 5.00008C0.166504 3.91119 2.77818 0.916748 5.99984 0.916748C9.2215 0.916748 11.8332 3.91119 11.8332 5.00008ZM10.9582 5.00008C10.9582 4.99993 10.9581 5.00038 10.9579 5.00143C10.9539 5.01992 10.91 5.2251 10.6513 5.60527C10.4059 5.96604 10.0349 6.38358 9.56258 6.77946C8.60879 7.57883 7.3426 8.20841 5.99984 8.20841C4.65708 8.20841 3.39088 7.57883 2.43709 6.77946C1.96474 6.38358 1.59381 5.96604 1.34835 5.60527C1.0897 5.2251 1.04578 5.01992 1.04182 5.00143C1.0416 5.00038 1.0415 4.99993 1.0415 5.00008C1.0415 5.00016 1.04145 5.00032 1.0415 5.00008C1.04156 4.99986 1.04171 4.99925 1.04182 4.99874C1.04578 4.98024 1.0897 4.77506 1.34835 4.39489C1.59381 4.03413 1.96474 3.61658 2.43709 3.2207C3.39088 2.42133 4.65708 1.79175 5.99984 1.79175C7.3426 1.79175 8.60879 2.42133 9.56258 3.2207C10.0349 3.61658 10.4059 4.03413 10.6513 4.39489C10.91 4.77506 10.9539 4.98024 10.9579 4.99874C10.9581 4.99976 10.9582 5.00023 10.9582 5.00008Z" fill="#ABACB6"/>
</svg>
