<svg width="12" height="6" viewBox="0 0 12 6" fill="none" xmlns="http://www.w3.org/2000/svg">
<path d="M0.453177 0.632513C0.672524 0.468575 0.983238 0.513493 1.14718 0.73284C1.96986 1.83358 3.79134 2.67077 6.00001 2.67077C8.20867 2.67077 10.0302 1.83358 10.8528 0.73284C11.0168 0.513493 11.3275 0.468575 11.5468 0.632513C11.7662 0.796452 11.8111 1.10717 11.6472 1.32651C11.3522 1.72113 10.9733 2.07591 10.5286 2.38278C10.5331 2.38973 10.5374 2.39683 10.5416 2.40409L11.3324 3.77371C11.4612 3.99691 11.3848 4.28232 11.1616 4.41119C10.9384 4.54006 10.653 4.46358 10.5241 4.24038L9.73334 2.87075C9.7297 2.86444 9.72622 2.85808 9.7229 2.85168C9.28001 3.06819 8.79558 3.24558 8.28132 3.37863L8.6298 4.67918C8.69651 4.92813 8.54877 5.18402 8.29982 5.25073C8.05087 5.31744 7.79498 5.1697 7.72827 4.92075L7.36459 3.56349C6.92284 3.62853 6.4659 3.66244 6.00001 3.66244C5.67119 3.66244 5.34682 3.64555 5.02911 3.61274L4.68899 4.88213C4.62228 5.13108 4.36639 5.27881 4.11744 5.21211C3.86849 5.1454 3.72075 4.88951 3.78745 4.64056L4.10156 3.46829C3.46475 3.33442 2.86715 3.13425 2.32926 2.8769L1.55688 4.21471C1.42801 4.43791 1.1426 4.51439 0.919397 4.38552C0.696194 4.25665 0.619719 3.97124 0.748585 3.74804L1.51834 2.41479C1.0533 2.10067 0.658094 1.73492 0.35285 1.32651C0.188912 1.10717 0.23383 0.796452 0.453177 0.632513Z" fill="#ABACB6"/>
</svg>
