<svg width="20" height="20" viewBox="0 0 20 20" fill="none" xmlns="http://www.w3.org/2000/svg">
<g clip-path="url(#clip0_27040_11449)">
<path d="M16.8088 16.8388C16.7563 16.7413 15.5288 14.4425 14.7238 13.4788C14.3675 13.0525 13.975 12.635 13.4525 12.635C13.005 12.635 12.6125 12.9388 12.1613 13.2913C11.6925 13.655 11.4213 13.6938 11.3213 13.745C11.2975 13.7188 9.04752 11.0788 8.45502 9.89504C8.08127 9.14754 8.35002 8.87504 9.54127 8.25504C10.6288 7.68879 10.6138 6.89004 10.4175 6.48629C10.3388 6.36754 8.46752 3.54629 7.54627 2.62504C7.28627 2.36629 6.95377 2.22754 6.58252 2.22754C5.53627 2.22754 4.45752 3.32754 4.34502 3.44504C3.59877 4.19129 2.53127 6.97004 3.44627 10.0075C4.36252 13.0488 6.28502 15.8525 9.32377 18.5788C10.3738 19.5213 11.5125 20 12.7088 20C14.5988 20 16.0438 18.7875 16.4413 18.4175C17.135 17.7688 16.97 17.075 16.8088 16.8388ZM6.88377 3.28754C7.73002 4.13254 9.58002 6.91629 9.59252 6.91629C9.61252 6.99504 9.53752 7.20004 9.10877 7.42254C8.82002 7.57504 8.48877 7.75379 8.18877 7.97379L5.30877 3.82879C5.68627 3.50629 6.20502 3.16504 6.58252 3.16504C6.70627 3.16504 6.79877 3.20254 6.88377 3.28754ZM9.95002 17.8825C7.04377 15.2738 5.21002 12.6075 4.34377 9.73629C3.60502 7.28504 4.33877 5.05754 4.87002 4.29379L7.72252 8.39754C7.34627 8.85254 7.18877 9.46004 7.61627 10.315C8.26002 11.6013 10.5138 14.2438 10.6363 14.3825C10.695 14.4425 10.9175 14.6313 11.3313 14.6313C11.4463 14.6313 11.5663 14.6125 11.6888 14.5825L14.4238 18.6538C13.935 18.8838 13.355 19.0625 12.7088 19.0625C11.75 19.0625 10.8225 18.6663 9.95002 17.8825ZM15.8025 17.7325C15.665 17.8613 15.3738 18.1088 14.9775 18.355L12.275 14.3375C12.4263 14.2525 12.58 14.155 12.7388 14.0313C12.9725 13.8488 13.3275 13.5725 13.4525 13.5725C13.4913 13.5725 13.6225 13.6225 14.0025 14.0788C14.7438 14.9688 15.9688 17.2575 16.0038 17.32C16.0075 17.32 16.0713 17.4813 15.8025 17.7325Z" fill="#ABACB6"/>
</g>
<defs>
<clipPath id="clip0_27040_11449">
<rect width="20" height="20" fill="white"/>
</clipPath>
</defs>
</svg>
