<svg width="86" height="135" viewBox="0 0 86 135" fill="none" xmlns="http://www.w3.org/2000/svg">
<path fill-rule="evenodd" clip-rule="evenodd" d="M1.68627 0C0.754971 0 0 0.785786 0 1.7551V132.51C0 133.48 0.754971 134.265 1.68627 134.265H84.3137C85.245 134.265 86 133.48 86 132.51V1.7551C86 0.785786 85.245 0 84.3137 0H1.68627ZM3.37255 130.755V3.5102H82.6274V130.755H3.37255ZM40.3673 9.65306C39.398 9.65306 38.6122 10.4388 38.6122 11.4082C38.6122 12.3775 39.398 13.1633 40.3673 13.1633H45.6327C46.602 13.1633 47.3878 12.3775 47.3878 11.4082C47.3878 10.4388 46.602 9.65306 45.6327 9.65306H40.3673ZM27.2041 125.49C27.2041 124.52 27.9899 123.735 28.9592 123.735H57.0408C58.0101 123.735 58.7959 124.52 58.7959 125.49C58.7959 126.459 58.0101 127.245 57.0408 127.245H28.9592C27.9899 127.245 27.2041 126.459 27.2041 125.49ZM43.0001 50.0204C32.3757 50.0204 22.9726 55.2492 17.2232 63.2816C16.6591 64.0698 15.5627 64.2514 14.7745 63.6872C13.9863 63.123 13.8047 62.0267 14.3689 61.2385C20.749 52.3249 31.1955 46.5102 43.0001 46.5102C54.8047 46.5102 65.2512 52.3249 71.6313 61.2385C72.1955 62.0267 72.0139 63.123 71.2257 63.6872C70.4375 64.2514 69.3411 64.0698 68.777 63.2816C63.0276 55.2492 53.6245 50.0204 43.0001 50.0204ZM39.8976 77.521C39.2122 76.8355 38.1009 76.8355 37.4155 77.521C36.7301 78.2064 36.7301 79.3176 37.4155 80.003L40.5181 83.1057L37.4155 86.2083C36.7301 86.8937 36.7301 88.0049 37.4155 88.6904C38.1009 89.3758 39.2122 89.3758 39.8976 88.6904L43.0002 85.5877L46.1028 88.6904C46.7882 89.3758 47.8995 89.3758 48.5849 88.6904C49.2703 88.0049 49.2703 86.8937 48.5849 86.2083L45.4823 83.1057L48.5849 80.003C49.2703 79.3176 49.2703 78.2064 48.5849 77.521C47.8995 76.8355 46.7882 76.8355 46.1028 77.521L43.0002 80.6236L39.8976 77.521ZM25.1213 69.7262C29.1099 64.1537 35.6317 60.528 43.0003 60.528C50.3688 60.528 56.8906 64.1537 60.8792 69.7262C61.4434 70.5144 62.5397 70.696 63.3279 70.1319C64.1162 69.5677 64.2978 68.4713 63.7336 67.6831C59.1142 61.2294 51.5491 57.0178 43.0003 57.0178C34.4514 57.0178 26.8863 61.2294 22.2669 67.6831C21.7027 68.4713 21.8843 69.5677 22.6726 70.1319C23.4608 70.696 24.5571 70.5144 25.1213 69.7262ZM43.0002 70.1811C37.8022 70.1811 33.2014 72.738 30.3866 76.6706C29.8224 77.4588 28.7261 77.6404 27.9379 77.0762C27.1497 76.512 26.968 75.4157 27.5322 74.6275C30.9778 69.8137 36.6219 66.6709 43.0002 66.6709C49.3784 66.6709 55.0226 69.8137 58.4681 74.6275C59.0323 75.4157 58.8507 76.512 58.0625 77.0762C57.2743 77.6404 56.1779 77.4588 55.6138 76.6706C52.799 72.738 48.1982 70.1811 43.0002 70.1811Z" fill="#FC0006"/>
</svg>
