<svg width="15" height="15" viewBox="0 0 15 15" fill="none" xmlns="http://www.w3.org/2000/svg">
<path fill-rule="evenodd" clip-rule="evenodd" d="M2.29894 1.53355C2.39085 1.35898 2.57026 1.24994 2.76557 1.24994H12.2344C12.4297 1.24994 12.6092 1.35898 12.7011 1.53355L14.3128 4.59478C14.3536 4.67236 14.375 4.75895 14.375 4.84688V7.1428C14.375 7.43866 14.1382 7.67851 13.8462 7.67851C13.5541 7.67851 13.3173 7.43866 13.3173 7.1428V5.38259H1.68269V12.6785H7.5C7.79207 12.6785 8.02885 12.9184 8.02885 13.2142C8.02885 13.5101 7.79207 13.7499 7.5 13.7499H1.15385C0.861772 13.7499 0.625 13.5101 0.625 13.2142V4.84688C0.625 4.75895 0.646368 4.67236 0.687217 4.59478L2.29894 1.53355ZM2.03526 4.31116H12.9647L11.9171 2.32137H3.08288L2.03526 4.31116Z" fill="#F8F6F0"/>
<path d="M3.44551 6.78565C3.44551 6.48979 3.68229 6.24994 3.97436 6.24994L6.08974 6.24994C6.38182 6.24994 6.61859 6.48979 6.61859 6.78565C6.61859 7.08152 6.38182 7.32137 6.08974 7.32137H3.97436C3.68229 7.32137 3.44551 7.08152 3.44551 6.78565Z" fill="#F8F6F0"/>
<path d="M8.55769 9.64279C8.55769 9.53196 8.60849 9.4274 8.69519 9.35979L10.2817 8.12261C10.3882 8.0396 10.532 8.02509 10.6525 8.08518C10.773 8.14527 10.8494 8.26953 10.8494 8.40562V9.10708H12.0833C13.349 9.10708 14.375 10.1464 14.375 11.4285C14.375 12.7106 13.349 13.7499 12.0833 13.7499H10.3205C10.0284 13.7499 9.79167 13.5101 9.79167 13.2142C9.79167 12.9184 10.0284 12.6785 10.3205 12.6785H12.0833C12.7648 12.6785 13.3173 12.1189 13.3173 11.4285C13.3173 10.7382 12.7648 10.1785 12.0833 10.1785H10.8494V10.88C10.8494 11.0161 10.773 11.1403 10.6525 11.2004C10.532 11.2605 10.3882 11.246 10.2817 11.163L8.69519 9.9258C8.60849 9.85819 8.55769 9.75363 8.55769 9.64279Z" fill="#F8F6F0"/>
</svg>
