<svg width="113" height="112" viewBox="0 0 113 112" fill="none" xmlns="http://www.w3.org/2000/svg">
<path fill-rule="evenodd" clip-rule="evenodd" d="M104 24.4163L57 4.83301L10 24.4163V65.3988L10.0221 65.5464C10.8624 71.148 15.3801 79.1434 23.0429 86.9334C30.7745 94.7933 41.9008 102.649 56.3178 107.88L56.9493 108.109L57.5911 107.91C71.8655 103.495 82.7142 95.6201 90.3463 87.5557C97.9461 79.5256 102.448 71.2078 103.93 65.7759L104 65.5175V24.4163ZM14 27.083L57 9.16634L100 27.083V64.9749C98.6549 69.6511 94.5746 77.2688 87.4411 84.8062C80.3254 92.3248 70.2596 99.6683 57.0497 103.888C43.525 98.8706 33.1134 91.4671 25.8945 84.1284C18.5736 76.6859 14.72 69.5057 14 65.0942V27.083ZM55 36C55 34.8954 55.8954 34 57 34C58.1046 34 59 34.8954 59 36V66C59 67.1046 58.1046 68 57 68C55.8954 68 55 67.1046 55 66V36ZM55 76C55 74.8954 55.8954 74 57 74C58.1046 74 59 74.8954 59 76C59 77.1046 58.1046 78 57 78C55.8954 78 55 77.1046 55 76Z" fill="#F11E51"/>
</svg>
