<svg width="16" height="15" viewBox="0 0 16 15" fill="none" xmlns="http://www.w3.org/2000/svg">
<path fill-rule="evenodd" clip-rule="evenodd" d="M8.25001 0.875C7.38512 0.875 6.64356 1.40749 6.33727 2.16416C6.24661 2.38813 5.99155 2.4962 5.76757 2.40554C5.5436 2.31487 5.43553 2.05981 5.5262 1.83584C5.96164 0.760118 7.01653 0 8.25001 0C9.48348 0 10.5384 0.760118 10.9738 1.83584C11.0645 2.05981 10.9564 2.31487 10.7324 2.40554C10.5085 2.4962 10.2534 2.38813 10.1627 2.16416C9.85646 1.40749 9.11489 0.875 8.25001 0.875ZM3.24956 4.06091C3.31364 3.5269 3.76665 3.125 4.30449 3.125H12.1955C12.7334 3.125 13.1864 3.5269 13.2505 4.06091L13.5625 7.1875L12.7621 7.18909L12.3817 4.16516C12.3704 4.07092 12.2904 4 12.1955 4H4.30449C4.20958 4 4.12963 4.07092 4.11833 4.16516L3.14333 12.2902C3.12993 12.4018 3.21708 12.5 3.32949 12.5H8.25001V13.375H3.32949C2.6925 13.375 2.19866 12.8184 2.27456 12.1859L3.24956 4.06091ZM11.7811 7.62814C11.6102 7.45729 11.3332 7.45729 11.1624 7.62814L9.00315 9.78737C8.83229 9.95823 8.83229 10.2352 9.00315 10.4061C9.174 10.5769 9.45101 10.5769 9.62187 10.4061L11.0342 8.99372V12.9375C11.0342 13.1791 11.2301 13.375 11.4717 13.375C11.7134 13.375 11.9092 13.1791 11.9092 12.9375V8.99372L13.3216 10.4061C13.4925 10.5769 13.7695 10.5769 13.9403 10.4061C14.1112 10.2352 14.1112 9.95823 13.9403 9.78737L11.7811 7.62814Z" fill="#F8F6F0"/>
</svg>
