<svg width="24" height="25" viewBox="0 0 24 25" fill="none" xmlns="http://www.w3.org/2000/svg">
<path fill-rule="evenodd" clip-rule="evenodd" d="M18.9981 4.1023C19.288 4.10209 19.5874 4.10187 19.8999 4.10187C19.7569 4.23298 19.6328 4.34786 19.5203 4.45204C19.3293 4.62895 19.1716 4.77501 19.0109 4.91729C17.5343 6.21374 16.0573 7.5099 14.5804 8.80608C12.7159 10.4423 10.8514 12.0786 8.98732 13.7156C8.49314 14.1494 8.39739 14.6228 8.71498 14.995C9.04891 15.3862 9.58171 15.3561 10.0833 14.9149C11.0099 14.1002 11.9365 13.2854 12.863 12.4706C14.995 10.5956 17.1271 8.72059 19.2603 6.84697C19.6975 6.46311 20.1388 6.08334 20.6077 5.67988C20.8256 5.4924 21.0495 5.29981 21.2816 5.09931C21.2816 5.50646 21.2812 5.90069 21.2808 6.28596C21.2798 7.15644 21.279 7.98119 21.2831 8.80596C21.286 9.42328 21.5784 9.75797 22.0889 9.75578C22.592 9.75433 22.8918 9.41153 22.894 8.79791C22.9007 7.02901 22.9007 5.26009 22.8948 3.49119C22.8926 2.76308 22.6596 2.5238 21.9286 2.51719C20.8877 2.50814 19.8462 2.51049 18.805 2.51283C18.5778 2.51334 18.3506 2.51385 18.1234 2.51425C17.9527 2.51444 17.7814 2.51072 17.61 2.50701C17.1339 2.49668 16.6575 2.48636 16.1948 2.55976C15.9403 2.60011 15.6309 2.95026 15.5441 3.22181C15.4202 3.60715 15.6509 3.94992 16.0865 4.04756C16.3087 4.09722 16.5437 4.09831 16.7749 4.09938C16.7931 4.09946 16.8112 4.09954 16.8293 4.09965C17.5299 4.10338 18.2309 4.10287 18.9981 4.1023ZM3.63071 21.6215V5.15492L3.63074 5.15495H4.33064C4.90344 5.15495 5.47623 5.15547 6.04903 5.15598C7.91018 5.15767 9.77132 5.15935 11.6325 5.14327C11.9375 5.14091 12.3054 5.06062 12.5258 4.86421C12.6871 4.72081 12.7433 4.30694 12.6885 4.05206C12.5798 3.54388 12.1638 3.44881 11.7222 3.44958C9.83801 3.45218 7.95347 3.45201 6.06902 3.45183C5.13093 3.45174 4.19287 3.45166 3.25487 3.45191C2.20542 3.45268 2.00033 3.67168 2.00033 4.79247C1.99983 8.62202 2 12.4519 2.00017 16.2817C2.00025 18.1965 2.00033 20.1113 2.00033 22.0261C2.00033 23.1991 2.17986 23.3931 3.28188 23.3931C9.07008 23.3939 14.8583 23.3939 20.6465 23.3931C20.6776 23.3931 20.7089 23.3934 20.7401 23.3936C20.8727 23.3946 21.0058 23.3955 21.1369 23.3791C21.6077 23.3191 21.8886 23.0393 21.8894 22.5225C21.8952 19.4867 21.8974 16.4501 21.8865 13.4143C21.8843 12.8999 21.5953 12.6123 21.1085 12.5975C20.6122 12.5819 20.3699 12.9023 20.2823 13.3816C20.2632 13.4859 20.2671 13.5953 20.271 13.7045C20.2726 13.7495 20.2743 13.7945 20.2743 13.8391V21.6215H3.63071Z" fill="#F8F6F0"/>
</svg>
