<svg width="24" height="25" viewBox="0 0 24 25" fill="none" xmlns="http://www.w3.org/2000/svg">
<g id="&#231;&#172;&#145;&#232;&#132;&#184; 1" clip-path="url(#clip0_23246_37988)">
<path id="Vector" d="M0 12.4996C0 15.6821 1.26424 18.7342 3.5146 20.9846C5.76496 23.2349 8.8171 24.4992 11.9996 24.4992C15.1821 24.4992 18.2342 23.2349 20.4846 20.9846C22.7349 18.7342 23.9992 15.6821 23.9992 12.4996C23.9992 9.3171 22.7349 6.26496 20.4846 4.0146C18.2342 1.76424 15.1821 0.5 11.9996 0.5C8.8171 0.5 5.76496 1.76424 3.5146 4.0146C1.26424 6.26496 0 9.3171 0 12.4996Z" fill="#F9C228"/>
<path id="Vector_2" d="M21.5063 5.17885C17.8481 0.427558 11.3312 -0.825692 6.23278 1.97472C4.99773 3.14115 4.01424 4.54782 3.34277 6.10827C2.67129 7.66873 2.32601 9.35002 2.32813 11.0488C2.32813 17.9495 7.92236 23.5433 14.8227 23.5433C15.6188 23.5438 16.4132 23.4684 17.195 23.3184C17.9472 22.9559 18.6596 22.5162 19.3209 22.0065C24.5713 17.964 25.5517 10.4296 21.5063 5.17885Z" fill="#FCDC22"/>
<path id="Vector_3" d="M22.7808 13.3984C20.1716 16.0915 16.8605 18.0548 13.043 19.493C13.043 19.493 14.3524 23.1648 17.914 21.8727C23.7881 19.7435 22.7808 13.3984 22.7808 13.3984Z" fill="#FC9B88"/>
<path id="Vector_4" d="M12.25 13.8622C12.25 14.1088 12.2889 14.353 12.3644 14.5808C12.44 14.8086 12.5507 15.0156 12.6903 15.19C12.8299 15.3644 12.9957 15.5027 13.1781 15.5971C13.3605 15.6914 13.556 15.74 13.7534 15.74C13.9508 15.74 14.1463 15.6914 14.3287 15.5971C14.5111 15.5027 14.6769 15.3644 14.8165 15.19C14.9561 15.0156 15.0668 14.8086 15.1424 14.5808C15.2179 14.353 15.2568 14.1088 15.2568 13.8622C15.2568 13.3642 15.0984 12.8865 14.8165 12.5344C14.5345 12.1822 14.1521 11.9844 13.7534 11.9844C13.3547 11.9844 12.9723 12.1822 12.6903 12.5344C12.4084 12.8865 12.25 13.3642 12.25 13.8622Z" fill="#282828"/>
<path id="Vector_5" d="M20.168 10.5653C20.168 11.0633 20.3035 11.541 20.5447 11.8931C20.7859 12.2453 21.1131 12.4431 21.4542 12.4431C21.7954 12.4431 22.1226 12.2453 22.3638 11.8931C22.605 11.541 22.7405 11.0633 22.7405 10.5653C22.7405 10.0673 22.605 9.58966 22.3638 9.2375C22.1226 8.88534 21.7954 8.6875 21.4542 8.6875C21.1131 8.6875 20.7859 8.88534 20.5447 9.2375C20.3035 9.58966 20.168 10.0673 20.168 10.5653Z" fill="#282828"/>
<path id="Vector_6" d="M22.3536 17.4841C21.5809 16.7929 20.6453 16.3091 19.6345 16.0781C17.6733 17.4614 15.4603 18.5821 13.043 19.4932C13.043 19.4932 14.3524 23.165 17.914 21.873C20.5146 20.9306 21.7662 19.1625 22.3536 17.4841Z" fill="#EA0F1A"/>
</g>
<defs>
<clipPath id="clip0_23246_37988">
<rect width="24" height="24" fill="white" transform="translate(0 0.5)"/>
</clipPath>
</defs>
</svg>
