<svg width="70" height="69" viewBox="0 0 70 69" fill="none" xmlns="http://www.w3.org/2000/svg">
<g filter="url(#filter0_d_5892_23746)">
<path fill-rule="evenodd" clip-rule="evenodd" d="M11.0398 31.1012C12.3411 22.5337 18.1933 14.9081 26.9544 11.7193C35.7155 8.53057 45.1002 10.6104 51.6041 16.337C52.0531 16.7324 52.7377 16.6888 53.1331 16.2398C53.5284 15.7907 53.4849 15.1062 53.0359 14.7108C45.9572 8.47819 35.744 6.21448 26.2133 9.68334C16.6827 13.1522 10.314 21.4513 8.89769 30.7758C8.80784 31.3673 9.21453 31.9197 9.80605 32.0095C10.3976 32.0994 10.9499 31.6927 11.0398 31.1012ZM18.9764 52.9069C18.5274 52.5116 17.8428 52.5551 17.4475 53.0041C17.0521 53.4532 17.0956 54.1377 17.5446 54.5331C24.6233 60.7657 34.8365 63.0294 44.3672 59.5606C53.8978 56.0917 60.2665 47.7926 61.6828 38.4681C61.7727 37.8766 61.366 37.3242 60.7745 37.2344C60.1829 37.1445 59.6306 37.5512 59.5407 38.1427C58.2394 46.7102 52.3872 54.3358 43.6261 57.5246C34.865 60.7133 25.4803 58.6335 18.9764 52.9069ZM24.098 27.032C25.6385 24.7568 27.8833 22.9294 30.6642 21.9173C33.4451 20.9051 36.3394 20.862 38.9819 21.6147C39.5574 21.7785 40.1567 21.4449 40.3206 20.8695C40.4845 20.2941 40.1509 19.6947 39.5755 19.5309C36.5088 18.6574 33.1469 18.7079 29.9232 19.8813C26.6994 21.0546 24.0916 23.1769 22.3039 25.8172C21.9684 26.3126 22.0981 26.9862 22.5935 27.3216C23.0889 27.6571 23.7625 27.5274 24.098 27.032ZM31.5964 47.6338C31.021 47.4699 30.4216 47.8035 30.2577 48.3789C30.0939 48.9543 30.4275 49.5537 31.0029 49.7176C34.0695 50.591 37.4314 50.5405 40.6552 49.3671C43.8789 48.1938 46.4867 46.0715 48.2745 43.4312C48.6099 42.9358 48.4802 42.2622 47.9848 41.9268C47.4894 41.5913 46.8158 41.721 46.4804 42.2164C44.9399 44.4916 42.695 46.319 39.9141 47.3312C37.1332 48.3433 34.2389 48.3864 31.5964 47.6338ZM27.8284 13.1375L29.0257 14.3014L30.6578 13.9488L29.9209 15.4472L30.7605 16.8905L29.1078 16.6527L27.9946 17.8972L27.7101 16.2519L26.1824 15.5777L27.6593 14.7987L27.8284 13.1375ZM42.8158 51.9169L41.6185 50.753L41.4494 52.4142L39.9725 53.1932L41.5001 53.8674L41.7847 55.5127L42.8979 54.2682L44.5506 54.506L43.711 53.0627L44.4479 51.5643L42.8158 51.9169ZM35.8586 11.8726L36.7139 13.3067L38.3816 13.3886L37.282 14.6452L37.7195 16.2566L36.1846 15.5991L34.7872 16.5131L34.9382 14.8502L33.6371 13.8037L35.2653 13.4334L35.8586 11.8726ZM35.0625 53.106L34.2072 51.6719L33.614 53.2327L31.9858 53.603L33.2869 54.6495L33.1359 56.3124L34.5332 55.3984L36.0681 56.0559L35.6306 54.4445L36.7302 53.1879L35.0625 53.106ZM20.388 17.5031L21.8458 18.3174L23.331 17.5545L23.007 19.1925L24.1916 20.3693L22.5336 20.5674L21.7805 22.0576L21.0798 20.542L19.4297 20.2862L20.6547 19.1515L20.388 17.5031ZM48.6972 47.7417L47.2394 46.9274L47.5061 48.5758L46.2812 49.7105L47.9312 49.9663L48.6319 51.4819L49.3851 49.9917L51.043 49.7936L49.8585 48.6168L50.1825 46.9788L48.6972 47.7417Z" fill="#ABACB6"/>
<path fill-rule="evenodd" clip-rule="evenodd" d="M7.99857 34.0755C7.0032 34.4378 6.48998 35.5384 6.85227 36.5337L12.2759 51.4351C12.6382 52.4305 13.7388 52.9437 14.7342 52.5814L62.1833 35.3113C63.1786 34.9491 63.6919 33.8485 63.3296 32.8531L57.9059 17.9517C57.5436 16.9563 56.443 16.4431 55.4477 16.8054L7.99857 34.0755ZM23.722 44.1775C24.2914 44.271 24.9363 44.1968 25.6568 43.9548C26.273 43.7479 26.7608 43.4416 27.1204 43.036C27.4895 42.6272 27.724 42.1634 27.824 41.6446C27.9208 41.1163 27.8785 40.5819 27.697 40.0416C27.4296 39.2453 27.0297 38.6359 26.4975 38.2134C25.9748 37.7877 25.3905 37.4459 24.7448 37.1881L23.5104 36.6691C23.0799 36.4867 22.7158 36.2978 22.4181 36.1024C22.1267 35.8943 21.9093 35.577 21.7661 35.1504C21.6992 34.9514 21.6845 34.7348 21.7219 34.5007C21.7688 34.2634 21.9107 34.105 22.1477 34.0254C22.3657 33.9521 22.5508 33.9691 22.7028 34.0763C22.8517 34.174 22.9833 34.346 23.0977 34.5924C23.2184 34.8261 23.3408 35.1121 23.4649 35.4501L25.5639 34.4445C25.4398 34.1064 25.2778 33.7652 25.0778 33.421C24.8841 33.0641 24.6319 32.7532 24.3214 32.4883C24.0172 32.2107 23.6405 32.0313 23.1913 31.9501C22.7515 31.8657 22.2236 31.927 21.6074 32.134C20.612 32.4683 19.9128 32.9932 19.5096 33.7088C19.1033 34.415 19.0641 35.2562 19.3921 36.2326C19.6245 36.9246 19.9672 37.4583 20.4203 37.8335C20.8797 38.1962 21.3895 38.4891 21.9497 38.7123L23.2364 39.2454C23.7365 39.4466 24.156 39.675 24.495 39.9303C24.8307 40.1762 25.0782 40.5362 25.2374 41.0101C25.3043 41.2092 25.3253 41.4131 25.3004 41.6219C25.2851 41.8275 25.1447 41.9748 24.8793 42.064C24.6707 42.134 24.4683 42.1282 24.2721 42.0464C24.0853 41.9614 23.8983 41.7816 23.7111 41.5069C23.5334 41.2291 23.357 40.8452 23.182 40.3555L21.1163 41.4132C21.4313 42.2569 21.8027 42.9074 22.2307 43.365C22.6555 43.8131 23.1525 44.0839 23.722 44.1775ZM31.0022 41.6531C31.6065 41.7877 32.34 41.7102 33.2026 41.4204C34.0747 41.1275 34.7111 40.745 35.1116 40.2729C35.5216 39.7976 35.7401 39.239 35.7671 38.597C35.7941 37.955 35.6755 37.2406 35.4112 36.4538L33.9737 32.1737C33.7062 31.3774 33.3696 30.7363 32.9637 30.2502C32.5578 29.7641 32.0496 29.4601 31.439 29.3382C30.8347 29.2036 30.0964 29.2828 29.2243 29.5757C28.3617 29.8654 27.7301 30.2463 27.3296 30.7184C26.9258 31.181 26.7089 31.7286 26.6787 32.3611C26.6485 32.9937 26.7672 33.7081 27.0346 34.5043L28.4721 38.7844C28.7364 39.5712 29.0731 40.2124 29.4821 40.7079C29.8912 41.2035 30.3979 41.5185 31.0022 41.6531ZM33.1122 39.2197C33.0336 39.3938 32.8615 39.5254 32.5961 39.6146C32.3307 39.7037 32.114 39.7026 31.9462 39.6113C31.7879 39.5168 31.6547 39.3716 31.5468 39.1758C31.4483 38.9768 31.3624 38.7683 31.2892 38.5503L29.4266 33.0047C29.3502 32.7772 29.2975 32.5575 29.2686 32.3457C29.2365 32.1245 29.2597 31.9268 29.3384 31.7526C29.417 31.5785 29.5796 31.4501 29.8261 31.3673C30.0915 31.2782 30.3081 31.2793 30.4759 31.3706C30.6437 31.4619 30.7816 31.6055 30.8896 31.8013C30.9944 31.9876 31.085 32.1945 31.1614 32.4221L33.024 37.9676C33.0972 38.1857 33.1499 38.4053 33.182 38.6266C33.2141 38.8479 33.1909 39.0456 33.1122 39.2197ZM34.3096 28.0417L38.1781 39.5594L43.3682 37.8162L42.7903 36.0957L40.1455 36.984L36.8549 27.1869L34.3096 28.0417ZM40.6139 25.9243L44.4824 37.442L47.4258 36.4534C48.4212 36.1191 49.1508 35.7316 49.6146 35.291C50.0879 34.8472 50.3476 34.3169 50.3936 33.7002C50.4365 33.074 50.313 32.3295 50.0233 31.4669L48.6192 27.2864C48.3326 26.4332 47.9865 25.7794 47.5807 25.325C47.1717 24.861 46.6461 24.5998 46.0041 24.5412C45.3588 24.4731 44.5337 24.6078 43.5289 24.9453L40.6139 25.9243ZM46.8336 34.6902L46.4354 34.8239L43.7562 26.8468L44.1401 26.7179C44.5193 26.5905 44.8101 26.5456 45.0126 26.5831C45.2151 26.6206 45.375 26.7356 45.4925 26.9283C45.6194 27.1177 45.7402 27.3831 45.8548 27.7243L47.5407 32.7438C47.6553 33.0851 47.7271 33.3774 47.7561 33.6208C47.7946 33.8611 47.7476 34.0667 47.6152 34.2378C47.4828 34.4089 47.2223 34.5597 46.8336 34.6902Z" fill="#ABACB6"/>
</g>
<defs>
<filter id="filter0_d_5892_23746" x="6.73584" y="8.05664" width="56.71" height="54.1309" filterUnits="userSpaceOnUse" color-interpolation-filters="sRGB">
<feFlood flood-opacity="0" result="BackgroundImageFix"/>
<feColorMatrix in="SourceAlpha" type="matrix" values="0 0 0 0 0 0 0 0 0 0 0 0 0 0 0 0 0 0 127 0" result="hardAlpha"/>
<feOffset dy="1"/>
<feComposite in2="hardAlpha" operator="out"/>
<feColorMatrix type="matrix" values="0 0 0 0 0 0 0 0 0 0 0 0 0 0 0 0 0 0 0.15 0"/>
<feBlend mode="normal" in2="BackgroundImageFix" result="effect1_dropShadow_5892_23746"/>
<feBlend mode="normal" in="SourceGraphic" in2="effect1_dropShadow_5892_23746" result="shape"/>
</filter>
</defs>
</svg>
