<svg width="113" height="112" viewBox="0 0 113 112" fill="none" xmlns="http://www.w3.org/2000/svg">
<path fill-rule="evenodd" clip-rule="evenodd" d="M57.7706 4.41408C57.0136 3.86181 55.9865 3.86181 55.2294 4.41408L42.586 13.6373L26.9339 13.6084C25.9968 13.6067 25.1659 14.2104 24.8781 15.1022L20.0716 29.9959L7.39223 39.1709C6.63307 39.7202 6.31568 40.697 6.60694 41.5877L11.4713 56.4622L6.60694 71.3368C6.31568 72.2274 6.63307 73.2042 7.39223 73.7536L20.0716 82.9286L24.8781 97.8222C25.1659 98.714 25.9968 99.3178 26.9339 99.3161L42.586 99.2872L55.2294 108.51C55.9865 109.063 57.0136 109.063 57.7706 108.51L70.414 99.2872L86.0661 99.3161C87.0032 99.3178 87.8341 98.714 88.1219 97.8222L92.9284 82.9286L105.608 73.7536C106.367 73.2042 106.684 72.2274 106.393 71.3368L101.529 56.4622L106.393 41.5877C106.684 40.697 106.367 39.7202 105.608 39.1709L92.9284 29.9959L88.1219 15.1022C87.8341 14.2104 87.0032 13.6067 86.0661 13.6084L70.414 13.6373L57.7706 4.41408ZM44.5577 17.5364L56.5 8.82455L68.4424 17.5364C68.8124 17.8063 69.2589 17.9514 69.7169 17.9505L84.5013 17.9233L89.0414 31.9913C89.1821 32.4274 89.4581 32.8072 89.8293 33.0758L101.806 41.7422L97.2112 55.7921C97.0688 56.2275 97.0688 56.697 97.2112 57.1324L101.806 71.1822L89.8293 79.8486C89.4581 80.1172 89.1821 80.4971 89.0414 80.9331L84.5013 95.0012L69.717 94.9739C69.2589 94.9731 68.8124 95.1181 68.4424 95.3881L56.5 104.1L44.5577 95.3881C44.1876 95.1181 43.7411 94.9731 43.2831 94.9739L28.4987 95.0012L23.9586 80.9331C23.8179 80.4971 23.5419 80.1172 23.1707 79.8486L11.1942 71.1822L15.7888 57.1324C15.9312 56.697 15.9312 56.2275 15.7888 55.7921L11.1942 41.7422L23.1707 33.0758C23.5419 32.8072 23.8179 32.4274 23.9586 31.9913L28.4987 17.9233L43.2831 17.9505C43.7411 17.9514 44.1876 17.8063 44.5577 17.5364ZM78.1471 45.4102C78.989 44.5682 78.989 43.2031 78.1471 42.3611C77.3051 41.5192 75.94 41.5192 75.098 42.3611L51.4694 65.9898L40.4173 54.9377C39.5753 54.0958 38.2102 54.0958 37.3683 54.9377C36.5263 55.7797 36.5263 57.1448 37.3683 57.9867L49.9449 70.5633C50.3492 70.9677 50.8976 71.1948 51.4694 71.1948C52.0412 71.1948 52.5896 70.9677 52.9939 70.5633L78.1471 45.4102Z" fill="#00D387"/>
</svg>
