<svg width="16" height="19" viewBox="0 0 16 19" fill="none" xmlns="http://www.w3.org/2000/svg">
<path d="M2.39107 15.0298L7.54488 13.0982L4.21866 9.58281L2.39107 15.0298ZM14.8707 6.20261C14.7844 6.29869 14.6835 6.34673 14.5677 6.34673C14.452 6.34673 14.351 6.30116 14.2648 6.21003L14.217 6.15952C14.0183 5.94952 13.7769 5.84452 13.493 5.84452C13.209 5.84452 12.9676 5.94952 12.7689 6.15952L9.06596 10.0731C8.97974 10.1643 8.87875 10.2111 8.763 10.2135C8.64727 10.216 8.54394 10.1692 8.45302 10.0731C8.36212 9.97706 8.31667 9.86909 8.31667 9.74924C8.31667 9.62939 8.36212 9.52143 8.45302 9.42535L12.156 5.51172C12.5225 5.12441 12.9658 4.93076 13.4859 4.93076C14.0061 4.93076 14.4494 5.12441 14.8158 5.51172L14.8707 5.56966C14.9569 5.66079 15 5.76628 15 5.88613C15 6.00599 14.9569 6.11148 14.8707 6.20261ZM5.75947 3.98133C5.85037 3.88525 5.95252 3.83721 6.06592 3.83721C6.17933 3.83721 6.28148 3.88525 6.37239 3.98133L6.52704 4.14478C6.91692 4.55684 7.11187 5.05112 7.11187 5.62761C7.11187 6.2041 6.91692 6.69838 6.52704 7.11044L6.39489 7.25013C6.30866 7.34125 6.20768 7.38805 6.09194 7.39054C5.9762 7.39301 5.87286 7.34621 5.78195 7.25013C5.69104 7.15405 5.64559 7.04608 5.64559 6.92623C5.64559 6.80637 5.69104 6.6984 5.78195 6.60233L5.9141 6.46266C6.13155 6.23284 6.24027 5.95449 6.24027 5.62761C6.24027 5.30073 6.13155 5.02238 5.9141 4.79258L5.75947 4.62913C5.67324 4.538 5.62895 4.43127 5.6266 4.30894C5.62426 4.18662 5.66855 4.07742 5.75947 3.98133ZM8.57957 2.64411C8.67047 2.54804 8.77263 2.5 8.88604 2.5C8.99943 2.5 9.10159 2.54804 9.1925 2.64411L9.97133 3.46724C10.3425 3.8595 10.528 4.33051 10.528 4.88025C10.528 5.43 10.3425 5.901 9.97133 6.29326L7.73043 8.66164C7.64421 8.75277 7.54322 8.79957 7.42747 8.80204C7.31173 8.80451 7.2084 8.75771 7.1175 8.66164C7.02658 8.56556 6.98112 8.45759 6.98112 8.33773C6.98112 8.21789 7.02658 8.10992 7.1175 8.01383L9.35839 5.64546C9.55709 5.43546 9.65644 5.18039 9.65644 4.88025C9.65644 4.58012 9.55709 4.32505 9.35839 4.11505L8.57957 3.29192C8.49334 3.20079 8.44906 3.09406 8.44672 2.97172C8.44437 2.84941 8.48865 2.7402 8.57957 2.64411ZM13.7811 11.4847C13.6902 11.5807 13.5881 11.6288 13.4747 11.6288C13.3612 11.6288 13.2591 11.5807 13.1682 11.4847L12.6002 10.8844C12.3781 10.6496 12.1063 10.5323 11.7848 10.5323C11.4634 10.5323 11.1916 10.6496 10.9694 10.8844L10.4015 11.4847C10.3153 11.5758 10.2143 11.6226 10.0986 11.6251C9.9828 11.6275 9.87948 11.5807 9.78857 11.4847C9.69766 11.3886 9.6522 11.2806 9.6522 11.1608C9.6522 11.0409 9.69766 10.9329 9.78857 10.8369L10.3565 10.2366C10.7511 9.81958 11.2272 9.61107 11.7848 9.61107C12.3425 9.61107 12.8186 9.81958 13.2132 10.2366L13.7811 10.8369C13.8673 10.928 13.9116 11.0347 13.914 11.157C13.9163 11.2794 13.872 11.3886 13.7811 11.4847ZM1.04573 15.5439L3.43984 8.50862C3.49608 8.35608 3.58113 8.23969 3.69501 8.15945C3.80888 8.07921 3.93189 8.0391 4.06403 8.0391C4.15213 8.0391 4.23414 8.0547 4.31004 8.0859C4.38596 8.1171 4.45813 8.16886 4.52656 8.24118L8.8143 12.7728C8.88273 12.8452 8.9317 12.9214 8.96122 13.0017C8.99074 13.0819 9.00551 13.1686 9.00551 13.2617C9.00551 13.4013 8.96755 13.5313 8.89163 13.6517C8.81571 13.772 8.70559 13.8619 8.56125 13.9214L1.9047 16.4517C1.77254 16.5061 1.64531 16.5146 1.52301 16.4769C1.4007 16.4393 1.2955 16.3739 1.2074 16.2808C1.1193 16.1877 1.05744 16.0765 1.02183 15.9472C0.986213 15.818 0.994181 15.6835 1.04573 15.5439Z" fill="#FC0006"/>
</svg>
