<svg width="14" height="15" viewBox="0 0 14 15" fill="none" xmlns="http://www.w3.org/2000/svg">
<path d="M4.66662 6.21686C4.66662 5.95913 4.87555 5.7502 5.13328 5.7502H8.86662C9.12435 5.7502 9.33328 5.95913 9.33328 6.21686C9.33328 6.4746 9.12435 6.68353 8.86662 6.68353H5.13328C4.87555 6.68353 4.66662 6.4746 4.66662 6.21686Z" fill="#FC0006"/>
<path d="M5.13328 8.08353C4.87555 8.08353 4.66662 8.29246 4.66662 8.5502C4.66662 8.80793 4.87555 9.01686 5.13328 9.01686H8.86662C9.12435 9.01686 9.33328 8.80793 9.33328 8.5502C9.33328 8.29246 9.12435 8.08353 8.86662 8.08353H5.13328Z" fill="#FC0006"/>
<path fill-rule="evenodd" clip-rule="evenodd" d="M0.699951 4.0002C0.699951 3.4203 1.17005 2.9502 1.74995 2.9502H12.25C12.8298 2.9502 13.2999 3.4203 13.2999 4.0002V5.9611C13.2999 6.18043 13.1472 6.37016 12.9329 6.417C12.4994 6.51178 12.1333 6.94094 12.1333 7.5002C12.1333 8.05945 12.4994 8.48862 12.9329 8.58339C13.1472 8.63023 13.2999 8.81996 13.2999 9.03929V11.0002C13.2999 11.5801 12.8298 12.0502 12.25 12.0502H1.74995C1.17005 12.0502 0.699951 11.5801 0.699951 11.0002V9.03929C0.699951 8.81996 0.852687 8.63023 1.06696 8.58339C1.50051 8.48862 1.86662 8.05945 1.86662 7.5002C1.86662 6.94094 1.50051 6.51178 1.06696 6.417C0.852687 6.37016 0.699951 6.18043 0.699951 5.9611V4.0002ZM1.74995 3.88353C1.68552 3.88353 1.63328 3.93576 1.63328 4.0002V5.62682C2.33247 5.94304 2.79995 6.6768 2.79995 7.5002C2.79995 8.3236 2.33247 9.05735 1.63328 9.37357V11.0002C1.63328 11.0646 1.68552 11.1169 1.74995 11.1169H12.25C12.3144 11.1169 12.3666 11.0646 12.3666 11.0002V9.37357C11.6674 9.05735 11.2 8.3236 11.2 7.5002C11.2 6.6768 11.6674 5.94304 12.3666 5.62682V4.0002C12.3666 3.93576 12.3144 3.88353 12.25 3.88353H1.74995Z" fill="#FC0006"/>
</svg>
