<svg width="52" height="52" viewBox="0 0 52 52" fill="none" xmlns="http://www.w3.org/2000/svg">
<g filter="url(#filter0_d_11032_67939)">
<path fill-rule="evenodd" clip-rule="evenodd" d="M8.22151 23.1055C9.187 16.749 13.529 11.0913 20.0291 8.72544C26.5293 6.35957 33.4921 7.90266 38.3176 12.1514C38.6508 12.4448 39.1587 12.4125 39.452 12.0793C39.7454 11.7462 39.7131 11.2383 39.3799 10.9449C34.128 6.32071 26.5504 4.64118 19.4793 7.21486C12.4082 9.78853 7.68302 15.9459 6.63222 22.8641C6.56556 23.303 6.86729 23.7128 7.30617 23.7794C7.74504 23.8461 8.15485 23.5444 8.22151 23.1055ZM14.11 39.284C13.7768 38.9906 13.2689 39.0229 12.9756 39.3561C12.6822 39.6892 12.7145 40.1971 13.0477 40.4905C18.2996 45.1147 25.8772 46.7942 32.9483 44.2205C40.0194 41.6469 44.7446 35.4895 45.7954 28.5713C45.8621 28.1324 45.5603 27.7226 45.1214 27.6559C44.6826 27.5893 44.2728 27.891 44.2061 28.3299C43.2406 34.6864 38.8986 40.3441 32.3985 42.71C25.8983 45.0758 18.9355 43.5327 14.11 39.284ZM17.9118 20.0859C19.0548 18.3979 20.7203 17.0421 22.7835 16.2911C24.8468 15.5401 26.9942 15.5082 28.9548 16.0666C29.3817 16.1882 29.8264 15.9407 29.948 15.5137C30.0695 15.0868 29.822 14.6421 29.3951 14.5205C27.1198 13.8725 24.6256 13.91 22.2337 14.7805C19.8419 15.6511 17.9071 17.2257 16.5807 19.1846C16.3318 19.5522 16.428 20.0519 16.7956 20.3008C17.1632 20.5497 17.6629 20.4535 17.9118 20.0859ZM23.4752 35.3711C23.0482 35.2495 22.6036 35.497 22.482 35.9239C22.3604 36.3509 22.6079 36.7955 23.0348 36.9171C25.3101 37.5652 27.8044 37.5277 30.1962 36.6572C32.588 35.7866 34.5228 34.212 35.8492 32.2531C36.0981 31.8855 36.0019 31.3858 35.6343 31.1369C35.2667 30.888 34.767 30.9842 34.5181 31.3518C33.3751 33.0398 31.7096 34.3956 29.6464 35.1466C27.5831 35.8975 25.4358 35.9295 23.4752 35.3711ZM20.6674 9.77739L21.5557 10.6409L22.7666 10.3793L22.2199 11.491L22.8428 12.5619L21.6166 12.3854L20.7907 13.3088L20.5796 12.088L19.4462 11.5879L20.5419 11.0099L20.6674 9.77739ZM31.7979 38.5483L30.9095 37.6848L30.7841 38.9172L29.6883 39.4952L30.8218 39.9954L31.0329 41.2161L31.8588 40.2928L33.085 40.4692L32.4621 39.3984L33.0088 38.2867L31.7979 38.5483ZM26.6443 8.83801L27.2788 9.90201L28.5162 9.96277L27.7003 10.8951L28.0249 12.0907L26.8861 11.6028L25.8494 12.281L25.9614 11.0472L24.9961 10.2707L26.2041 9.99604L26.6443 8.83801ZM26.0402 39.431L25.4057 38.367L24.9655 39.525L23.7575 39.7997L24.7228 40.5762L24.6108 41.81L25.6476 41.1318L26.7864 41.6196L26.4618 40.4241L27.2776 39.4918L26.0402 39.431ZM15.1683 13.0166L16.2499 13.6208L17.3518 13.0547L17.1115 14.27L17.9903 15.1431L16.7602 15.2901L16.2014 16.3958L15.6816 15.2713L14.4573 15.0815L15.3662 14.2396L15.1683 13.0166ZM36.1631 35.4519L35.0815 34.8477L35.2794 36.0707L34.3706 36.9126L35.5948 37.1024L36.1147 38.2269L36.6734 37.1212L37.9036 36.9743L37.0247 36.1011L37.2651 34.8858L36.1631 35.4519Z" fill="#0BFFFF"/>
<path fill-rule="evenodd" clip-rule="evenodd" d="M5.95436 25.3119C5.21586 25.5807 4.83509 26.3973 5.10388 27.1358L9.12788 38.1916C9.39668 38.9301 10.2133 39.3109 10.9518 39.0421L46.1559 26.2288C46.8944 25.96 47.2752 25.1435 47.0064 24.405L42.9824 13.3491C42.7136 12.6106 41.897 12.2298 41.1585 12.4986L5.95436 25.3119ZM13.1368 34.5682C13.5381 34.6471 14.0211 34.5838 14.5859 34.3782C15.157 34.1704 15.5708 33.9073 15.8275 33.5889C16.0904 33.2683 16.2254 32.8958 16.2326 32.4715C16.2398 32.0471 16.1497 31.5773 15.9622 31.0622L14.9422 28.2598C14.7524 27.7384 14.5195 27.3206 14.2435 27.0064C13.9674 26.6921 13.6268 26.4998 13.2216 26.4294C12.8204 26.3505 12.3342 26.415 11.7632 26.6228C11.1984 26.8284 10.7876 27.0903 10.531 27.4087C10.272 27.7208 10.1378 28.086 10.1284 28.5042C10.1189 28.9223 10.2091 29.3921 10.3988 29.9134L11.4188 32.7158C11.6063 33.231 11.8392 33.6488 12.1175 33.9692C12.3958 34.2897 12.7356 34.4893 13.1368 34.5682ZM14.4899 32.9265C14.4408 33.0428 14.3294 33.1325 14.1556 33.1958C13.9818 33.2591 13.8387 33.2619 13.7264 33.2044C13.6203 33.1446 13.53 33.051 13.4555 32.9234C13.3871 32.7937 13.327 32.6574 13.275 32.5147L11.9535 28.8837C11.8993 28.7347 11.8608 28.5905 11.8382 28.4512C11.8134 28.3056 11.8255 28.1747 11.8745 28.0584C11.9236 27.9421 12.0288 27.8546 12.1902 27.7959C12.364 27.7326 12.507 27.7298 12.6193 27.7873C12.7316 27.8448 12.8251 27.9373 12.8996 28.0649C12.9719 28.1862 13.0351 28.3213 13.0893 28.4703L14.4109 32.1012C14.4629 32.244 14.5013 32.3882 14.5261 32.5338C14.551 32.6793 14.5389 32.8103 14.4899 32.9265ZM15.0957 25.5259L17.8405 33.0671L19.265 32.5487L17.8417 28.6384L20.8104 31.9861L21.937 31.5761L19.1922 24.0349L17.8143 24.5364L19.1358 28.1674L16.2688 25.0989L15.0957 25.5259ZM27.4837 29.6838C27.012 29.8555 26.5874 29.9151 26.2099 29.8628C25.8323 29.8104 25.4996 29.6398 25.2117 29.3509C24.9216 29.0559 24.6655 28.6324 24.4436 28.0806L25.7901 27.348C25.9138 27.6685 26.0366 27.919 26.1586 28.0996C26.2867 28.2779 26.4131 28.3935 26.5379 28.4465C26.6688 28.4973 26.8026 28.4978 26.9391 28.4481C27.1129 28.3848 27.2032 28.2852 27.2099 28.1492C27.2228 28.0109 27.2056 27.8766 27.1581 27.7463C27.0452 27.436 26.8758 27.2024 26.65 27.0456C26.422 26.8826 26.1412 26.7387 25.8077 26.6141L24.9493 26.2834C24.5756 26.1453 24.2342 25.9603 23.9249 25.7284C23.6195 25.4881 23.3844 25.1414 23.2194 24.6883C22.9868 24.049 22.9987 23.4929 23.2554 23.0199C23.5097 22.5407 23.9628 22.1825 24.6145 21.9453C25.0179 21.7985 25.3655 21.7493 25.6573 21.7977C25.9552 21.8439 26.207 21.9561 26.4124 22.1344C26.6218 22.3042 26.7934 22.5053 26.9273 22.7378C27.065 22.9618 27.1777 23.1844 27.2652 23.4056L25.8958 24.1043C25.8083 23.8831 25.7227 23.6964 25.6392 23.544C25.5596 23.3832 25.4698 23.2718 25.3699 23.2097C25.2677 23.1415 25.1453 23.1333 25.0025 23.1853C24.8473 23.2418 24.7562 23.3487 24.7292 23.5062C24.7084 23.6614 24.7217 23.8042 24.7691 23.9345C24.8708 24.2138 25.0195 24.4197 25.2154 24.5523C25.4152 24.6764 25.6587 24.7951 25.946 24.9084L26.7697 25.2307C27.2003 25.3903 27.5917 25.6063 27.944 25.8788C28.3024 26.149 28.5765 26.5447 28.7662 27.0661C28.895 27.4199 28.9318 27.772 28.8766 28.1225C28.8191 28.4667 28.6719 28.7769 28.435 29.0529C28.2043 29.3266 27.8872 29.5369 27.4837 29.6838ZM28.4676 20.6589L29.7879 28.7186L31.3614 28.1459L31.0426 26.459L32.1505 26.0557L32.9813 27.5563L34.5175 26.9972L30.3669 19.9676L28.4676 20.6589ZM30.1585 22.3209L31.6297 25.1172L30.829 25.4086L30.1585 22.3209ZM35.2789 26.72L32.5341 19.1788L34.2007 18.5722L36.5354 24.9869L38.2671 24.3567L38.6771 25.4832L35.2789 26.72ZM36.6619 17.6764L39.4067 25.2177L42.8142 23.9774L42.4042 22.8509L40.6632 23.4846L39.8431 21.2315L41.1559 20.7537L40.7357 19.5992L39.4229 20.077L38.7418 18.2057L40.4642 17.5788L40.0508 16.4429L36.6619 17.6764Z" fill="#0BFFFF"/>
</g>
<defs>
<filter id="filter0_d_11032_67939" x="5.0177" y="6.00781" width="42.8169" height="40.1617" filterUnits="userSpaceOnUse" color-interpolation-filters="sRGB">
<feFlood flood-opacity="0" result="BackgroundImageFix"/>
<feColorMatrix in="SourceAlpha" type="matrix" values="0 0 0 0 0 0 0 0 0 0 0 0 0 0 0 0 0 0 127 0" result="hardAlpha"/>
<feOffset dx="0.741936" dy="0.741936"/>
<feComposite in2="hardAlpha" operator="out"/>
<feColorMatrix type="matrix" values="0 0 0 0 0 0 0 0 0 0 0 0 0 0 0 0 0 0 0.15 0"/>
<feBlend mode="normal" in2="BackgroundImageFix" result="effect1_dropShadow_11032_67939"/>
<feBlend mode="normal" in="SourceGraphic" in2="effect1_dropShadow_11032_67939" result="shape"/>
</filter>
</defs>
</svg>
