<svg width="415" height="763" viewBox="0 0 415 763" fill="none" xmlns="http://www.w3.org/2000/svg">
<g filter="url(#filter0_d_11560_69524)">
<mask id="path-1-inside-1_11560_69524" fill="white">
<path fill-rule="evenodd" clip-rule="evenodd" d="M30 37C30 31.4772 34.4772 27 40 27H375C380.523 27 385 31.4372 385 36.9601V474.008C377.223 474.272 371 480.659 371 488.5C371 496.341 377.223 502.728 385 502.992V720.04C385 725.563 380.523 730 375 730H40C34.4772 730 30 725.523 30 720V502.992C30.166 502.997 30.3327 503 30.5 503C38.5081 503 45 496.508 45 488.5C45 480.492 38.5081 474 30.5 474C30.3327 474 30.166 474.003 30 474.008V37Z"/>
</mask>
<path fill-rule="evenodd" clip-rule="evenodd" d="M30 37C30 31.4772 34.4772 27 40 27H375C380.523 27 385 31.4372 385 36.9601V474.008C377.223 474.272 371 480.659 371 488.5C371 496.341 377.223 502.728 385 502.992V720.04C385 725.563 380.523 730 375 730H40C34.4772 730 30 725.523 30 720V502.992C30.166 502.997 30.3327 503 30.5 503C38.5081 503 45 496.508 45 488.5C45 480.492 38.5081 474 30.5 474C30.3327 474 30.166 474.003 30 474.008V37Z" fill="#303034"/>
<path d="M385 474.008L385.034 475.008L386 474.975V474.008H385ZM385 502.992H386V502.025L385.034 501.992L385 502.992ZM30 502.992L30.0338 501.992L29 501.957V502.992H30ZM30 474.008H29V475.043L30.0338 475.008L30 474.008ZM40 26C33.9249 26 29 30.9249 29 37H31C31 32.0294 35.0294 28 40 28V26ZM375 26H40V28H375V26ZM386 36.9601C386 30.8797 381.07 26 375 26V28C379.976 28 384 31.9947 384 36.9601H386ZM386 474.008V36.9601H384V474.008H386ZM372 488.5C372 481.2 377.794 475.253 385.034 475.008L384.966 473.009C376.653 473.291 370 480.118 370 488.5H372ZM385.034 501.992C377.794 501.747 372 495.8 372 488.5H370C370 496.882 376.653 503.709 384.966 503.991L385.034 501.992ZM386 720.04V502.992H384V720.04H386ZM375 731C381.07 731 386 726.12 386 720.04H384C384 725.005 379.976 729 375 729V731ZM40 731H375V729H40V731ZM29 720C29 726.075 33.9249 731 40 731V729C35.0294 729 31 724.971 31 720H29ZM29 502.992V720H31V502.992H29ZM30.5 502C30.344 502 30.1886 501.997 30.0338 501.992L29.9662 503.991C30.1434 503.997 30.3213 504 30.5 504V502ZM44 488.5C44 495.956 37.9558 502 30.5 502V504C39.0604 504 46 497.06 46 488.5H44ZM30.5 475C37.9558 475 44 481.044 44 488.5H46C46 479.94 39.0604 473 30.5 473V475ZM30.0338 475.008C30.1886 475.003 30.344 475 30.5 475V473C30.3213 473 30.1434 473.003 29.9662 473.009L30.0338 475.008ZM29 37V474.008H31V37H29Z" fill="#717179" fill-opacity="0.5" mask="url(#path-1-inside-1_11560_69524)"/>
</g>
<defs>
<filter id="filter0_d_11560_69524" x="0" y="0" width="415" height="763" filterUnits="userSpaceOnUse" color-interpolation-filters="sRGB">
<feFlood flood-opacity="0" result="BackgroundImageFix"/>
<feColorMatrix in="SourceAlpha" type="matrix" values="0 0 0 0 0 0 0 0 0 0 0 0 0 0 0 0 0 0 127 0" result="hardAlpha"/>
<feOffset dy="3"/>
<feGaussianBlur stdDeviation="15"/>
<feComposite in2="hardAlpha" operator="out"/>
<feColorMatrix type="matrix" values="0 0 0 0 0 0 0 0 0 0 0 0 0 0 0 0 0 0 0.25 0"/>
<feBlend mode="normal" in2="BackgroundImageFix" result="effect1_dropShadow_11560_69524"/>
<feBlend mode="normal" in="SourceGraphic" in2="effect1_dropShadow_11560_69524" result="shape"/>
</filter>
</defs>
</svg>
