<svg width="46" height="46" viewBox="0 0 46 46" fill="none" xmlns="http://www.w3.org/2000/svg">
<g opacity="0.8">
<g filter="url(#filter0_d_25245_17678)">
<path fill-rule="evenodd" clip-rule="evenodd" d="M5.22029 20.1073C6.18578 13.7508 10.5277 8.09313 17.0279 5.72727C23.5281 3.36141 30.4909 4.9045 35.3164 9.15325C35.6495 9.4466 36.1574 9.41432 36.4508 9.08116C36.7441 8.74799 36.7119 8.2401 36.3787 7.94675C31.1268 3.32255 23.5492 1.64302 16.4781 4.21669C9.40699 6.79036 4.6818 12.9477 3.631 19.8659C3.56434 20.3048 3.86607 20.7146 4.30495 20.7813C4.74382 20.8479 5.15363 20.5462 5.22029 20.1073ZM11.1088 36.2858C10.7756 35.9925 10.2677 36.0247 9.97437 36.3579C9.68103 36.6911 9.71331 37.199 10.0465 37.4923C15.2984 42.1165 22.876 43.796 29.9471 41.2224C37.0182 38.6487 41.7434 32.4913 42.7942 25.5731C42.8608 25.1343 42.5591 24.7244 42.1202 24.6578C41.6813 24.5911 41.2715 24.8929 41.2049 25.3317C40.2394 31.6882 35.8974 37.3459 29.3973 39.7118C22.8971 42.0777 15.9343 40.5346 11.1088 36.2858ZM14.9124 17.0896C16.0554 15.4016 17.7209 14.0458 19.7842 13.2948C21.8474 12.5439 23.9948 12.5119 25.9554 13.0703C26.3823 13.1919 26.827 12.9444 26.9486 12.5175C27.0702 12.0905 26.8226 11.6459 26.3957 11.5243C24.1205 10.8762 21.6262 10.9137 19.2344 11.7842C16.8425 12.6548 14.9077 14.2294 13.5813 16.1883C13.3324 16.5559 13.4286 17.0556 13.7962 17.3045C14.1638 17.5534 14.6635 17.4572 14.9124 17.0896ZM20.4758 32.3748C20.0488 32.2532 19.6042 32.5007 19.4826 32.9277C19.361 33.3546 19.6085 33.7993 20.0354 33.9208C22.3107 34.5689 24.805 34.5314 27.1968 33.6609C29.5886 32.7903 31.5234 31.2157 32.8498 29.2568C33.0987 28.8892 33.0025 28.3895 32.6349 28.1406C32.2674 27.8917 31.7676 27.9879 31.5187 28.3555C30.3758 30.0435 28.7102 31.3993 26.647 32.1503C24.5837 32.9012 22.4364 32.9332 20.4758 32.3748ZM17.6671 6.78027L18.5554 7.64378L19.7663 7.38222L19.2196 8.4939L19.8425 9.56474L18.6163 9.38829L17.7904 10.3117L17.5793 9.09092L16.4459 8.59076L17.5416 8.01276L17.6671 6.78027ZM28.7976 35.5494L27.9092 34.6859L27.7838 35.9184L26.6881 36.4964L27.8215 36.9966L28.0326 38.2173L28.8585 37.2939L30.0847 37.4704L29.4618 36.3996L30.0085 35.2879L28.7976 35.5494ZM23.643 5.83915L24.2776 6.90315L25.515 6.96391L24.6991 7.89621L25.0237 9.09179L23.8849 8.60398L22.8482 9.28213L22.9602 8.04835L21.9949 7.27188L23.2029 6.99718L23.643 5.83915ZM23.0399 36.4342L22.4054 35.3702L21.9652 36.5283L20.7572 36.803L21.7226 37.5794L21.6105 38.8132L22.6473 38.1351L23.7861 38.6229L23.4615 37.4273L24.2773 36.495L23.0399 36.4342ZM12.1662 10.0199L13.2477 10.6241L14.3497 10.0581L14.1093 11.2734L14.9882 12.1465L13.7581 12.2934L13.1993 13.3991L12.6794 12.2746L11.4552 12.0848L12.364 11.2429L12.1662 10.0199ZM33.1619 32.4534L32.0803 31.8492L32.2782 33.0722L31.3693 33.9141L32.5936 34.1039L33.1134 35.2284L33.6722 34.1227L34.9023 33.9758L34.0235 33.1027L34.2638 31.8873L33.1619 32.4534Z" fill="#ABACB6"/>
<path fill-rule="evenodd" clip-rule="evenodd" d="M2.95437 22.3141C2.21586 22.5829 1.83509 23.3995 2.10388 24.138L6.12788 35.1938C6.39667 35.9323 7.21325 36.3131 7.95175 36.0443L43.1559 23.231C43.8944 22.9622 44.2752 22.1457 44.0064 21.4072L39.9824 10.3513C39.7136 9.6128 38.897 9.23203 38.1585 9.50082L2.95437 22.3141ZM20.5816 26.2717C20.305 26.3707 20.0562 26.4043 19.8354 26.3724C19.6146 26.3406 19.4203 26.2397 19.2527 26.0697C19.0838 25.8961 18.9353 25.6474 18.8071 25.3237L19.5976 24.8991C19.669 25.0871 19.7401 25.2341 19.8109 25.3402C19.8854 25.4449 19.959 25.513 20.0319 25.5445C20.1083 25.5746 20.1866 25.5753 20.2667 25.5466C20.3686 25.5102 20.4218 25.4521 20.4262 25.3725C20.4342 25.2917 20.4245 25.213 20.3971 25.1365C20.332 24.9545 20.2336 24.8173 20.1019 24.7248C19.969 24.6286 19.8051 24.5435 19.6102 24.4695L19.1088 24.2733C18.8905 24.1912 18.6912 24.0818 18.5109 23.9452C18.3329 23.8035 18.1963 23.5998 18.1012 23.3341C17.967 22.9591 17.9758 22.6336 18.1275 22.3576C18.2779 22.0779 18.5442 21.8697 18.9265 21.7329C19.1631 21.6482 19.3667 21.6205 19.5374 21.6498C19.7116 21.6777 19.8586 21.7442 19.9783 21.8492C20.1004 21.9493 20.2002 22.0675 20.2778 22.204C20.3577 22.3356 20.423 22.4662 20.4735 22.596L19.6697 23.0007C19.6192 22.8709 19.5697 22.7613 19.5212 22.6719C19.4752 22.5775 19.423 22.512 19.3647 22.4754C19.3051 22.4351 19.2334 22.43 19.1497 22.4599C19.0587 22.4925 19.005 22.5548 18.9887 22.6469C18.976 22.7377 18.9834 22.8213 19.0107 22.8977C19.0693 23.0615 19.1558 23.1826 19.27 23.2608C19.3866 23.334 19.5288 23.4043 19.6965 23.4716L20.1777 23.6628C20.4293 23.7576 20.6577 23.8852 20.863 24.0458C21.072 24.2051 21.2312 24.4377 21.3406 24.7435C21.4149 24.951 21.4353 25.1572 21.4019 25.3622C21.3671 25.5635 21.28 25.7446 21.1404 25.9054C21.0045 26.0649 20.8183 26.187 20.5816 26.2717ZM39.4273 19.5283C39.1215 19.6378 38.8566 19.6607 38.6326 19.5971C38.4123 19.5322 38.2229 19.3988 38.0643 19.1968C37.9081 18.9899 37.776 18.7354 37.6678 18.4332L37.1363 16.948C37.0243 16.6349 36.9672 16.3494 36.9653 16.0914C36.9633 15.8334 37.0366 15.6079 37.1852 15.4151C37.3362 15.2174 37.5792 15.0586 37.9141 14.9387C38.2417 14.8214 38.5179 14.7842 38.7426 14.827C38.971 14.8684 39.1598 14.9713 39.3089 15.1356C39.458 15.2998 39.5789 15.5112 39.6714 15.7697L39.773 16.0536L38.8174 16.3956L38.6884 16.0352C38.6545 15.9406 38.616 15.8558 38.5728 15.7809C38.5332 15.7048 38.4813 15.6515 38.417 15.6211C38.3551 15.5858 38.2732 15.5863 38.1712 15.6228C38.0657 15.6606 37.9996 15.7171 37.9732 15.7922C37.9454 15.8638 37.9392 15.944 37.9546 16.033C37.9736 16.1206 37.9994 16.2099 38.032 16.3009L38.7648 18.3486C38.8 18.4469 38.8423 18.5365 38.8918 18.6173C38.9436 18.6932 39.0048 18.7494 39.0753 18.7857C39.1481 18.8172 39.2337 18.8153 39.332 18.7801C39.4339 18.7436 39.5024 18.6883 39.5375 18.6142C39.5725 18.54 39.5853 18.4554 39.5759 18.3602C39.5665 18.265 39.5442 18.1683 39.509 18.07L39.3234 17.5512L38.9247 17.6939L38.7196 17.1205L39.9973 16.6632L40.8181 18.9566L40.1737 19.1872L39.9882 18.8409C39.9742 18.9856 39.9258 19.1199 39.8429 19.244C39.7588 19.3645 39.6202 19.4593 39.4273 19.5283ZM35.1924 20.9688L33.6095 16.5458L34.2975 16.2995L35.9661 18.1047L35.204 15.9751L36.0121 15.6859L37.595 20.1089L36.9343 20.3454L35.2071 18.3764L36.0279 20.6698L35.1924 20.9688ZM31.9685 17.1325L33.5514 21.5555L34.5288 21.2057L32.9459 16.7827L31.9685 17.1325ZM30.2712 22.729L28.6883 18.306L29.9059 17.8702C30.2045 17.7634 30.4746 17.7036 30.7165 17.691C30.9584 17.6783 31.17 17.7361 31.3514 17.8642C31.5351 17.9873 31.6823 18.2036 31.793 18.5131C31.8582 18.6951 31.9016 18.8623 31.9233 19.0147C31.9449 19.1671 31.9346 19.3104 31.8923 19.4446C31.8524 19.5739 31.7719 19.6992 31.6511 19.8205L33.0232 21.7441L32.0131 22.1056L30.8177 20.2974L30.5392 20.397L31.2486 22.3792L30.2712 22.729ZM30.3379 19.8346L30.611 19.7369C30.7493 19.6874 30.8482 19.6253 30.9077 19.5506C30.9659 19.4723 30.9933 19.3824 30.9899 19.281C30.9887 19.1746 30.9647 19.0559 30.9178 18.9248C30.8501 18.7355 30.7627 18.6005 30.6558 18.5197C30.5489 18.4388 30.4026 18.4317 30.2169 18.4981L29.9002 18.6114L30.3379 19.8346ZM25.4172 19.4804L27.0001 23.9034L27.9775 23.5536L27.2682 21.5714L27.5467 21.4717L28.742 23.28L29.7522 22.9184L28.38 20.9948C28.5009 20.8736 28.5813 20.7483 28.6213 20.619C28.6636 20.4848 28.6739 20.3415 28.6522 20.1891C28.6305 20.0367 28.5871 19.8695 28.522 19.6874C28.4112 19.378 28.264 19.1617 28.0803 19.0386C27.899 18.9105 27.6873 18.8527 27.4455 18.8654C27.2036 18.878 26.9334 18.9378 26.6349 19.0446L25.4172 19.4804ZM27.3399 20.9113L27.0669 21.009L26.6291 19.7858L26.9459 19.6725C27.1315 19.606 27.2778 19.6132 27.3848 19.694C27.4917 19.7749 27.5791 19.9099 27.6468 20.0992C27.6937 20.2303 27.7177 20.349 27.7188 20.4553C27.7223 20.5568 27.6949 20.6467 27.6367 20.725C27.5772 20.7997 27.4782 20.8618 27.3399 20.9113ZM24.556 24.7761L22.9731 20.3531L24.9607 19.6418L25.1991 20.308L24.1889 20.6695L24.5817 21.7671L25.3517 21.4915L25.594 22.1686L24.8241 22.4442L25.297 23.7656L26.3181 23.4002L26.5545 24.0609L24.556 24.7761ZM20.606 21.1984L22.1889 25.6214L23.1663 25.2716L22.4628 23.3058L23.2764 23.0146L23.0321 22.3321L22.2185 22.6233L21.8199 21.5093L22.7536 21.1751L22.5172 20.5144L20.606 21.1984ZM14.7423 23.2987L16.3252 27.7217L17.1607 27.4227L16.3399 25.1293L18.0671 27.0983L18.7278 26.8619L17.1449 22.4389L16.3368 22.7281L17.0989 24.8577L15.4303 23.0525L14.7423 23.2987ZM13.1037 28.875L12.3562 24.153L13.4702 23.7544L15.8776 27.8823L14.9766 28.2047L14.495 27.3237L13.8452 27.5563L14.0265 28.5448L13.1037 28.875ZM13.7235 26.9408L14.1931 26.7727L13.3408 25.1312L13.7235 26.9408ZM8.46058 25.5476L10.0435 29.9706L11.0209 29.6208L10.3115 27.6386L10.59 27.5389L11.7854 29.3472L12.7956 28.9856L11.4234 27.0621C11.5443 26.9408 11.6247 26.8155 11.6646 26.6862C11.707 26.552 11.7173 26.4087 11.6956 26.2563C11.6739 26.1039 11.6305 25.9367 11.5653 25.7546C11.4546 25.4452 11.3074 25.2289 11.1237 25.1058C10.9423 24.9777 10.7307 24.9199 10.4888 24.9326C10.247 24.9452 9.97677 25.005 9.67827 25.1118L8.46058 25.5476ZM10.3833 26.9785L10.1103 27.0762L9.67251 25.853L9.98922 25.7397C10.1749 25.6732 10.3212 25.6804 10.4281 25.7612C10.5351 25.8421 10.6224 25.9771 10.6902 26.1664C10.7371 26.2975 10.7611 26.4162 10.7622 26.5226C10.7656 26.624 10.7382 26.7139 10.68 26.7922C10.6205 26.8669 10.5216 26.929 10.3833 26.9785ZM8.00885 30.6975L6.68585 27.0008L6.01968 27.2392L5.75977 26.5129L8.06955 25.6863L8.32946 26.4125L7.66874 26.649L8.99174 30.3458L8.00885 30.6975Z" fill="#ABACB6"/>
</g>
</g>
<defs>
<filter id="filter0_d_25245_17678" x="2.01758" y="3.00977" width="42.8162" height="40.1619" filterUnits="userSpaceOnUse" color-interpolation-filters="sRGB">
<feFlood flood-opacity="0" result="BackgroundImageFix"/>
<feColorMatrix in="SourceAlpha" type="matrix" values="0 0 0 0 0 0 0 0 0 0 0 0 0 0 0 0 0 0 127 0" result="hardAlpha"/>
<feOffset dx="0.741935" dy="0.741935"/>
<feComposite in2="hardAlpha" operator="out"/>
<feColorMatrix type="matrix" values="0 0 0 0 0 0 0 0 0 0 0 0 0 0 0 0 0 0 0.15 0"/>
<feBlend mode="normal" in2="BackgroundImageFix" result="effect1_dropShadow_25245_17678"/>
<feBlend mode="normal" in="SourceGraphic" in2="effect1_dropShadow_25245_17678" result="shape"/>
</filter>
</defs>
</svg>
