<svg width="16" height="15" viewBox="0 0 16 15" fill="none" xmlns="http://www.w3.org/2000/svg">
<g clip-path="url(#clip0_25855_104)">
<path fill-rule="evenodd" clip-rule="evenodd" d="M9.46179 8.38529L9.46733 8.38754L8.24403 9.34118C7.86202 9.24322 7.46603 9.19284 7.0625 9.19284C5.74273 9.19284 4.50359 9.73178 3.57054 10.7112C2.66875 11.6578 2.15861 12.9067 2.1257 14.2403C2.12405 14.3145 2.06646 14.375 1.99405 14.375H1.00669C0.98912 14.375 0.971728 14.3713 0.955538 14.3642C0.939347 14.357 0.924685 14.3465 0.912417 14.3333C0.900148 14.3201 0.890521 14.3045 0.884102 14.2873C0.877683 14.2701 0.874602 14.2518 0.875041 14.2334C0.890151 13.4129 1.05494 12.6031 1.36049 11.8478C1.67152 11.0763 2.12193 10.3754 2.68685 9.78361C3.25458 9.18593 3.91611 8.71781 4.65334 8.39133C4.65663 8.3896 4.65992 8.38831 4.66321 8.38701C4.66651 8.38572 4.6698 8.38442 4.67309 8.38269C3.64788 7.60364 2.98141 6.33747 2.98141 4.90892C2.98141 2.5424 4.80803 0.625 7.0625 0.625C9.31697 0.625 11.1436 2.5424 11.1436 4.90892C11.1436 6.33747 10.4771 7.60364 9.45191 8.38097C9.4552 8.38269 9.4585 8.38399 9.46179 8.38529ZM7.0625 7.88003C6.30717 7.88003 5.59627 7.57082 5.06145 7.00942C4.52663 6.44802 4.23207 5.70179 4.23207 4.90892C4.23207 4.11605 4.52663 3.36982 5.06145 2.80842C5.59627 2.24702 6.30717 1.93781 7.0625 1.93781C7.81783 1.93781 8.52873 2.24702 9.06355 2.80842C9.59837 3.36982 9.89293 4.11605 9.89293 4.90892C9.89293 5.70179 9.59837 6.44802 9.06355 7.00942C8.52873 7.57082 7.81783 7.88003 7.0625 7.88003Z" fill="#F8F6F0"/>
<path d="M14.625 11.4531L11.5312 13.6858V11.9687H7.37704V10.9375H11.5312V9.22039L14.625 11.4531Z" fill="#F8F6F0"/>
</g>
<defs>
<clipPath id="clip0_25855_104">
<rect width="15" height="15" fill="white" transform="translate(0.25)"/>
</clipPath>
</defs>
</svg>
